<?xml version="1.0" standalone="no"?>
<!DOCTYPE svg PUBLIC "-//W3C//DTD SVG 20010904//EN"
 "http://www.w3.org/TR/2001/REC-SVG-20010904/DTD/svg10.dtd">
<svg version="1.0" xmlns="http://www.w3.org/2000/svg"
 width="720.000000pt" height="720.000000pt" viewBox="0 0 720.000000 720.000000"
 preserveAspectRatio="xMidYMid meet">
<g transform="translate(0.000000,720.000000) scale(0.100000,-0.100000)"
fill="#000000" stroke="none">
<path d="M3400 7193 c-34 -11 -45 -14 -47 -14 -3 1 -56 -28 -145 -80 -36 -22
-71 -39 -76 -39 -6 0 -12 -3 -14 -7 -3 -8 -183 -99 -245 -124 -18 -8 -33 -17
-33 -21 0 -5 -5 -8 -12 -8 -11 0 -233 -110 -645 -321 -97 -49 -180 -92 -186
-96 -10 -6 41 -52 61 -53 6 0 12 -4 12 -10 0 -5 4 -10 10 -10 5 0 32 -16 59
-35 26 -19 51 -35 55 -35 4 0 12 -5 19 -11 7 -6 118 -80 247 -165 129 -84 240
-157 245 -161 39 -30 137 -93 144 -93 5 0 11 -3 13 -7 3 -7 108 -80 133 -93 6
-3 83 -53 173 -113 89 -59 167 -107 172 -107 4 0 10 -4 12 -9 2 -5 17 -17 35
-27 18 -11 102 -63 187 -116 85 -54 159 -98 165 -98 6 0 11 -5 11 -10 0 -6 8
-13 18 -17 41 -14 162 -102 220 -160 73 -73 118 -159 127 -245 l7 -56 -54 -40
c-96 -71 -149 -149 -177 -260 -58 -226 58 -449 279 -536 86 -34 207 -37 295
-6 33 12 68 24 78 27 9 3 17 9 17 14 0 5 7 9 15 9 8 0 15 5 15 10 0 6 4 10 10
10 33 0 153 168 164 231 3 13 5 24 6 24 4 0 10 45 11 90 4 91 -24 188 -75 264
-31 46 -113 131 -127 131 -4 0 -6 26 -3 58 2 31 6 91 9 132 15 201 14 252 -5
289 -23 45 -56 76 -145 133 -38 25 -143 93 -233 152 -89 58 -167 106 -172 106
-6 0 -10 3 -10 8 0 4 -27 23 -60 42 -33 19 -60 38 -60 43 0 4 -4 7 -10 7 -5 0
-35 17 -67 39 -201 135 -364 241 -372 241 -4 0 -16 9 -26 20 -10 11 -22 20
-26 20 -8 0 -99 59 -109 71 -3 3 -10 8 -16 10 -18 7 -344 224 -344 229 0 3 22
15 48 27 65 31 136 72 207 118 186 121 336 111 540 -38 157 -114 677 -457 694
-457 5 0 11 -3 13 -8 2 -4 47 -35 101 -70 90 -57 97 -60 98 -39 4 95 18 254
25 281 10 39 11 126 2 132 -4 3 -6 10 -2 15 12 20 -48 114 -99 156 -44 36
-162 113 -173 113 -8 0 -169 105 -172 112 -2 5 -8 8 -14 8 -9 0 -368 236 -378
249 -3 3 -13 11 -22 16 -9 6 -58 38 -108 72 -50 35 -114 69 -143 78 -49 15
-117 19 -147 8z m1029 -2524 c157 -67 196 -280 75 -403 -49 -50 -124 -78 -192
-73 -273 21 -323 393 -66 485 59 22 120 19 183 -9z"/>
<path d="M5042 6053 c-1 -247 -3 -472 -5 -501 -1 -28 2 -52 6 -52 5 0 5 -5 2
-10 -8 -12 -8 -455 -1 -995 4 -255 2 -373 -6 -382 -6 -7 -8 -13 -5 -13 7 0
-16 -69 -40 -120 -24 -51 -131 -153 -151 -144 -99 41 -122 46 -202 47 -117 2
-167 -10 -245 -56 -85 -51 -188 -175 -198 -236 -1 -9 -6 -22 -11 -30 -16 -24
-17 -191 -2 -241 38 -128 124 -234 236 -288 182 -89 383 -57 525 85 36 36 68
81 85 118 27 59 54 161 48 185 -2 7 73 55 178 114 188 106 196 111 229 161 20
29 20 51 23 1004 1 536 4 977 7 979 2 3 22 -6 42 -20 21 -13 105 -57 186 -97
160 -78 210 -119 251 -200 39 -77 49 -147 42 -320 -6 -137 -7 -498 -4 -917 l1
-132 56 31 c31 17 72 40 91 51 38 23 81 44 145 72 68 29 123 81 153 142 26 55
27 62 26 217 -1 88 -2 174 -3 190 -1 17 -1 39 -1 50 0 11 -1 104 -1 206 -1
102 1 191 5 197 3 6 2 13 -4 17 -6 4 -8 10 -5 15 3 5 8 82 10 171 8 298 -18
343 -273 474 -76 39 -234 128 -352 198 -260 155 -210 125 -425 249 -99 57
-187 108 -197 113 -32 19 -123 68 -150 82 -15 8 -30 18 -33 24 -4 5 -12 9 -19
9 -10 0 -13 -96 -14 -447z m-308 -2392 c122 -59 176 -217 115 -335 -27 -53
-45 -73 -93 -103 -96 -61 -229 -44 -311 41 -99 102 -91 268 17 361 76 65 182
79 272 36z"/>
<path d="M1540 5960 c-30 -11 -109 -51 -175 -89 -200 -114 -758 -401 -779
-401 -14 0 -114 -71 -136 -96 -27 -31 -57 -94 -65 -134 -3 -14 -8 -133 -10
-265 -3 -132 -7 -262 -10 -290 -8 -105 -17 -282 -30 -620 -2 -55 -7 -162 -10
-237 -3 -76 -1 -138 3 -138 5 0 31 12 58 26 66 36 359 187 576 298 438 224
509 261 613 314 61 31 112 59 115 62 3 3 46 25 95 50 50 25 92 48 93 52 2 5 8
8 13 8 5 0 103 52 218 115 116 63 234 125 263 138 131 58 253 64 363 17 41
-18 43 -20 49 -74 14 -111 109 -252 211 -311 67 -40 180 -71 240 -67 21 1 91
11 115 16 83 18 238 132 255 188 4 10 10 18 14 18 18 0 62 149 66 224 8 157
-110 350 -255 418 -108 51 -242 59 -343 22 -23 -8 -50 -18 -59 -21 -10 -3 -18
-9 -18 -14 0 -20 -28 -5 -151 76 -167 110 -198 125 -255 125 -48 0 -80 -14
-299 -129 -55 -30 -122 -65 -150 -80 -27 -14 -53 -30 -57 -36 -4 -5 -8 -7 -8
-3 0 3 -39 -15 -87 -41 -49 -26 -106 -55 -128 -66 -22 -10 -51 -25 -64 -34
-13 -8 -30 -16 -38 -17 -8 -2 -22 -9 -31 -16 -10 -7 -80 -45 -157 -83 -77 -39
-142 -72 -145 -75 -3 -3 -41 -23 -85 -45 -44 -22 -82 -42 -85 -46 -3 -3 -15
-9 -26 -13 -12 -4 -68 -32 -125 -62 -176 -95 -278 -144 -282 -136 -4 9 0 432
5 452 20 87 116 199 210 247 60 31 218 103 225 103 4 0 14 7 24 16 9 8 23 17
31 18 17 3 191 89 198 97 3 4 39 23 80 44 41 21 111 57 155 81 44 24 105 56
135 71 30 15 57 30 60 33 3 3 31 18 62 33 32 16 60 32 62 36 3 4 -6 14 -19 21
-14 7 -25 17 -25 22 0 4 -5 8 -10 8 -13 0 -156 95 -189 126 -82 76 -201 101
-301 64z m1760 -945 c53 -12 108 -53 143 -106 20 -31 43 -106 41 -134 -10
-109 -55 -181 -144 -226 -35 -18 -60 -23 -111 -22 -286 5 -341 393 -70 488 39
13 85 13 141 0z"/>
<path d="M2465 4398 c-88 -7 -165 -33 -229 -77 -49 -34 -112 -100 -128 -136
-6 -14 -16 -25 -21 -25 -6 0 -8 -3 -5 -6 4 -3 -2 -25 -13 -48 -10 -24 -21 -67
-25 -97 -3 -30 -10 -58 -15 -64 -5 -5 -9 -5 -9 -1 0 5 -7 3 -15 -4 -8 -6 -87
-49 -176 -95 -89 -45 -178 -95 -197 -110 -64 -51 -67 -70 -77 -475 -3 -118 -8
-264 -10 -325 -2 -60 -7 -200 -10 -310 -4 -110 -9 -243 -11 -295 -3 -52 -5
-101 -5 -107 1 -7 1 -19 1 -25 1 -25 -11 -374 -15 -418 -1 -25 -3 -53 -4 -63
-1 -17 -2 -17 -17 -3 -8 9 -22 16 -30 16 -8 0 -14 4 -14 9 0 5 -8 11 -17 15
-10 3 -40 19 -68 36 -27 16 -86 48 -130 70 -44 22 -97 56 -117 75 -41 38 -92
121 -105 170 -9 35 -9 254 1 370 10 127 15 240 21 545 4 157 8 307 9 333 2 55
-2 60 -32 44 -57 -31 -194 -99 -262 -131 -88 -41 -135 -81 -160 -139 -29 -66
-31 -92 -35 -422 -2 -170 -6 -344 -9 -385 -17 -257 -20 -313 -20 -380 0 -98 8
-133 45 -189 37 -55 82 -91 194 -151 102 -55 195 -111 340 -205 179 -117 225
-145 235 -145 6 0 10 -4 10 -9 0 -5 8 -12 18 -15 9 -3 62 -35 117 -71 55 -36
106 -65 113 -65 6 0 12 -4 12 -10 0 -5 7 -10 15 -10 8 0 15 -4 15 -10 0 -5 4
-10 9 -10 5 0 70 -38 144 -85 75 -47 141 -86 148 -87 8 -2 12 26 14 87 4 111
16 425 20 520 2 39 6 153 9 255 4 102 9 232 11 290 9 200 16 457 20 765 2 171
7 340 10 376 7 90 43 201 79 247 32 40 78 83 115 107 46 31 42 31 156 -12 57
-22 199 -24 250 -3 17 6 37 13 45 15 53 11 157 93 206 161 99 138 106 339 19
490 -34 60 -119 142 -177 171 -88 44 -157 59 -243 51z m135 -223 c69 -35 123
-101 137 -165 44 -195 -136 -361 -322 -298 -233 78 -223 408 15 478 37 11 136
2 170 -15z"/>
<path d="M6745 3740 c-3 -6 -23 -18 -43 -28 -36 -18 -56 -29 -217 -120 -44
-25 -105 -59 -135 -75 -30 -16 -81 -45 -113 -63 -32 -19 -60 -34 -62 -34 -2 0
-38 -20 -79 -45 -42 -25 -78 -45 -81 -45 -2 0 -30 -15 -62 -34 -32 -18 -83
-47 -113 -63 -51 -28 -94 -52 -195 -108 -22 -12 -83 -47 -136 -77 -52 -30
-102 -58 -110 -62 -8 -4 -23 -12 -34 -19 -11 -7 -90 -52 -175 -101 -85 -50
-157 -93 -160 -96 -3 -3 -16 -11 -30 -18 -14 -7 -38 -21 -55 -31 -197 -123
-293 -162 -410 -167 -68 -2 -91 1 -149 24 l-69 27 -3 72 c-7 163 -94 301 -238
378 -300 159 -655 -48 -665 -388 -4 -130 42 -241 137 -334 59 -58 152 -108
224 -122 67 -12 175 -6 228 13 l45 16 210 -127 c207 -126 211 -127 270 -127
60 0 83 9 237 99 47 27 389 221 428 243 25 14 87 49 138 78 52 30 96 54 98 54
2 0 21 10 42 23 20 13 69 41 107 62 39 21 158 88 265 148 107 61 215 121 240
135 25 14 57 34 73 44 15 11 27 17 27 13 0 -3 20 8 45 25 l45 31 1 -53 c0 -29
2 -100 5 -158 12 -230 10 -256 -24 -334 -43 -96 -109 -147 -352 -273 -85 -44
-171 -89 -190 -100 -19 -11 -62 -35 -95 -53 -32 -18 -135 -77 -229 -132 -93
-54 -172 -98 -177 -98 -4 0 -9 -3 -11 -7 -1 -5 -29 -21 -61 -38 -71 -37 -86
-52 -61 -62 11 -3 21 -9 24 -13 6 -7 130 -80 136 -80 3 0 12 -6 19 -12 45 -41
122 -91 164 -108 19 -8 62 -14 96 -13 50 0 76 7 140 38 44 21 85 44 92 51 7 7
22 16 33 19 11 3 20 11 20 16 0 5 4 9 10 9 5 0 40 19 77 42 38 22 88 52 113
66 25 14 59 33 75 43 77 46 215 119 224 119 5 0 11 3 13 8 2 4 27 19 57 35 30
15 90 46 135 69 104 53 196 123 196 148 0 6 4 10 8 10 5 0 15 19 23 43 10 31
14 108 15 297 1 140 4 497 7 793 3 295 4 537 2 537 -2 0 -7 -5 -10 -10z
m-2779 -856 c56 -26 118 -93 133 -145 19 -63 15 -155 -9 -183 -5 -7 -8 -15 -5
-18 3 -2 -14 -24 -37 -47 -97 -102 -243 -113 -346 -26 -137 115 -111 334 49
416 20 10 39 15 43 12 3 -4 6 -2 6 4 0 17 123 7 166 -13z"/>
<path d="M2778 3355 c-2 -2 -21 -5 -43 -8 -87 -10 -202 -73 -266 -144 -50 -57
-86 -129 -106 -213 -7 -30 -8 -147 -1 -175 25 -105 79 -198 149 -258 l39 -34
-7 -194 c-9 -266 -8 -293 17 -344 25 -51 34 -57 340 -240 209 -124 269 -161
320 -195 14 -9 32 -20 40 -24 17 -8 39 -21 96 -58 23 -14 56 -35 75 -45 19
-10 59 -34 89 -54 30 -19 62 -38 70 -42 24 -11 584 -354 597 -366 7 -6 16 -11
21 -11 5 0 15 -6 21 -14 10 -12 -1 -22 -61 -56 -40 -23 -111 -67 -157 -98
-114 -75 -185 -103 -263 -103 -35 0 -77 4 -95 10 -52 15 -153 63 -153 72 0 5
-4 9 -10 9 -5 0 -44 24 -85 52 -42 29 -84 58 -93 63 -9 6 -76 47 -149 93 -73
45 -137 82 -142 82 -5 0 -11 4 -13 8 -2 6 -97 64 -218 133 -14 8 -27 16 -30
19 -3 3 -25 16 -50 29 -25 14 -71 42 -103 63 -32 21 -63 38 -68 38 -5 0 -9
-12 -10 -27 -1 -16 -2 -76 -4 -134 -2 -58 -7 -121 -12 -140 -14 -50 -7 -133
16 -184 34 -77 97 -130 266 -220 125 -67 358 -208 560 -338 196 -126 237 -150
285 -166 97 -31 176 -14 305 66 49 31 104 64 120 73 74 41 149 82 260 140 66
35 140 74 165 88 25 13 73 40 107 58 34 19 149 83 255 142 107 59 211 116 233
127 22 11 46 26 53 33 7 6 20 12 27 12 47 0 -2 41 -150 126 -27 15 -51 32 -53
36 -2 4 -8 8 -12 8 -5 0 -134 77 -286 170 -152 93 -280 170 -285 170 -5 0 -9
5 -9 10 0 6 -7 10 -15 10 -8 0 -15 3 -15 8 0 4 -10 12 -23 18 -12 6 -80 47
-152 91 -71 44 -141 86 -155 94 -14 8 -27 17 -30 21 -3 4 -17 12 -30 18 -14 5
-38 19 -55 30 -16 11 -47 30 -69 42 -21 13 -46 28 -55 33 -9 6 -113 66 -231
134 -241 139 -351 208 -395 249 -54 50 -109 134 -122 185 -19 81 -24 154 -11
161 89 50 160 122 200 204 35 71 35 69 46 158 8 63 -9 188 -29 209 -5 5 -9 15
-9 23 0 18 -54 95 -96 138 -29 28 -134 97 -154 100 -3 0 -23 5 -45 12 -38 10
-141 22 -147 17z m113 -220 c88 -30 156 -116 164 -206 7 -77 -16 -148 -64
-197 -53 -55 -93 -74 -166 -80 -115 -9 -215 59 -253 171 -31 94 -12 176 57
247 74 75 165 98 262 65z"/>
</g>
</svg>
