<svg width="24" height="24" viewBox="0 0 24 24" fill="none" xmlns="http://www.w3.org/2000/svg">
<rect width="24" height="24" rx="6" fill="#425DF9"/>
<g clip-path="url(#clip0_665_1268)">
<path d="M17.7 11.4752L14.025 6.45018C13.725 6.15018 13.05 5.77518 11.775 6.30018C11.025 6.60018 10.2 7.20018 9.45001 7.95018C8.02501 9.37518 6.90001 11.4752 7.95001 12.5252L12.975 16.2002C13.2 16.4252 13.5 16.5002 13.8 16.5002C14.625 16.5002 15.675 15.8252 16.5 15.0002C17.025 14.4752 17.475 13.8752 17.775 13.2752C18.225 12.3002 17.925 11.7002 17.7 11.4752ZM10.5 9.00018C11.625 7.87518 12.6 7.50018 12.9 7.50018C12.9 7.80018 12.525 8.77518 11.4 9.90018C10.275 11.0252 9.30001 11.4002 9.00001 11.4002C9.07501 11.0252 9.37501 10.0502 10.5 9.00018Z" fill="white"/>
<path d="M6 16.5C6 15.675 7.5 13.5 7.5 13.5C7.5 13.5 9 15.675 9 16.5C9 17.325 8.325 18 7.5 18C6.675 18 6 17.325 6 16.5Z" fill="white"/>
</g>
<defs>
<clipPath id="clip0_665_1268">
<rect width="12" height="12" fill="white" transform="translate(6 6)"/>
</clipPath>
</defs>
</svg>
