<svg width="48" height="48" viewBox="0 0 48 48" fill="none" xmlns="http://www.w3.org/2000/svg">
<rect width="48" height="48" rx="8" fill="#425DF9"/>
<path d="M31 19H20.5L20 16.8C19.9 16.3 19.5 16 19 16H16V18H18.2L20 26.2C20.1 26.7 20.5 27 21 27H29C29.4 27 29.8 26.7 29.9 26.3L31.9 20.3C32.1 19.8 31.8 19 31 19Z" fill="white"/>
<path d="M21 32C22.1046 32 23 31.1046 23 30C23 28.8954 22.1046 28 21 28C19.8954 28 19 28.8954 19 30C19 31.1046 19.8954 32 21 32Z" fill="white"/>
<path d="M29 32C30.1046 32 31 31.1046 31 30C31 28.8954 30.1046 28 29 28C27.8954 28 27 28.8954 27 30C27 31.1046 27.8954 32 29 32Z" fill="white"/>
</svg>
