<svg width="25" height="24" viewBox="0 0 25 24" fill="none" xmlns="http://www.w3.org/2000/svg">
<rect x="0.5" width="24" height="24" rx="6" fill="#425DF9"/>
<path d="M14.8353 10.7068C14.8055 10.6472 14.7603 10.5965 14.7044 10.5601C14.6485 10.5238 14.5839 10.5029 14.5173 10.4998C14.4505 10.4941 14.3834 10.5076 14.324 10.5387C14.2646 10.5697 14.2154 10.6172 14.182 10.6753L12.5568 13.2748L11.3905 12.1093C11.3507 12.0708 11.3032 12.0412 11.2511 12.0223C11.199 12.0035 11.1435 11.9958 11.0883 11.9998C11.033 12.0053 10.9796 12.0231 10.932 12.0517C10.8844 12.0804 10.8438 12.1193 10.813 12.1656L9.31302 14.4156C9.27503 14.4721 9.25314 14.5378 9.24969 14.6058C9.24624 14.6738 9.26135 14.7414 9.29342 14.8015C9.32548 14.8615 9.37329 14.9117 9.4317 14.9466C9.49012 14.9816 9.55695 15 9.62502 14.9998H16.375C16.439 14.9998 16.5019 14.9835 16.5577 14.9523C16.6135 14.9212 16.6605 14.8762 16.6941 14.8218C16.7277 14.7674 16.7468 14.7053 16.7496 14.6414C16.7525 14.5775 16.7389 14.514 16.7103 14.4568L14.8353 10.7068Z" fill="white"/>
<path d="M17.5 6H8.5C8.10218 6 7.72064 6.15804 7.43934 6.43934C7.15804 6.72064 7 7.10218 7 7.5V16.5C7 16.8978 7.15804 17.2794 7.43934 17.5607C7.72064 17.842 8.10218 18 8.5 18H17.5C17.8978 18 18.2794 17.842 18.5607 17.5607C18.842 17.2794 19 16.8978 19 16.5V7.5C19 7.10218 18.842 6.72064 18.5607 6.43934C18.2794 6.15804 17.8978 6 17.5 6V6ZM8.5 16.5V7.5H17.5V16.5H8.5Z" fill="white"/>
<path d="M10.75 10.5C11.1642 10.5 11.5 10.1642 11.5 9.75C11.5 9.33579 11.1642 9 10.75 9C10.3358 9 10 9.33579 10 9.75C10 10.1642 10.3358 10.5 10.75 10.5Z" fill="white"/>
</svg>
