<svg width="125" height="55" viewBox="0 0 125 55" fill="none" xmlns="http://www.w3.org/2000/svg">
<rect x="0.5" y="0.5" width="124" height="54" rx="7.5" stroke="white" stroke-opacity="0.2"/>
<rect width="60" height="55" rx="8" fill="#1C37D3"/>
<path fill-rule="evenodd" clip-rule="evenodd" d="M74.3662 37.0956C75.7582 37.0956 76.6222 36.2796 76.9422 35.2956L75.9582 34.9036C75.7342 35.6556 75.2142 36.1276 74.3502 36.1276C73.3182 36.1276 72.5742 35.3596 72.5742 34.2236C72.5742 33.0796 73.3182 32.3116 74.3422 32.3116C75.2062 32.3116 75.7342 32.7916 75.9582 33.5356L76.9422 33.1436C76.6302 32.1836 75.7662 31.3436 74.3662 31.3436C72.7502 31.3436 71.5342 32.5436 71.5342 34.2236C71.5342 35.8956 72.7502 37.0956 74.3662 37.0956ZM79.6016 37.0956C80.9136 37.0956 81.8496 36.1516 81.8496 34.8956C81.8496 33.6316 80.9136 32.6876 79.6016 32.6876C78.2816 32.6876 77.3536 33.6316 77.3536 34.8956C77.3536 36.1516 78.2816 37.0956 79.6016 37.0956ZM79.6096 36.1916C78.8736 36.1916 78.3696 35.6476 78.3696 34.8956C78.3696 34.1356 78.8736 33.5996 79.6096 33.5996C80.3376 33.5996 80.8256 34.1356 80.8256 34.8876C80.8256 35.6476 80.3296 36.1916 79.6096 36.1916ZM86.1454 33.3756C86.3774 32.9836 86.8574 32.6876 87.5694 32.6876C88.6174 32.6876 89.1854 33.4316 89.1854 34.3836L89.1854 36.9916L88.1694 36.9916L88.1694 34.5676C88.1694 34.0236 87.8654 33.5916 87.2974 33.5916C86.7134 33.5996 86.4014 34.0476 86.3934 34.4396L86.3934 36.9916L85.3774 36.9916L85.3774 34.5676C85.3774 34.0156 85.0654 33.5916 84.4974 33.5916C83.9214 33.5996 83.6014 34.0396 83.5934 34.4396L83.5934 36.9916L82.5774 36.9916L82.5774 32.7836L83.5374 32.7836L83.5374 33.2476C83.8014 32.9276 84.2414 32.6876 84.8094 32.6876C85.4814 32.6876 85.9054 32.9356 86.1454 33.3756ZM92.4452 32.6876C91.8452 32.6876 91.3572 32.9276 91.0292 33.3356L91.0292 32.7836L90.0852 32.7836L90.0852 38.4316L91.1012 38.4316L91.1012 36.5516C91.4212 36.8956 91.8692 37.0956 92.4212 37.0956C93.6292 37.0956 94.5092 36.1516 94.5092 34.8956C94.5092 33.6316 93.6532 32.6876 92.4452 32.6876ZM92.2852 36.1996C91.5572 36.1996 91.0612 35.6636 91.0612 34.8956C91.0612 34.1276 91.5572 33.5916 92.2852 33.5916C92.9812 33.5916 93.4932 34.1436 93.4932 34.8956C93.4932 35.6396 92.9812 36.1996 92.2852 36.1996ZM96.2496 36.9996L95.2336 36.9996L95.2336 31.1516L96.2496 31.1516L96.2496 36.9996ZM97.7066 32.1116C98.0986 32.1116 98.4026 31.8316 98.4026 31.4396C98.4026 31.0476 98.0986 30.7516 97.7066 30.7516C97.3146 30.7516 97.0106 31.0476 97.0106 31.4396C97.0106 31.8316 97.3146 32.1116 97.7066 32.1116ZM97.1946 36.9996L98.2106 36.9996L98.2106 32.7836L97.1946 32.7836L97.1946 36.9996ZM102.419 33.3836L102.419 32.7836L103.363 32.7836L103.363 36.9996L102.419 36.9996L102.419 36.4316C102.107 36.8476 101.635 37.0956 101.027 37.0956C99.8195 37.0956 98.9395 36.1516 98.9395 34.8956C98.9395 33.6316 99.8195 32.7516 101.027 32.7516C101.635 32.7516 102.107 32.9756 102.419 33.3836ZM99.9555 34.8956C99.9555 35.6476 100.467 36.1996 101.163 36.1996C101.891 36.1996 102.387 35.6636 102.387 34.8956C102.387 34.1196 101.891 33.5916 101.163 33.5916C100.467 33.5916 99.9555 34.1436 99.9555 34.8956ZM106.592 32.6876C106.016 32.6876 105.552 32.9196 105.264 33.2476L105.264 32.7836L104.304 32.7836L104.304 36.9996L105.32 36.9996L105.32 34.4636C105.328 33.9916 105.744 33.5996 106.296 33.5916C106.872 33.5916 107.248 33.9516 107.248 34.5596L107.248 36.9996L108.272 36.9996L108.272 34.3676C108.272 33.3676 107.632 32.6876 106.592 32.6876ZM111.645 36.9996L110.981 36.9996C109.973 36.9996 109.453 36.3996 109.453 35.4716L109.453 33.6556L108.717 33.6556L108.717 32.7836L109.101 32.7836C109.381 32.7836 109.517 32.6396 109.517 32.3516L109.517 31.6876L110.509 31.6876L110.509 32.7836L111.613 32.7836L111.613 33.6556L110.477 33.6556L110.477 35.3596C110.477 35.8476 110.725 36.1116 111.181 36.1116L111.645 36.1116L111.645 36.9996ZM80.7402 21.8966L84.6562 21.8966C84.6562 24.6136 82.9732 26.1426 80.7842 26.1426C78.4962 26.1426 76.8242 24.4596 76.8242 22.1826C76.8242 19.8836 78.5182 18.2116 80.7842 18.2116C82.6652 18.2116 83.8862 19.3116 84.3482 20.5326L82.7862 21.1816C82.4892 20.3016 81.7852 19.7626 80.7512 19.7626C79.3872 19.7626 78.4852 20.7526 78.4852 22.2156C78.4852 23.6896 79.3982 24.6686 80.9272 24.6686C81.9832 24.6686 82.7532 24.1846 83.0612 23.1286L80.7402 23.1286L80.7402 21.8966ZM85.6835 18.3546L88.6645 18.3546C90.9525 18.3546 92.5585 19.8396 92.5585 22.1716C92.5585 24.5036 90.9525 25.9996 88.6645 25.9996L85.6835 25.9996L85.6835 18.3546ZM87.3225 24.5476L88.6095 24.5476C89.9625 24.5476 90.8975 23.7006 90.8975 22.1936C90.8975 20.6646 89.9625 19.8066 88.6095 19.8066L87.3225 19.8066L87.3225 24.5476ZM96.7675 18.3546L93.6435 18.3546L93.6435 25.9996L95.2825 25.9996L95.2825 23.1726L96.7675 23.1726C98.3955 23.1726 99.4405 22.2156 99.4405 20.7636C99.4405 19.3006 98.4065 18.3546 96.7675 18.3546ZM96.6795 21.7426L95.2825 21.7426L95.2825 19.7846L96.6795 19.7846C97.4055 19.7846 97.7795 20.1916 97.7795 20.7636C97.7795 21.3356 97.4055 21.7426 96.6795 21.7426ZM106.297 25.9996L104.482 25.9996L102.304 22.8646L101.985 22.8646L101.985 25.9996L100.368 25.9996L100.368 18.3546L103.492 18.3546C105.131 18.3546 106.165 19.3006 106.165 20.6096C106.165 21.7756 105.34 22.6446 104.02 22.8316L106.297 25.9996ZM103.448 19.7846L101.985 19.7846L101.985 21.7096L103.448 21.7096C104.163 21.7096 104.57 21.3356 104.57 20.7526C104.57 20.1586 104.163 19.7846 103.448 19.7846Z" fill="white"/>
<path fill-rule="evenodd" clip-rule="evenodd" d="M25.833 23.8337V24.667C25.17 24.667 24.5341 24.9304 24.0652 25.3992C23.5964 25.8681 23.333 26.5039 23.333 27.167V33.8337C23.333 34.4967 23.5964 35.1326 24.0652 35.6014C24.5341 36.0703 25.17 36.3337 25.833 36.3337H34.1663C34.8294 36.3337 35.4653 36.0703 35.9341 35.6014C36.4029 35.1326 36.6663 34.4967 36.6663 33.8337V27.167C36.6663 26.5039 36.4029 25.8681 35.9341 25.3992C35.4653 24.9304 34.8294 24.667 34.1663 24.667V23.8337C34.1663 22.7286 33.7274 21.6688 32.946 20.8874C32.1645 20.106 31.1047 19.667 29.9997 19.667C28.8946 19.667 27.8348 20.106 27.0534 20.8874C26.272 21.6688 25.833 22.7286 25.833 23.8337ZM29.9997 21.3337C29.3366 21.3337 28.7007 21.5971 28.2319 22.0659C27.7631 22.5347 27.4997 23.1706 27.4997 23.8337V24.667H32.4997V23.8337C32.4997 23.1706 32.2363 22.5347 31.7674 22.0659C31.2986 21.5971 30.6627 21.3337 29.9997 21.3337ZM31.6663 29.667C31.6663 29.9595 31.5893 30.2469 31.443 30.5003C31.2968 30.7537 31.0864 30.964 30.833 31.1103V32.167C30.833 32.388 30.7452 32.6 30.5889 32.7562C30.4326 32.9125 30.2207 33.0003 29.9997 33.0003C29.7787 33.0003 29.5667 32.9125 29.4104 32.7562C29.2541 32.6 29.1663 32.388 29.1663 32.167V31.1103C28.8486 30.9269 28.6003 30.6437 28.4599 30.3048C28.3195 29.9658 28.2949 29.59 28.3899 29.2356C28.4848 28.8812 28.6941 28.5681 28.9851 28.3448C29.2762 28.1214 29.6328 28.0003 29.9997 28.0003C30.4417 28.0003 30.8656 28.1759 31.1782 28.4885C31.4907 28.801 31.6663 29.225 31.6663 29.667Z" fill="white"/>
<path opacity="0.5" d="M16.5194 23.0303L16.9834 21.5968L15.7672 20.7109H17.2711L17.735 19.2789L18.199 20.7124H19.7023L18.4867 21.5968L18.9502 23.0303L17.735 22.1429L16.5194 23.0303ZM14.7517 30.1839L15.2166 28.7514L14 27.8651H15.5033L15.9688 26.434L16.4327 27.8651H17.9366L16.7204 28.7514L17.1844 30.1844L15.9688 29.2986L14.7517 30.1839ZM29.2035 44L29.6685 42.5695L28.4529 41.6841H29.9562L30.4201 40.2501L30.8851 41.6841H32.3874L31.1718 42.5695L31.6358 44L30.4201 43.1161L29.2035 44ZM21.7939 17.9395L22.2588 16.5075L21.0427 15.6211H22.5465L23.0105 14.1886L23.475 15.6211H24.9778L23.7612 16.5075L24.2261 17.9395L23.0105 17.0546L21.7939 17.9395ZM16.6169 36.9692L17.0809 35.5366L15.8658 34.6518H17.3686L17.8326 33.2188L18.298 34.6518H19.8008L18.5842 35.5366L19.0502 36.9692L17.8326 36.0843L16.6169 36.9692ZM21.9167 42.1337L22.3812 40.7017L21.165 39.8149H22.6679L23.1323 38.3838L23.5973 39.8149H25.1011L23.8835 40.7017L24.3494 42.1337L23.1323 41.2469L21.9167 42.1337ZM36.3681 41.9852L36.8335 40.5527L35.6159 39.6678H37.1192L37.5842 38.2348L38.0496 39.6678H39.552L38.3373 40.5527L38.7998 41.9852L37.5842 41.1008L36.3681 41.9852ZM41.4717 36.9196L41.9357 35.4876L40.7206 34.6028H42.2234L42.6878 33.1698L43.1523 34.6028H44.6556L43.44 35.4876L43.9035 36.9196L42.6878 36.0343L41.4717 36.9196ZM43.6811 29.8636L44.1441 28.432L42.9285 27.5452H44.4318L44.8968 26.1127L45.3593 27.5452H46.8631L45.6474 28.432L46.1119 29.8636L44.8968 28.9782L43.6811 29.8636ZM41.5455 22.808L42.009 21.3749L40.7929 20.4901H42.2962L42.7616 19.0576L43.2261 20.4901H44.7289L43.5128 21.3749L43.9777 22.808L42.7616 21.9231L41.5455 22.808ZM36.2705 17.8167L36.736 16.3842L35.5179 15.4983H37.0217L37.4866 14.0663L37.9511 15.4983H39.4554L38.2383 16.3842L38.7028 17.8167L37.4866 16.9318L36.2705 17.8167ZM28.9837 15.7509L29.4476 14.3193L28.2315 13.433H29.7348L30.1988 12L30.6638 13.433H32.1661L30.95 14.3193L31.4149 15.7524L30.1988 14.8655L28.9837 15.7509Z" fill="white"/>
</svg>
