<svg width="24" height="24" viewBox="0 0 24 24" fill="none" xmlns="http://www.w3.org/2000/svg">
<rect width="24" height="24" rx="6" fill="#425DF9"/>
<path d="M16.95 10.2002L10.8 16.3502C11.175 16.4252 11.625 16.5002 12 16.5002C14.7 16.5002 16.8 14.1752 17.7 12.8252C18.075 12.3002 18.075 11.6252 17.7 11.1002C17.55 10.8752 17.25 10.5752 16.95 10.2002Z" fill="white"/>
<path d="M16.725 6.225L14.7 8.25C13.875 7.8 12.975 7.5 12 7.5C9.3 7.5 7.2 9.825 6.3 11.175C5.925 11.7 5.925 12.375 6.3 12.825C6.675 13.425 7.35 14.175 8.1 14.85L6.225 16.725C5.925 17.025 5.925 17.475 6.225 17.775C6.375 17.925 6.525 18 6.75 18C6.975 18 7.125 17.925 7.275 17.775L17.775 7.275C18.075 6.975 18.075 6.525 17.775 6.225C17.475 5.925 17.025 5.925 16.725 6.225ZM9.975 12.975C9.825 12.675 9.75 12.375 9.75 12C9.75 10.725 10.725 9.75 12 9.75C12.375 9.75 12.675 9.825 12.975 9.975L9.975 12.975Z" fill="white"/>
</svg>
