<svg width="56" height="56" viewBox="0 0 56 56" fill="none" xmlns="http://www.w3.org/2000/svg">
  <g>
    <g clip-path="url(#clip0_1_5)">
      <circle cx="28" cy="28" r="26" fill="#F5F7F9" stroke="white" stroke-width="4"/>
      <path d="M20.6266 25.2803C20.6266 25.2803 13.3278 19.7377 20.6266 13.2853C20.6266 13.2853 25.9294 3.34373 36.2012 9.11167C46.4729 14.8796 35.7252 20.7227 35.7252 20.7227C35.7252 20.7227 26.1716 30.8896 20.6266 25.2803Z" fill="#0B0F12"/>
      <path d="M38.0593 41.0064L37.4103 40.4221C35.0313 38.2855 31.9214 37.0946 28.6905 37.0833H25.2061C21.9756 37.0962 18.8662 38.2868 16.4864 40.4221L15.8373 41.0064L5.1106 45.322C8.79685 50.3546 14.1099 54.0273 20.1929 55.7477C25.6362 57.2769 31.426 57.1566 36.7979 55.4025C42.1697 53.6484 46.8709 50.3431 50.2806 45.923L38.0593 41.0064Z" fill="#415DF9"/>
      <path d="M20.8857 37.1167L22.3137 28.469C22.3137 28.469 17.5035 28.0099 18.3804 23.7612C19.2572 19.5124 24.0006 24.8213 24.0006 24.8213L24.5601 14.9548C24.5601 14.9548 26.0132 19.8129 30.506 16.9331C34.9989 14.0533 37.4039 19.4373 37.4039 19.4373C37.4039 19.4373 39.976 36.2069 33.0697 35.5224L32.0843 39.2369C31.8383 39.9622 31.4508 40.6316 30.9443 41.2062C30.4377 41.7809 29.8222 42.2494 29.1334 42.5848C28.4445 42.9201 27.696 43.1156 26.9311 43.1599C26.1661 43.2042 25.4 43.0965 24.677 42.843C23.4787 42.4761 22.4453 41.7043 21.7536 40.6597C21.062 39.6151 20.7552 38.3626 20.8857 37.1167V37.1167Z" fill="#F8BBB0"/>
      <path d="M33.0697 35.5225C33.0697 35.5225 29.9381 35.3388 28.3097 33.853L32.4351 37.9182L33.0697 35.5225Z" fill="#0B0F12"/>
    </g>
  </g>
  <defs>
    <clipPath id="clip0_1_5">
      <rect width="56" height="56" rx="28" fill="white"/>
    </clipPath>
  </defs>
</svg>
