<svg width="37" height="36" viewBox="0 0 37 36" fill="none" xmlns="http://www.w3.org/2000/svg">
<rect x="0.5" width="36" height="36" rx="6" fill="#425DF9"/>
<g clip-path="url(#clip0_912_769)">
<path d="M25.5 10H11.5C10.9 10 10.5 10.4 10.5 11V25C10.5 25.6 10.9 26 11.5 26H25.5C26.1 26 26.5 25.6 26.5 25V11C26.5 10.4 26.1 10 25.5 10ZM16.5 14C17.1 14 17.5 14.4 17.5 15C17.5 15.6 17.1 16 16.5 16C15.9 16 15.5 15.6 15.5 15C15.5 14.4 15.9 14 16.5 14ZM13.5 22L15.5 18L17.5 20L20.5 16L23.5 22H13.5Z" fill="white"/>
</g>
<defs>
<clipPath id="clip0_912_769">
<rect width="16" height="16" fill="white" transform="translate(10.5 10)"/>
</clipPath>
</defs>
</svg>
