<svg width="48" height="48" viewBox="0 0 48 48" fill="none" xmlns="http://www.w3.org/2000/svg">
<rect width="48" height="48" rx="8" fill="#425DF9"/>
<g clip-path="url(#clip0_2970_12321)">
<path d="M28.6489 24.9L29.8619 23.63C30.4638 23.0247 30.8488 22.2376 30.9573 21.3909C31.0658 20.5443 30.8917 19.6855 30.4619 18.948L31.7029 17.707C31.8044 17.6165 31.8865 17.5062 31.9439 17.3829C32.0014 17.2596 32.0331 17.1259 32.0371 16.9899C32.0411 16.8539 32.0173 16.7186 31.9672 16.5921C31.917 16.4656 31.8417 16.3507 31.7456 16.2544C31.6496 16.1581 31.5349 16.0824 31.4085 16.0319C31.2822 15.9814 31.1469 15.9573 31.0109 15.9609C30.875 15.9645 30.7411 15.9958 30.6177 16.0529C30.4942 16.11 30.3837 16.1917 30.2929 16.293L29.0519 17.534C28.3144 17.1042 27.4556 16.9301 26.609 17.0386C25.7623 17.1471 24.9752 17.5321 24.3699 18.134L23.1289 19.379L28.6489 24.9Z" fill="white"/>
<path d="M25.5296 25.53L24.4696 24.47L22.5996 26.345L21.6596 25.405L23.5296 23.53L22.4696 22.47L20.5996 24.345L19.3506 23.1L18.1376 24.37C17.5357 24.9753 17.1507 25.7624 17.0422 26.609C16.9337 27.4557 17.1078 28.3145 17.5376 29.052L16.2926 30.293C16.1971 30.3852 16.1209 30.4956 16.0685 30.6176C16.0161 30.7396 15.9885 30.8708 15.9873 31.0036C15.9862 31.1363 16.0115 31.268 16.0618 31.3909C16.1121 31.5138 16.1863 31.6255 16.2802 31.7194C16.3741 31.8133 16.4857 31.8875 16.6086 31.9378C16.7315 31.9881 16.8632 32.0134 16.996 32.0122C17.1288 32.0111 17.26 31.9835 17.382 31.9311C17.504 31.8787 17.6143 31.8025 17.7066 31.707L18.9476 30.466C19.6851 30.8957 20.5439 31.0699 21.3905 30.9614C22.2372 30.8529 23.0243 30.4678 23.6296 29.866L24.8706 28.625L23.6546 27.405L25.5296 25.53Z" fill="white"/>
</g>
<defs>
<clipPath id="clip0_2970_12321">
<rect width="16" height="16" fill="white" transform="translate(16 16)"/>
</clipPath>
</defs>
</svg>
