<svg width="30" height="30" viewBox="0 0 30 30" fill="none" xmlns="http://www.w3.org/2000/svg">
<rect width="30" height="30" rx="15" fill="#292F52"/>
<g clip-path="url(#clip0_665_1670)">
<path d="M21.997 20.0001V19.9996H22V15.5986C22 13.4456 21.5365 11.7871 19.0195 11.7871C17.8095 11.7871 16.9975 12.4511 16.666 13.0806H16.631V11.9881H14.2445V19.9996H16.7295V16.0326C16.7295 14.9881 16.9275 13.9781 18.221 13.9781C19.4955 13.9781 19.5145 15.1701 19.5145 16.0996V20.0001H21.997Z" fill="white"/>
<path d="M10.198 11.9883H12.686V19.9998H10.198V11.9883Z" fill="white"/>
<path d="M11.441 8C10.6455 8 10 8.6455 10 9.441C10 10.2365 10.6455 10.8955 11.441 10.8955C12.2365 10.8955 12.882 10.2365 12.882 9.441C12.8815 8.6455 12.236 8 11.441 8V8Z" fill="white"/>
</g>
<defs>
<clipPath id="clip0_665_1670">
<rect width="12" height="12" fill="white" transform="translate(10 8)"/>
</clipPath>
</defs>
</svg>
