<svg width="48" height="48" viewBox="0 0 48 48" fill="none" xmlns="http://www.w3.org/2000/svg">
<rect width="48" height="48" rx="8" fill="#425DF9"/>
<g clip-path="url(#clip0_2970_10713)">
<path d="M24.9333 25.7334C24.6593 25.921 24.3318 26.0145 24 26C23.6682 26.0145 23.3407 25.921 23.0667 25.7334L16 21.9333V28.6667C16 29.1971 16.2107 29.7058 16.5858 30.0809C16.9609 30.456 17.4696 30.6667 18 30.6667H30C30.5304 30.6667 31.0391 30.456 31.4142 30.0809C31.7893 29.7058 32 29.1971 32 28.6667V21.9333L24.9333 25.7334Z" fill="white"/>
<path d="M30 17.3333H18C17.4696 17.3333 16.9609 17.5441 16.5858 17.9191C16.2107 18.2942 16 18.8029 16 19.3333V20C15.9994 20.1202 16.0297 20.2386 16.0881 20.3437C16.1465 20.4488 16.2309 20.537 16.3333 20.6L23.6667 24.6C23.769 24.6539 23.8848 24.6771 24 24.6667C24.1152 24.6771 24.231 24.6539 24.3333 24.6L31.6667 20.6C31.7691 20.537 31.8535 20.4488 31.9119 20.3437C31.9703 20.2386 32.0006 20.1202 32 20V19.3333C32 18.8029 31.7893 18.2942 31.4142 17.9191C31.0391 17.5441 30.5304 17.3333 30 17.3333Z" fill="white"/>
</g>
<defs>
<clipPath id="clip0_2970_10713">
<rect width="16" height="16" fill="white" transform="translate(16 16)"/>
</clipPath>
</defs>
</svg>
