<svg width="48" height="48" viewBox="0 0 48 48" fill="none" xmlns="http://www.w3.org/2000/svg">
<rect width="48" height="48" rx="8" fill="#425DF9"/>
<path d="M24 16C19.6 16 16 19.6 16 24C16 28.4 19.6 32 24 32C28.4 32 32 28.4 32 24C32 19.6 28.4 16 24 16ZM28.1 28.3C27.7 27.6 26.9 27.3 26 27C25.3 26.8 25.1 26.4 25 25.8C26.1 25.4 27 24.3 27 23C27 21.3 25.7 20 24 20C22.3 20 21 21.3 21 23C21 24.3 21.8 25.4 23 25.8C22.9 26.4 22.7 26.8 22 27C21.1 27.3 20.3 27.6 19.9 28.3C18.7 27.2 18 25.7 18 24C18 20.7 20.7 18 24 18C27.3 18 30 20.7 30 24C30 25.7 29.3 27.2 28.1 28.3Z" fill="white"/>
</svg>
