<svg width="48" height="49" viewBox="0 0 48 49" fill="none" xmlns="http://www.w3.org/2000/svg">
<rect y="0.5" width="48" height="48" rx="24" fill="#95BF46"/>
<path opacity="0.72" d="M30.2316 17.9102C30.226 17.8684 30.2069 17.83 30.1776 17.8017C30.1483 17.7733 30.1106 17.7567 30.071 17.7547C29.9981 17.7547 28.7126 17.7237 28.7126 17.7237C28.7126 17.7237 27.9241 16.9146 27.6318 16.6033V33.4191L32.218 32.2067C32.218 32.2067 30.2462 18.0035 30.2316 17.9102Z" fill="white"/>
<path d="M26.8076 16.0505C26.7252 15.8078 26.6216 15.5718 26.498 15.3449C26.0497 14.5432 25.3806 14.1085 24.5896 14.1085C24.5318 14.1066 24.474 14.112 24.4178 14.1245C24.4006 14.0925 24.3662 14.0765 24.3491 14.0444C24.0055 13.693 23.5589 13.5328 23.0255 13.5476C21.9949 13.5797 20.9642 14.2688 20.1375 15.504C19.5531 16.3702 19.1069 17.4608 18.9858 18.3109C17.7997 18.6475 16.9747 18.8883 16.9575 18.9043C16.3563 19.0806 16.3387 19.0966 16.2704 19.6255C16.2189 20.0261 14.6385 31.3173 14.6385 31.3173L27.6326 33.4199V15.8582C27.5693 15.8604 27.5063 15.8657 27.4436 15.8742C27.4436 15.8742 27.2031 15.9383 26.8076 16.0505ZM24.4354 16.7404C23.7483 16.9327 22.9912 17.1571 22.2521 17.3658C22.4582 16.6118 22.8709 15.8582 23.3523 15.3625C23.5413 15.1863 23.7994 14.9775 24.0914 14.8493C24.3839 15.4251 24.4526 16.2111 24.4354 16.7404ZM23.0255 14.2063C23.2421 14.1999 23.4563 14.2492 23.6448 14.3489C23.3699 14.4771 23.0947 14.6858 22.837 14.9262C22.1838 15.5841 21.6852 16.609 21.4791 17.5886C20.8599 17.7653 20.241 17.9415 19.6755 18.1018C20.0517 16.5637 21.4439 14.2383 23.0255 14.2063ZM21.0316 23.0274C21.1003 24.0535 24.0055 24.2782 24.1773 26.6998C24.2975 28.6085 23.0942 29.9074 21.358 30.0039C19.2611 30.1321 18.1093 28.9775 18.1093 28.9775L18.5559 27.2146C18.5559 27.2146 19.7077 28.0327 20.6361 27.9686C21.2373 27.9366 21.4615 27.4714 21.4439 27.1505C21.358 25.8035 18.9858 25.8836 18.8312 23.6704C18.6938 21.8098 20.0001 19.9336 22.8881 19.7569C24.0047 19.6928 24.5728 19.9496 24.5728 19.9496L23.9196 22.2573C23.9196 22.2573 23.1806 21.9368 22.3036 22.0009C21.0316 22.0815 21.0145 22.8347 21.0316 23.0274ZM25.1229 16.5477C25.1229 16.0669 25.0542 15.377 24.8133 14.7996C25.6043 14.9439 25.9822 15.7612 26.1544 16.2592C25.845 16.3393 25.5011 16.4355 25.1229 16.5477Z" fill="white"/>
</svg>
