<svg width="48" height="48" viewBox="0 0 48 48" fill="none" xmlns="http://www.w3.org/2000/svg">
<rect width="48" height="48" rx="8" fill="#425DF9"/>
<g clip-path="url(#clip0_6658_8081)">
<path d="M22 16H17C16.7348 16 16.4804 16.1054 16.2929 16.2929C16.1054 16.4804 16 16.7348 16 17V22C16 22.2652 16.1054 22.5196 16.2929 22.7071C16.4804 22.8946 16.7348 23 17 23H22C22.2652 23 22.5196 22.8946 22.7071 22.7071C22.8946 22.5196 23 22.2652 23 22V17C23 16.7348 22.8946 16.4804 22.7071 16.2929C22.5196 16.1054 22.2652 16 22 16V16ZM21 21H18V18H21V21Z" fill="white"/>
<path d="M31 25H26C25.7348 25 25.4804 25.1054 25.2929 25.2929C25.1054 25.4804 25 25.7348 25 26V31C25 31.2652 25.1054 31.5196 25.2929 31.7071C25.4804 31.8946 25.7348 32 26 32H31C31.2652 32 31.5196 31.8946 31.7071 31.7071C31.8946 31.5196 32 31.2652 32 31V26C32 25.7348 31.8946 25.4804 31.7071 25.2929C31.5196 25.1054 31.2652 25 31 25ZM30 30H27V27H30V30Z" fill="white"/>
<path d="M22 25H17C16.7348 25 16.4804 25.1054 16.2929 25.2929C16.1054 25.4804 16 25.7348 16 26V31C16 31.2652 16.1054 31.5196 16.2929 31.7071C16.4804 31.8946 16.7348 32 17 32H22C22.2652 32 22.5196 31.8946 22.7071 31.7071C22.8946 31.5196 23 31.2652 23 31V26C23 25.7348 22.8946 25.4804 22.7071 25.2929C22.5196 25.1054 22.2652 25 22 25ZM21 30H18V27H21V30Z" fill="white"/>
<path d="M26.9999 23H27.0549C27.1954 22.9924 27.3326 22.9552 27.4577 22.8909C27.5828 22.8267 27.693 22.7367 27.7809 22.627L31.7809 17.627C31.947 17.4199 32.0239 17.1553 31.9948 16.8914C31.9658 16.6275 31.8331 16.386 31.6259 16.22C31.5234 16.1378 31.4056 16.0766 31.2794 16.0399C31.1532 16.0032 31.021 15.9917 30.8903 16.0061C30.6265 16.0352 30.385 16.1679 30.2189 16.375L26.9169 20.5L25.7069 19.29C25.6139 19.1972 25.5035 19.1235 25.382 19.0734C25.2605 19.0232 25.1303 18.9975 24.9989 18.9976C24.7334 18.9979 24.4789 19.1036 24.2914 19.2915C24.1039 19.4794 23.9987 19.7341 23.999 19.9996C23.9993 20.265 24.105 20.5195 24.2929 20.707L26.2929 22.707C26.4804 22.8946 26.7347 22.9999 26.9999 23Z" fill="white"/>
</g>
<defs>
<clipPath id="clip0_6658_8081">
<rect width="16" height="16" fill="white" transform="translate(16 16)"/>
</clipPath>
</defs>
</svg>
