<svg width="25" height="24" viewBox="0 0 25 24" fill="none" xmlns="http://www.w3.org/2000/svg">
<rect x="0.5" width="24" height="24" rx="6" fill="#425DF9"/>
<g clip-path="url(#clip0_665_1248)">
<path d="M7.74999 18.0001C7.60168 18 7.45671 17.956 7.3334 17.8736C7.21009 17.7912 7.11399 17.6741 7.05723 17.5371C7.00048 17.4 6.98563 17.2493 7.01456 17.1038C7.04348 16.9583 7.11489 16.8247 7.21974 16.7198L10.9697 12.9698C11.1112 12.8332 11.3006 12.7576 11.4973 12.7593C11.6939 12.761 11.8821 12.8399 12.0211 12.9789C12.1602 13.118 12.239 13.3061 12.2407 13.5028C12.2425 13.6994 12.1669 13.8889 12.0302 14.0303L8.28024 17.7803C8.13962 17.921 7.94889 18 7.74999 18.0001Z" fill="white"/>
<path d="M7.72451 14.094L8.86601 12.9517L8.82476 12.8557C8.82026 12.8437 8.39276 11.6677 9.03101 11.0295L12.0535 8.00699C12.685 7.37549 13.8535 7.79174 13.8535 7.79099L13.9758 7.84349L15.1173 6.70124L14.4175 6.40124C14.3328 6.36824 12.325 5.61674 10.9923 6.94724L7.96976 9.96974C6.64001 11.298 7.39226 13.3095 7.43576 13.4205L7.72451 14.094Z" fill="white"/>
<path d="M10.906 17.2758L12.0483 16.1343L12.1443 16.1756C12.1563 16.1801 13.3323 16.6076 13.9705 15.9693L16.993 12.9468C17.6245 12.3153 17.2083 11.1468 17.209 11.1468L17.1565 11.0246L18.2988 9.88232L18.5988 10.5821C18.6318 10.6668 19.3833 12.6776 18.0528 14.0073L15.0303 17.0298C13.702 18.3596 11.6905 17.6073 11.5803 17.5638L10.906 17.2758Z" fill="white"/>
<path d="M14.5 11.2501C14.3517 11.25 14.2067 11.206 14.0834 11.1236C13.9601 11.0412 13.864 10.9241 13.8072 10.7871C13.7505 10.65 13.7356 10.4993 13.7646 10.3538C13.7935 10.2083 13.8649 10.0747 13.9697 9.96981L17.7197 6.21981C17.8612 6.08319 18.0506 6.0076 18.2473 6.00931C18.4439 6.01101 18.632 6.08989 18.7711 6.22895C18.9102 6.368 18.989 6.55611 18.9907 6.75276C18.9925 6.94941 18.9169 7.13886 18.7802 7.28031L15.0302 11.0303C14.8896 11.171 14.6989 11.25 14.5 11.2501Z" fill="white"/>
</g>
<defs>
<clipPath id="clip0_665_1248">
<rect width="12" height="12" fill="white" transform="translate(7 6)"/>
</clipPath>
</defs>
</svg>
