<svg width="37" height="36" viewBox="0 0 37 36" fill="none" xmlns="http://www.w3.org/2000/svg">
<rect x="0.5" width="36" height="36" rx="6" fill="#425DF9"/>
<g clip-path="url(#clip0_912_791)">
<path d="M23.2 10.3C22.8 9.9 22.2 9.9 21.8 10.3C21.4 10.7 21.4 11.3 21.8 11.7L22.6 12.5L21.7 13.4C20.5 12.5 19.1 12 17.5 12C13.6 12 10.5 15.1 10.5 19C10.5 22.9 13.6 26 17.5 26C21.4 26 24.5 22.9 24.5 19C24.5 17.4 24 16 23.1 14.8L24 13.9L24.8 14.7C25 14.9 25.2 15 25.5 15C25.8 15 26 14.9 26.2 14.7C26.6 14.3 26.6 13.7 26.2 13.3L23.2 10.3ZM17.5 24C14.7 24 12.5 21.8 12.5 19C12.5 16.2 14.7 14 17.5 14C20.3 14 22.5 16.2 22.5 19C22.5 21.8 20.3 24 17.5 24Z" fill="white"/>
<path d="M18.5 16H16.5V20H20.5V18H18.5V16Z" fill="white"/>
</g>
<defs>
<clipPath id="clip0_912_791">
<rect width="16" height="16" fill="white" transform="translate(10.5 10)"/>
</clipPath>
</defs>
</svg>
