<svg width="1056" height="552" viewBox="0 0 1056 552" fill="none" xmlns="http://www.w3.org/2000/svg">
<path fill-rule="evenodd" clip-rule="evenodd" d="M140 0C133.373 0 128 5.37258 128 12V32H928V12C928 5.37258 922.627 0 916 0H140Z" fill="#161A34"/>
<path d="M148 20C150.209 20 152 18.2091 152 16C152 13.7909 150.209 12 148 12C145.791 12 144 13.7909 144 16C144 18.2091 145.791 20 148 20Z" fill="#E85D75"/>
<path d="M148 20C150.209 20 152 18.2091 152 16C152 13.7909 150.209 12 148 12C145.791 12 144 13.7909 144 16C144 18.2091 145.791 20 148 20Z" stroke="#E85D75"/>
<path d="M162 20C164.209 20 166 18.2091 166 16C166 13.7909 164.209 12 162 12C159.791 12 158 13.7909 158 16C158 18.2091 159.791 20 162 20Z" fill="#FF9D2A"/>
<path d="M162 20C164.209 20 166 18.2091 166 16C166 13.7909 164.209 12 162 12C159.791 12 158 13.7909 158 16C158 18.2091 159.791 20 162 20Z" stroke="#FF9D2A"/>
<path d="M176 20C178.209 20 180 18.2091 180 16C180 13.7909 178.209 12 176 12C173.791 12 172 13.7909 172 16C172 18.2091 173.791 20 176 20Z" fill="#33CA7F"/>
<path d="M176 20C178.209 20 180 18.2091 180 16C180 13.7909 178.209 12 176 12C173.791 12 172 13.7909 172 16C172 18.2091 173.791 20 176 20Z" stroke="#33CA7F"/>
<path d="M128 32H928V540C928 546.627 922.627 552 916 552H140C133.373 552 128 546.627 128 540V32Z" fill="#F5F7F9"/>
<g clip-path="url(#clip0_663_2025)">
<path d="M224.485 68.7981C225.007 68.2755 225.292 67.6104 225.292 66.8503C225.292 65.3301 224.057 64.0475 222.489 64.0475C221.492 64.0475 220.637 64.5701 220.162 65.2826C220.066 65.4252 208.95 79.1069 208.855 79.2494C208.38 79.772 208.047 80.437 208.047 81.1971C208.047 82.7173 209.283 84 210.85 84C211.848 84 212.703 83.4774 213.178 82.7648C213.321 82.6223 224.39 68.9406 224.485 68.7981Z" fill="#425DF9"/>
<path d="M230.945 75.2588C231.468 74.7362 231.753 74.0711 231.753 73.2635C231.753 71.7434 230.518 70.4607 228.95 70.4607C227.953 70.4607 227.097 70.9833 226.622 71.6958C226.48 71.8384 220.637 79.0118 220.542 79.1543C220.019 79.6768 219.734 80.3419 219.734 81.1495C219.734 82.6697 220.969 83.9524 222.537 83.9524C223.534 83.9524 224.39 83.4298 224.865 82.7172C225.007 82.6222 230.85 75.4488 230.945 75.2588Z" fill="#425DF9"/>
<path d="M237.026 66.8029C237.026 68.323 235.791 69.6057 234.223 69.6057C232.703 69.6057 231.42 68.3705 231.42 66.8029C231.42 65.2827 232.656 64 234.223 64C235.743 64 237.026 65.2827 237.026 66.8029Z" fill="#425DF9"/>
<path d="M213.606 66.8029C213.606 68.323 212.371 69.6057 210.803 69.6057C209.283 69.6057 208 68.3705 208 66.8029C208.048 65.2827 209.283 64 210.85 64C212.371 64 213.606 65.2827 213.606 66.8029Z" fill="#425DF9"/>
<rect x="777" y="56" width="70.9126" height="36.0485" rx="5.1521" fill="#425DF9"/>
<path d="M795.003 77.6233C796.425 77.6233 797.307 76.9033 797.307 75.8413C797.307 73.4833 794.103 74.1493 794.103 72.8353C794.103 72.4393 794.418 72.1513 795.021 72.1513C795.588 72.1513 795.957 72.4123 796.119 72.9703L797.208 72.5563C796.974 71.7193 796.209 71.1703 795.075 71.1703C793.734 71.1703 792.951 71.8903 792.951 72.9253C792.951 75.1303 796.146 74.4733 796.146 75.8683C796.146 76.3453 795.759 76.6333 795.111 76.6333C794.418 76.6333 793.932 76.2823 793.761 75.6433L792.672 76.0573C792.969 77.0653 793.833 77.6233 795.003 77.6233ZM799.163 77.5243H800.315V71.2693H799.163V77.5243ZM808.519 74.2033H805.342V75.0763H807.403C807.16 76.1023 806.458 76.5973 805.477 76.5973C804.172 76.5973 803.353 75.7243 803.353 74.4193C803.353 73.1233 804.163 72.2503 805.351 72.2503C806.26 72.2503 806.881 72.7183 807.16 73.5193L808.258 73.0603C807.871 72.0253 806.89 71.1613 805.369 71.1613C803.542 71.1613 802.183 72.5203 802.183 74.4013C802.183 76.2733 803.533 77.6323 805.378 77.6323C807.151 77.6323 808.519 76.3723 808.519 74.2033ZM814.139 71.2693V75.5533L811.286 71.2693H810.332V77.5243H811.475V73.2493L814.328 77.5243H815.282V71.2693H814.139ZM823.927 71.2693V75.1303C823.927 75.9403 823.486 76.5523 822.604 76.5523C821.722 76.5523 821.29 75.9493 821.29 75.1303V71.2693H820.129V75.1303C820.129 76.4983 820.957 77.6323 822.604 77.6323C824.26 77.6323 825.07 76.4893 825.07 75.1303V71.2693H823.927ZM829.631 71.2693H827.156V77.5243H828.308V75.1123H829.631C830.936 75.1123 831.773 74.3563 831.773 73.1863C831.773 72.0253 830.945 71.2693 829.631 71.2693ZM829.577 74.1043H828.308V72.2773H829.577C830.252 72.2773 830.603 72.6553 830.603 73.1863C830.603 73.7263 830.252 74.1043 829.577 74.1043Z" fill="white"/>
<rect opacity="0.75" x="416" y="72" width="28" height="4" rx="2" fill="#E2E1E4"/>
<rect opacity="0.75" x="456" y="72" width="60" height="4" rx="2" fill="#E2E1E4"/>
<rect opacity="0.75" x="528" y="72" width="40" height="4" rx="2" fill="#E2E1E4"/>
<rect opacity="0.75" x="580" y="72" width="60" height="4" rx="2" fill="#E2E1E4"/>
</g>
<path d="M215.784 165.308C220.012 165.308 222.672 163.124 222.672 159.876C222.672 152.596 212.592 154.752 212.592 150.244C212.592 148.816 213.74 147.78 215.84 147.78C217.772 147.78 219.004 148.648 219.564 150.496L222.364 149.432C221.636 146.856 219.368 145.232 215.98 145.232C211.976 145.232 209.624 147.416 209.624 150.496C209.624 157.272 219.676 155.2 219.676 159.96C219.676 161.668 218.276 162.732 216.036 162.732C213.74 162.732 212.116 161.556 211.556 159.484L208.756 160.548C209.624 163.572 212.228 165.308 215.784 165.308ZM237.273 150.244V152.736C236.153 151.056 234.361 150.104 232.065 150.104C227.865 150.104 224.785 153.24 224.785 157.608C224.785 162.032 227.837 165.336 232.065 165.336C234.361 165.336 236.153 164.3 237.273 162.592V165H240.017V150.244H237.273ZM232.429 162.704C229.713 162.704 227.725 160.548 227.725 157.608C227.725 154.724 229.741 152.54 232.429 152.54C235.257 152.54 237.161 154.64 237.161 157.608C237.161 160.604 235.229 162.704 232.429 162.704ZM253.976 150.244L249.384 162.564L245.1 150.244H242.048L247.536 165H248.376L246.36 170.012H249.272L251.232 165L257.056 150.244H253.976ZM276.101 150.244V152.596C274.981 150.944 273.189 149.936 270.893 149.936C266.693 149.936 263.613 153.24 263.613 157.356C263.613 161.5 266.665 164.748 270.893 164.748C273.189 164.748 274.981 163.712 276.101 162.06V163.236C276.101 166.064 274.197 167.856 271.117 167.856C268.821 167.856 267.141 166.876 266.441 164.916L263.921 165.896C264.873 168.612 267.197 170.348 271.089 170.348C275.961 170.348 278.845 167.408 278.845 162.984V150.244H276.101ZM271.229 162.452C268.541 162.452 266.553 160.324 266.553 157.496C266.553 154.696 268.569 152.54 271.257 152.54C274.001 152.54 275.933 154.64 275.933 157.496C275.933 160.38 273.973 162.452 271.229 162.452ZM289.361 165.336C293.925 165.336 297.145 162.032 297.145 157.636C297.145 153.212 293.925 149.936 289.361 149.936C284.825 149.936 281.605 153.212 281.605 157.636C281.605 162.032 284.825 165.336 289.361 165.336ZM289.389 162.676C286.533 162.676 284.573 160.548 284.573 157.636C284.573 154.668 286.533 152.568 289.389 152.568C292.245 152.568 294.177 154.668 294.177 157.636C294.177 160.576 292.217 162.676 289.389 162.676ZM306.861 165.336C311.425 165.336 314.645 162.032 314.645 157.636C314.645 153.212 311.425 149.936 306.861 149.936C302.325 149.936 299.105 153.212 299.105 157.636C299.105 162.032 302.325 165.336 306.861 165.336ZM306.889 162.676C304.033 162.676 302.073 160.548 302.073 157.636C302.073 154.668 304.033 152.568 306.889 152.568C309.745 152.568 311.677 154.668 311.677 157.636C311.677 160.576 309.717 162.676 306.889 162.676ZM328.897 144.532V152.288C327.721 150.804 325.957 149.936 323.829 149.936C319.629 149.936 316.633 153.24 316.633 157.608C316.633 162.032 319.685 165.336 323.913 165.336C326.153 165.336 327.973 164.356 329.121 162.704V165H331.865V144.532H328.897ZM324.277 162.704C321.561 162.704 319.573 160.548 319.573 157.608C319.573 154.724 321.589 152.54 324.277 152.54C327.105 152.54 329.009 154.64 329.009 157.608C329.009 160.604 327.077 162.704 324.277 162.704ZM343.5 149.936C341.372 149.936 339.636 150.804 338.46 152.26V144.532H335.492V165H338.236V162.732C339.384 164.356 341.176 165.336 343.444 165.336C347.672 165.336 350.724 162.032 350.724 157.608C350.724 153.24 347.728 149.936 343.5 149.936ZM343.08 162.704C340.28 162.704 338.32 160.604 338.32 157.608C338.32 154.64 340.252 152.54 343.08 152.54C345.768 152.54 347.784 154.724 347.784 157.608C347.784 160.548 345.796 162.704 343.08 162.704ZM363.406 150.244L358.814 162.564L354.53 150.244H351.478L356.966 165H357.806L355.79 170.012H358.702L360.662 165L366.486 150.244H363.406ZM369.937 158.616H381.837C381.865 158.336 381.893 157.804 381.893 157.3C381.893 153.492 379.065 149.908 374.501 149.908C370.329 149.908 366.997 153.352 366.997 157.636C366.997 162.032 370.077 165.336 374.725 165.336C378.253 165.336 380.241 163.852 381.361 161.892L378.925 160.352C378.253 161.892 377.021 162.704 374.809 162.704C372.317 162.704 370.385 161.136 369.937 158.616ZM369.965 156.348C370.413 153.8 372.317 152.316 374.613 152.316C376.881 152.316 378.589 153.856 378.981 156.348H369.965ZM216.064 201H218.304V198.396H216.652C214.888 198.396 213.908 197.388 213.908 195.54V188.792H218.136V186.244H214.02V182.436H211.136V184.816C211.136 185.768 210.716 186.244 209.764 186.244H208.336V188.792H210.968V195.848C210.968 199.012 212.732 201 216.064 201ZM227.017 201.336C231.581 201.336 234.801 198.032 234.801 193.636C234.801 189.212 231.581 185.936 227.017 185.936C222.481 185.936 219.261 189.212 219.261 193.636C219.261 198.032 222.481 201.336 227.017 201.336ZM227.045 198.676C224.189 198.676 222.229 196.548 222.229 193.636C222.229 190.668 224.189 188.568 227.045 188.568C229.901 188.568 231.833 190.668 231.833 193.636C231.833 196.576 229.873 198.676 227.045 198.676ZM245.632 194.616H257.532C257.56 194.336 257.588 193.804 257.588 193.3C257.588 189.492 254.76 185.908 250.196 185.908C246.024 185.908 242.692 189.352 242.692 193.636C242.692 198.032 245.772 201.336 250.42 201.336C253.948 201.336 255.936 199.852 257.056 197.892L254.62 196.352C253.948 197.892 252.716 198.704 250.504 198.704C248.012 198.704 246.08 197.136 245.632 194.616ZM245.66 192.348C246.108 189.8 248.012 188.316 250.308 188.316C252.576 188.316 254.284 189.856 254.676 192.348H245.66ZM272.552 201L266.84 193.58L272.412 186.244H269.22L265.244 191.48L261.212 186.244H257.936L263.424 193.384L257.572 201H260.708L265.02 195.456L269.276 201H272.552ZM282.387 185.936C280.119 185.936 278.299 186.916 277.123 188.568V186.244H274.379V206.012H277.347V199.04C278.495 200.496 280.203 201.336 282.331 201.336C286.531 201.336 289.611 198.032 289.611 193.636C289.611 189.24 286.615 185.936 282.387 185.936ZM281.967 198.704C279.139 198.704 277.207 196.632 277.207 193.636C277.207 190.64 279.167 188.54 281.967 188.54C284.683 188.54 286.671 190.696 286.671 193.636C286.671 196.548 284.655 198.704 281.967 198.704ZM294.413 194.616H306.313C306.341 194.336 306.369 193.804 306.369 193.3C306.369 189.492 303.541 185.908 298.977 185.908C294.805 185.908 291.473 189.352 291.473 193.636C291.473 198.032 294.553 201.336 299.201 201.336C302.729 201.336 304.717 199.852 305.837 197.892L303.401 196.352C302.729 197.892 301.497 198.704 299.285 198.704C296.793 198.704 294.861 197.136 294.413 194.616ZM294.441 192.348C294.889 189.8 296.793 188.316 299.089 188.316C301.357 188.316 303.065 189.856 303.457 192.348H294.441ZM316.722 185.908C314.538 185.908 312.858 186.832 311.85 188.12V186.244H309.05V201H312.018V192.012C312.046 190.192 313.67 188.568 315.882 188.568C318.234 188.54 319.69 189.996 319.69 192.432V201H322.658V191.9C322.658 188.288 320.418 185.908 316.722 185.908ZM331.124 201.336C334.708 201.336 337.06 199.656 337.06 196.772C337.06 191.368 328.744 193.02 328.744 189.996C328.744 188.96 329.584 188.288 331.096 188.288C332.468 188.288 333.42 188.876 333.868 190.08L336.556 189.044C335.912 187.056 333.924 185.936 331.152 185.936C327.792 185.936 325.608 187.532 325.608 190.164C325.608 195.232 333.924 193.776 333.924 196.996C333.924 198.2 332.86 198.9 331.208 198.9C329.304 198.9 328.044 198.06 327.596 196.604L324.908 197.64C325.692 200.048 327.988 201.336 331.124 201.336ZM341.663 194.616H353.563C353.591 194.336 353.619 193.804 353.619 193.3C353.619 189.492 350.791 185.908 346.227 185.908C342.055 185.908 338.723 189.352 338.723 193.636C338.723 198.032 341.803 201.336 346.451 201.336C349.979 201.336 351.967 199.852 353.087 197.892L350.651 196.352C349.979 197.892 348.747 198.704 346.535 198.704C344.043 198.704 342.111 197.136 341.663 194.616ZM341.691 192.348C342.139 189.8 344.043 188.316 346.339 188.316C348.607 188.316 350.315 189.856 350.707 192.348H341.691ZM212.62 224.12V222.244H209.82V237H212.788V228.348C212.788 226.276 214.524 224.708 217.156 224.68V221.908C215.224 221.908 213.6 222.86 212.62 224.12ZM220.777 230.616H232.677C232.705 230.336 232.733 229.804 232.733 229.3C232.733 225.492 229.905 221.908 225.341 221.908C221.169 221.908 217.837 225.352 217.837 229.636C217.837 234.032 220.917 237.336 225.565 237.336C229.093 237.336 231.081 235.852 232.201 233.892L229.765 232.352C229.093 233.892 227.861 234.704 225.649 234.704C223.157 234.704 221.225 233.136 220.777 230.616ZM220.805 228.348C221.253 225.8 223.157 224.316 225.453 224.316C227.721 224.316 229.429 225.856 229.821 228.348H220.805ZM243.422 221.936C241.154 221.936 239.334 222.916 238.158 224.568V222.244H235.414V242.012H238.382V235.04C239.53 236.496 241.238 237.336 243.366 237.336C247.566 237.336 250.646 234.032 250.646 229.636C250.646 225.24 247.65 221.936 243.422 221.936ZM243.002 234.704C240.174 234.704 238.242 232.632 238.242 229.636C238.242 226.64 240.202 224.54 243.002 224.54C245.718 224.54 247.706 226.696 247.706 229.636C247.706 232.548 245.69 234.704 243.002 234.704ZM260.377 237.336C264.941 237.336 268.161 234.032 268.161 229.636C268.161 225.212 264.941 221.936 260.377 221.936C255.841 221.936 252.621 225.212 252.621 229.636C252.621 234.032 255.841 237.336 260.377 237.336ZM260.405 234.676C257.549 234.676 255.589 232.548 255.589 229.636C255.589 226.668 257.549 224.568 260.405 224.568C263.261 224.568 265.193 226.668 265.193 229.636C265.193 232.576 263.233 234.676 260.405 234.676ZM273.761 224.12V222.244H270.961V237H273.929V228.348C273.929 226.276 275.665 224.708 278.297 224.68V221.908C276.365 221.908 274.741 222.86 273.761 224.12ZM286.802 237H289.042V234.396H287.39C285.626 234.396 284.646 233.388 284.646 231.54V224.792H288.874V222.244H284.758V218.436H281.874V220.816C281.874 221.768 281.454 222.244 280.502 222.244H279.074V224.792H281.706V231.848C281.706 235.012 283.47 237 286.802 237ZM296.124 237.336C299.708 237.336 302.06 235.656 302.06 232.772C302.06 227.368 293.744 229.02 293.744 225.996C293.744 224.96 294.584 224.288 296.096 224.288C297.468 224.288 298.42 224.876 298.868 226.08L301.556 225.044C300.912 223.056 298.924 221.936 296.152 221.936C292.792 221.936 290.608 223.532 290.608 226.164C290.608 231.232 298.924 229.776 298.924 232.996C298.924 234.2 297.86 234.9 296.208 234.9C294.304 234.9 293.044 234.06 292.596 232.604L289.908 233.64C290.692 236.048 292.988 237.336 296.124 237.336Z" fill="#0C0E12"/>
<rect x="208" y="265" width="132" height="6" rx="3" fill="#E2E1E4"/>
<rect x="208" y="297" width="150.913" height="37.0485" rx="5.1521" fill="white"/>
<path d="M229.536 311.574H228.576L226.536 314.944L224.476 311.574H223.516L226.096 315.654V318.524H226.946V315.674L229.536 311.574ZM231.913 318.634C233.513 318.634 234.653 317.464 234.653 315.894C234.653 314.314 233.513 313.144 231.913 313.144C230.313 313.144 229.173 314.314 229.173 315.894C229.173 317.464 230.313 318.634 231.913 318.634ZM231.923 317.874C230.803 317.874 230.033 317.044 230.033 315.894C230.033 314.734 230.803 313.904 231.923 313.904C233.043 313.904 233.803 314.734 233.803 315.894C233.803 317.044 233.033 317.874 231.923 317.874ZM239.703 313.254V316.564C239.693 317.234 239.093 317.874 238.203 317.874C237.303 317.884 236.733 317.294 236.733 316.404V313.254H235.883V316.504C235.883 317.754 236.633 318.634 237.983 318.634C238.763 318.634 239.393 318.264 239.743 317.774V318.524H240.553V313.254H239.703ZM242.959 314.024V313.254H242.159V318.524H243.009V315.344C243.009 314.594 243.679 313.944 244.639 313.934V313.144C243.899 313.144 243.299 313.534 242.959 314.024ZM250.29 318.634C251.57 318.634 252.44 317.864 252.71 317.004L251.95 316.694C251.73 317.424 251.12 317.874 250.31 317.874C249.24 317.874 248.44 317.064 248.44 315.894C248.44 314.724 249.24 313.914 250.3 313.914C251.1 313.914 251.7 314.364 251.92 315.094L252.68 314.794C252.41 313.914 251.55 313.154 250.28 313.154C248.72 313.154 247.58 314.334 247.58 315.894C247.58 317.474 248.73 318.634 250.29 318.634ZM256.263 318.634C257.863 318.634 259.003 317.464 259.003 315.894C259.003 314.314 257.863 313.144 256.263 313.144C254.663 313.144 253.523 314.314 253.523 315.894C253.523 317.464 254.663 318.634 256.263 318.634ZM256.273 317.874C255.153 317.874 254.383 317.044 254.383 315.894C254.383 314.734 255.153 313.904 256.273 313.904C257.393 313.904 258.153 314.734 258.153 315.894C258.153 317.044 257.383 317.874 256.273 317.874ZM266.513 313.144C265.563 313.144 264.913 313.644 264.643 314.214C264.353 313.534 263.753 313.144 262.843 313.144C262.033 313.144 261.423 313.544 261.103 314.034V313.254H260.303V318.524H261.153V315.204C261.163 314.594 261.723 313.904 262.603 313.904C263.483 313.894 264.013 314.524 264.013 315.424V318.524H264.863V315.204C264.883 314.594 265.433 313.904 266.323 313.904C267.203 313.894 267.733 314.534 267.733 315.424V318.524H268.583V315.274C268.583 314.044 267.833 313.144 266.513 313.144ZM272.912 313.144C272.042 313.144 271.342 313.554 270.922 314.224V313.254H270.132V320.314H270.982V317.664C271.402 318.274 272.072 318.634 272.892 318.634C274.392 318.634 275.492 317.464 275.492 315.894C275.492 314.324 274.412 313.144 272.912 313.144ZM272.802 317.884C271.702 317.884 270.942 317.064 270.942 315.894C270.942 314.724 271.712 313.894 272.802 313.894C273.862 313.894 274.642 314.744 274.642 315.894C274.642 317.034 273.852 317.884 272.802 317.884ZM281.046 313.254V314.274C280.646 313.594 279.956 313.194 279.066 313.194C277.576 313.194 276.476 314.324 276.476 315.884C276.476 317.464 277.566 318.634 279.066 318.634C279.956 318.634 280.646 318.214 281.046 317.514V318.524H281.836V313.254H281.046ZM279.166 317.884C278.106 317.884 277.316 317.034 277.316 315.884C277.316 314.754 278.106 313.894 279.166 313.894C280.266 313.894 281.016 314.714 281.016 315.884C281.016 317.064 280.256 317.884 279.166 317.884ZM286.081 313.144C285.241 313.144 284.601 313.524 284.261 314.024V313.254H283.461V318.524H284.311V315.264C284.321 314.554 284.961 313.904 285.861 313.904C286.801 313.894 287.371 314.474 287.371 315.454V318.524H288.221V315.304C288.221 313.994 287.431 313.144 286.081 313.144ZM293.368 313.254L291.588 317.804L289.888 313.254H288.998L291.058 318.524H291.288L290.538 320.314H291.378L294.258 313.254H293.368ZM297.94 316.204H302.32C302.33 316.104 302.34 315.924 302.34 315.774C302.34 314.384 301.33 313.134 299.74 313.134C298.25 313.134 297.08 314.364 297.08 315.894C297.08 317.464 298.18 318.644 299.8 318.644C301.05 318.644 301.78 318.104 302.17 317.354L301.43 316.904C301.17 317.514 300.69 317.844 299.83 317.844C298.86 317.844 298.09 317.184 297.94 316.204ZM297.95 315.464C298.11 314.464 298.88 313.874 299.77 313.874C300.65 313.874 301.34 314.474 301.47 315.464H297.95ZM303.477 316.364H306.047V315.664H303.477V316.364ZM313.777 313.144C312.827 313.144 312.177 313.644 311.907 314.214C311.617 313.534 311.017 313.144 310.107 313.144C309.297 313.144 308.687 313.544 308.367 314.034V313.254H307.567V318.524H308.417V315.204C308.427 314.594 308.987 313.904 309.867 313.904C310.747 313.894 311.277 314.524 311.277 315.424V318.524H312.127V315.204C312.147 314.594 312.697 313.904 313.587 313.904C314.467 313.894 314.997 314.534 314.997 315.424V318.524H315.847V315.274C315.847 314.044 315.097 313.144 313.777 313.144ZM321.646 313.254V314.274C321.246 313.594 320.556 313.194 319.666 313.194C318.176 313.194 317.076 314.324 317.076 315.884C317.076 317.464 318.166 318.634 319.666 318.634C320.556 318.634 321.246 318.214 321.646 317.514V318.524H322.436V313.254H321.646ZM319.766 317.884C318.706 317.884 317.916 317.034 317.916 315.884C317.916 314.754 318.706 313.894 319.766 313.894C320.866 313.894 321.616 314.714 321.616 315.884C321.616 317.064 320.856 317.884 319.766 317.884ZM324.48 312.284C324.86 312.284 325.15 312.014 325.15 311.634C325.15 311.244 324.86 310.964 324.48 310.964C324.1 310.964 323.81 311.244 323.81 311.634C323.81 312.014 324.1 312.284 324.48 312.284ZM324.06 318.524H324.91V313.254H324.06V318.524ZM326.516 318.524H327.366V311.214H326.516V318.524Z" fill="#0C0E12"/>
<rect x="364.913" y="297" width="70.9126" height="36.0485" rx="5.1521" fill="#425DF9"/>
<path d="M382.916 318.623C384.338 318.623 385.22 317.903 385.22 316.841C385.22 314.483 382.016 315.149 382.016 313.835C382.016 313.439 382.331 313.151 382.934 313.151C383.501 313.151 383.87 313.412 384.032 313.97L385.121 313.556C384.887 312.719 384.122 312.17 382.988 312.17C381.647 312.17 380.864 312.89 380.864 313.925C380.864 316.13 384.059 315.473 384.059 316.868C384.059 317.345 383.672 317.633 383.024 317.633C382.331 317.633 381.845 317.282 381.674 316.643L380.585 317.057C380.882 318.065 381.746 318.623 382.916 318.623ZM387.076 318.524H388.228V312.269H387.076V318.524ZM396.432 315.203H393.255V316.076H395.316C395.073 317.102 394.371 317.597 393.39 317.597C392.085 317.597 391.266 316.724 391.266 315.419C391.266 314.123 392.076 313.25 393.264 313.25C394.173 313.25 394.794 313.718 395.073 314.519L396.171 314.06C395.784 313.025 394.803 312.161 393.282 312.161C391.455 312.161 390.096 313.52 390.096 315.401C390.096 317.273 391.446 318.632 393.291 318.632C395.064 318.632 396.432 317.372 396.432 315.203ZM402.052 312.269V316.553L399.199 312.269H398.245V318.524H399.388V314.249L402.241 318.524H403.195V312.269H402.052ZM411.839 312.269V316.13C411.839 316.94 411.398 317.552 410.516 317.552C409.634 317.552 409.202 316.949 409.202 316.13V312.269H408.041V316.13C408.041 317.498 408.869 318.632 410.516 318.632C412.172 318.632 412.982 317.489 412.982 316.13V312.269H411.839ZM417.544 312.269H415.069V318.524H416.221V316.112H417.544C418.849 316.112 419.686 315.356 419.686 314.186C419.686 313.025 418.858 312.269 417.544 312.269ZM417.49 315.104H416.221V313.277H417.49C418.165 313.277 418.516 313.655 418.516 314.186C418.516 314.726 418.165 315.104 417.49 315.104Z" fill="white"/>
<g filter="url(#filter0_d_663_2025)">
<rect x="511" y="116.186" width="481" height="325" rx="12" fill="white"/>
</g>
<g opacity="0.5">
<line x1="966" y1="143.5" x2="682" y2="143.5" stroke="#E8E8E8"/>
<line x1="966" y1="175" x2="682" y2="175" stroke="#E8E8E8"/>
<line x1="966" y1="206.5" x2="682" y2="206.5" stroke="#E8E8E8"/>
<line x1="966" y1="238" x2="682" y2="238" stroke="#E8E8E8"/>
<line x1="966" y1="269.5" x2="682" y2="269.5" stroke="#E8E8E8"/>
</g>
<rect opacity="0.75" x="536" y="142.186" width="40" height="4" rx="2" fill="#E8E8E8"/>
<rect opacity="0.75" x="535.1" y="261.186" width="112" height="4" rx="2" fill="#E8E8E8"/>
<rect opacity="0.75" x="535.1" y="277.186" width="61.3455" height="4" rx="2" fill="#E8E8E8"/>
<g clip-path="url(#clip1_663_2025)">
<path d="M682 162C682 160.343 683.343 159 685 159H691C692.657 159 694 160.343 694 162V270H682V162Z" fill="#E85D75"/>
<path d="M700.6 199.916C700.6 198.259 701.943 196.916 703.6 196.916H709.6C711.257 196.916 712.6 198.259 712.6 199.916V269.691H700.6V199.916Z" fill="#B9BCD0"/>
</g>
<g clip-path="url(#clip2_663_2025)">
<path d="M799.421 191.489C799.421 189.832 800.764 188.489 802.421 188.489H808.421C810.078 188.489 811.421 189.832 811.421 191.489V269.691H799.421V191.489Z" fill="#E85D75"/>
<path d="M817.806 212.939C817.806 211.282 819.149 209.939 820.806 209.939H826.806C828.463 209.939 829.806 211.282 829.806 212.939V269.691H817.806V212.939Z" fill="#B9BCD0"/>
</g>
<g clip-path="url(#clip3_663_2025)">
<path d="M740.435 232.09C740.435 230.433 741.778 229.09 743.435 229.09H749.435C751.092 229.09 752.435 230.433 752.435 232.09V269.69H740.435V232.09Z" fill="#E85D75"/>
<path d="M758.82 242.815C758.82 241.158 760.163 239.815 761.82 239.815H767.82C769.477 239.815 770.82 241.158 770.82 242.815V269.691H758.82V242.815Z" fill="#B9BCD0"/>
</g>
<g clip-path="url(#clip4_663_2025)">
<path d="M857.641 208.342C857.641 206.685 858.984 205.342 860.641 205.342H866.641C868.298 205.342 869.641 206.685 869.641 208.342V269.691H857.641V208.342Z" fill="#E85D75"/>
<path d="M876.026 225.195C876.026 223.538 877.369 222.195 879.026 222.195H885.026C886.683 222.195 888.026 223.538 888.026 225.195V269.691H876.026V225.195Z" fill="#B9BCD0"/>
</g>
<g clip-path="url(#clip5_663_2025)">
<path d="M915.861 227.493C915.861 225.837 917.204 224.493 918.861 224.493H924.861C926.518 224.493 927.861 225.837 927.861 227.493V269.69H915.861V227.493Z" fill="#E85D75"/>
<path d="M934.246 238.984C934.246 237.327 935.589 235.984 937.246 235.984H943.246C944.903 235.984 946.246 237.327 946.246 238.984V269.691H934.246V238.984Z" fill="#B9BCD0"/>
</g>
<path d="M692.375 285.915C693.975 285.915 695.207 284.691 695.207 283.043C695.207 281.387 693.975 280.163 692.375 280.163C690.767 280.163 689.535 281.387 689.535 283.043C689.535 284.691 690.767 285.915 692.375 285.915ZM692.375 285.107C691.215 285.107 690.399 284.251 690.399 283.043C690.399 281.827 691.207 280.971 692.375 280.971C693.535 280.971 694.343 281.827 694.343 283.043C694.343 284.251 693.527 285.107 692.375 285.107ZM697.991 285.915C699.063 285.915 699.759 285.251 699.967 284.587L699.207 284.283C699.055 284.819 698.607 285.155 698.007 285.155C697.239 285.155 696.655 284.579 696.655 283.715C696.655 282.851 697.239 282.275 698.007 282.275C698.599 282.275 699.031 282.611 699.183 283.155L699.943 282.851C699.735 282.171 699.039 281.515 697.983 281.515C696.727 281.515 695.807 282.467 695.807 283.715C695.807 284.979 696.743 285.915 697.991 285.915ZM702.433 285.819H703.073V285.075H702.601C702.097 285.075 701.817 284.787 701.817 284.259V282.331H703.025V281.603H701.849V280.515H701.025V281.195C701.025 281.467 700.905 281.603 700.633 281.603H700.225V282.331H700.977V284.347C700.977 285.251 701.481 285.819 702.433 285.819Z" fill="#9B9FA5"/>
<path d="M866.092 285.819H866.508C867.508 285.819 868.068 285.211 868.068 284.219V280.259H867.22V284.211C867.22 284.755 866.932 285.067 866.444 285.067H866.092V285.819ZM872.437 281.603V282.315C872.117 281.835 871.605 281.563 870.949 281.563C869.749 281.563 868.869 282.459 868.869 283.707C868.869 284.971 869.741 285.915 870.949 285.915C871.605 285.915 872.117 285.619 872.437 285.131V285.819H873.221V281.603H872.437ZM871.053 285.163C870.277 285.163 869.709 284.547 869.709 283.707C869.709 282.883 870.285 282.259 871.053 282.259C871.861 282.259 872.405 282.859 872.405 283.707C872.405 284.563 871.853 285.163 871.053 285.163ZM876.449 281.507C875.825 281.507 875.345 281.771 875.057 282.139V281.603H874.257V285.819H875.105V283.251C875.113 282.731 875.577 282.267 876.209 282.267C876.881 282.259 877.297 282.675 877.297 283.371V285.819H878.145V283.219C878.145 282.187 877.505 281.507 876.449 281.507Z" fill="#9B9FA5"/>
<path d="M809.816 280.259H807.752V285.819H809.816C811.424 285.819 812.568 284.723 812.568 283.035C812.568 281.347 811.424 280.259 809.816 280.259ZM809.792 285.067H808.6V281.011H809.792C810.904 281.011 811.712 281.787 811.712 283.043C811.712 284.299 810.904 285.067 809.792 285.067ZM813.989 283.995H817.389C817.397 283.915 817.405 283.763 817.405 283.619C817.405 282.531 816.597 281.507 815.293 281.507C814.101 281.507 813.149 282.491 813.149 283.715C813.149 284.971 814.029 285.915 815.357 285.915C816.365 285.915 816.933 285.491 817.253 284.931L816.557 284.491C816.365 284.931 816.013 285.163 815.381 285.163C814.669 285.163 814.117 284.715 813.989 283.995ZM813.997 283.347C814.125 282.619 814.669 282.195 815.325 282.195C815.973 282.195 816.461 282.635 816.573 283.347H813.997ZM820.115 285.915C821.187 285.915 821.883 285.251 822.091 284.587L821.331 284.283C821.179 284.819 820.731 285.155 820.131 285.155C819.363 285.155 818.779 284.579 818.779 283.715C818.779 282.851 819.363 282.275 820.131 282.275C820.723 282.275 821.155 282.611 821.307 283.155L822.067 282.851C821.859 282.171 821.163 281.515 820.107 281.515C818.851 281.515 817.931 282.467 817.931 283.715C817.931 284.979 818.867 285.915 820.115 285.915Z" fill="#9B9FA5"/>
<path d="M753.308 280.259V284.363L750.564 280.259H749.86V285.819H750.708V281.731L753.444 285.819H754.156V280.259H753.308ZM757.193 285.915C758.497 285.915 759.417 284.971 759.417 283.715C759.417 282.451 758.497 281.515 757.193 281.515C755.897 281.515 754.977 282.451 754.977 283.715C754.977 284.971 755.897 285.915 757.193 285.915ZM757.201 285.155C756.385 285.155 755.825 284.547 755.825 283.715C755.825 282.867 756.385 282.267 757.201 282.267C758.017 282.267 758.569 282.867 758.569 283.715C758.569 284.555 758.009 285.155 757.201 285.155ZM763.013 281.603L761.749 285.011L760.477 281.603H759.597L761.261 285.819H762.229L763.893 281.603H763.013Z" fill="#9B9FA5"/>
<path d="M928.967 281.003V280.259H925.431V285.819H926.279V283.363H928.679V282.619H926.279V281.003H928.967ZM930.13 283.995H933.53C933.538 283.915 933.546 283.763 933.546 283.619C933.546 282.531 932.738 281.507 931.434 281.507C930.242 281.507 929.29 282.491 929.29 283.715C929.29 284.971 930.17 285.915 931.498 285.915C932.506 285.915 933.074 285.491 933.394 284.931L932.698 284.491C932.506 284.931 932.154 285.163 931.522 285.163C930.81 285.163 930.258 284.715 930.13 283.995ZM930.138 283.347C930.266 282.619 930.81 282.195 931.466 282.195C932.114 282.195 932.602 282.635 932.714 283.347H930.138ZM936.6 281.515C935.992 281.515 935.496 281.763 935.16 282.179V279.971H934.312V285.819H935.096V285.171C935.424 285.635 935.936 285.915 936.584 285.915C937.792 285.915 938.664 284.971 938.664 283.707C938.664 282.459 937.808 281.515 936.6 281.515ZM936.48 285.163C935.68 285.163 935.12 284.563 935.12 283.707C935.12 282.859 935.672 282.259 936.48 282.259C937.248 282.259 937.824 282.883 937.824 283.707C937.824 284.547 937.256 285.163 936.48 285.163Z" fill="#9B9FA5"/>
<path d="M548.366 198.09C548.366 191.51 539.742 193.442 539.742 189.382C539.742 188.094 540.694 187.17 542.458 187.17C543.998 187.17 545.09 187.954 545.538 189.634L548.114 188.654C547.582 186.638 546.042 185.322 543.858 184.958V182.382H541.45V184.93C538.65 185.294 537.054 187.114 537.054 189.606C537.054 195.738 545.594 193.862 545.594 198.174C545.594 199.686 544.446 200.638 542.598 200.638C540.666 200.638 539.294 199.574 538.846 197.698L536.27 198.706C536.97 201.17 538.874 202.654 541.394 202.934V205.454H543.802V202.878C546.63 202.43 548.366 200.61 548.366 198.09ZM556.936 191.09H554.556L554.836 186.078H562.732V183.726H552.316L551.784 193.442H556.852C559.316 193.442 560.912 195.094 560.912 197.25C560.912 199.406 559.316 200.974 556.908 200.974C554.892 200.974 553.268 199.882 552.764 197.95L550.048 199.042C551 201.954 553.492 203.522 556.88 203.522C561.22 203.522 563.936 200.946 563.936 197.278C563.936 193.554 561.136 191.09 556.936 191.09ZM575.938 192.854C577.73 192.182 579.046 190.67 579.046 188.458C579.046 185.602 576.778 183.446 573.054 183.446C569.274 183.446 567.034 185.63 567.034 188.43C567.034 190.67 568.35 192.154 570.058 192.826C567.874 193.554 566.222 195.458 566.222 197.95C566.222 201.254 569.078 203.522 573.054 203.522C577.002 203.522 579.858 201.254 579.858 197.95C579.858 195.458 578.122 193.554 575.938 192.854ZM573.054 185.854C574.93 185.854 576.218 187.114 576.218 188.794C576.218 190.502 574.902 191.79 573.054 191.79C571.178 191.79 569.862 190.502 569.862 188.794C569.862 187.114 571.15 185.854 573.054 185.854ZM573.054 201.086C570.674 201.086 569.19 199.63 569.19 197.586C569.19 195.542 570.73 194.03 573.054 194.03C575.35 194.03 576.89 195.542 576.89 197.586C576.89 199.63 575.406 201.086 573.054 201.086ZM589.3 190.25C589.048 190.25 588.824 190.25 588.6 190.278L593.64 183.726H590.168L583.84 192.014C582.916 193.218 582.076 194.786 582.076 196.83C582.076 200.75 585.212 203.522 589.272 203.522C593.304 203.522 596.356 200.806 596.356 196.802C596.356 192.826 593.36 190.25 589.3 190.25ZM589.272 200.974C586.92 200.974 585.1 199.182 585.1 196.83C585.1 194.422 586.92 192.658 589.272 192.658C591.624 192.658 593.332 194.394 593.332 196.83C593.332 199.21 591.624 200.974 589.272 200.974Z" fill="#0C0E12"/>
<path d="M535.514 240.572C535.514 240.572 539.5 233.835 544.706 233.835C549.913 233.835 549.344 237.907 554.66 237.907C559.977 237.907 562.28 222.186 569.851 222.186C577.421 222.186 579.047 236.707 585.397 236.707C590.344 236.707 591.609 231.379 595.266 231.379" stroke="#33CA7F" stroke-width="2" stroke-linecap="round"/>
<g clip-path="url(#clip6_663_2025)">
<circle cx="611.353" cy="231.379" r="6.12842" fill="#33CA7F"/>
<path fill-rule="evenodd" clip-rule="evenodd" d="M609.31 232.4L611.353 230.358L613.396 232.4" fill="#E8E8E8"/>
<path d="M609.31 232.4L611.353 230.358L613.396 232.4" stroke="white" stroke-width="1.5321" stroke-linecap="round" stroke-linejoin="round"/>
<path d="M623.276 229.976H623.22L624.829 227.862H623.469L621.446 230.546C621.152 230.923 620.849 231.447 620.849 232.145C620.849 233.46 621.906 234.361 623.266 234.361C624.618 234.361 625.657 233.469 625.657 232.136C625.657 230.812 624.655 229.976 623.276 229.976ZM623.266 233.359C622.577 233.359 622.044 232.835 622.044 232.145C622.044 231.438 622.577 230.932 623.266 230.932C623.956 230.932 624.461 231.438 624.461 232.145C624.461 232.844 623.956 233.359 623.266 233.359ZM627.399 230.757C628.254 230.757 628.86 230.095 628.86 229.277C628.86 228.45 628.254 227.788 627.399 227.788C626.553 227.788 625.928 228.45 625.928 229.277C625.928 230.095 626.553 230.757 627.399 230.757ZM626.948 234.25L627.849 234.241L631.517 227.852L630.598 227.862L626.948 234.25ZM627.399 230.022C626.994 230.022 626.691 229.7 626.691 229.268C626.691 228.864 626.985 228.523 627.399 228.523C627.812 228.523 628.107 228.864 628.107 229.268C628.107 229.7 627.803 230.022 627.399 230.022ZM631.048 234.324C631.903 234.324 632.519 233.662 632.519 232.844C632.519 232.017 631.903 231.355 631.048 231.355C630.203 231.355 629.587 232.017 629.587 232.844C629.587 233.662 630.203 234.324 631.048 234.324ZM631.048 233.589C630.644 233.589 630.34 233.267 630.34 232.835C630.34 232.43 630.644 232.09 631.048 232.09C631.462 232.09 631.756 232.43 631.756 232.835C631.756 233.267 631.453 233.589 631.048 233.589Z" fill="#33CA7F"/>
</g>
<g clip-path="url(#clip7_663_2025)">
<rect x="535.897" y="310.569" width="431.287" height="102.651" rx="8.38061" fill="white" stroke="#E2E1E4" stroke-width="0.766052"/>
<g clip-path="url(#clip8_663_2025)">
<rect x="679.133" y="310.187" width="0.766052" height="102.651" fill="#E2E1E4"/>
<rect opacity="0.75" x="575.632" y="333.191" width="32" height="3.12987" rx="1.56494" fill="#E8E8E8"/>
<path d="M563.079 370.317C563.079 365.617 556.919 366.997 556.919 364.097C556.919 363.177 557.599 362.517 558.859 362.517C559.959 362.517 560.739 363.077 561.059 364.277L562.899 363.577C562.519 362.137 561.419 361.197 559.859 360.937V359.097H558.139V360.917C556.139 361.177 554.999 362.477 554.999 364.257C554.999 368.637 561.099 367.297 561.099 370.377C561.099 371.457 560.279 372.137 558.959 372.137C557.579 372.137 556.599 371.377 556.279 370.037L554.439 370.757C554.939 372.517 556.299 373.577 558.099 373.777V375.577H559.819V373.737C561.839 373.417 563.079 372.117 563.079 370.317ZM569.201 365.317H567.501L567.701 361.737H573.341V360.057H565.901L565.521 366.997H569.141C570.901 366.997 572.041 368.177 572.041 369.717C572.041 371.257 570.901 372.377 569.181 372.377C567.741 372.377 566.581 371.597 566.221 370.217L564.281 370.997C564.961 373.077 566.741 374.197 569.161 374.197C572.261 374.197 574.201 372.357 574.201 369.737C574.201 367.077 572.201 365.317 569.201 365.317ZM582.774 366.577C584.054 366.097 584.994 365.017 584.994 363.437C584.994 361.397 583.374 359.857 580.714 359.857C578.014 359.857 576.414 361.417 576.414 363.417C576.414 365.017 577.354 366.077 578.574 366.557C577.014 367.077 575.834 368.437 575.834 370.217C575.834 372.577 577.874 374.197 580.714 374.197C583.534 374.197 585.574 372.577 585.574 370.217C585.574 368.437 584.334 367.077 582.774 366.577ZM580.714 361.577C582.054 361.577 582.974 362.477 582.974 363.677C582.974 364.897 582.034 365.817 580.714 365.817C579.374 365.817 578.434 364.897 578.434 363.677C578.434 362.477 579.354 361.577 580.714 361.577ZM580.714 372.457C579.014 372.457 577.954 371.417 577.954 369.957C577.954 368.497 579.054 367.417 580.714 367.417C582.354 367.417 583.454 368.497 583.454 369.957C583.454 371.417 582.394 372.457 580.714 372.457ZM592.318 364.717C592.138 364.717 591.978 364.717 591.818 364.737L595.418 360.057H592.938L588.418 365.977C587.758 366.837 587.158 367.957 587.158 369.417C587.158 372.217 589.398 374.197 592.298 374.197C595.178 374.197 597.358 372.257 597.358 369.397C597.358 366.557 595.218 364.717 592.318 364.717ZM592.298 372.377C590.618 372.377 589.318 371.097 589.318 369.417C589.318 367.697 590.618 366.437 592.298 366.437C593.978 366.437 595.198 367.677 595.198 369.417C595.198 371.117 593.978 372.377 592.298 372.377ZM600.101 374.137C600.861 374.137 601.421 373.577 601.421 372.837C601.421 372.057 600.861 371.497 600.101 371.497C599.361 371.497 598.781 372.057 598.781 372.837C598.781 373.577 599.361 374.137 600.101 374.137ZM601.894 360.057V361.857H608.674L603.834 373.957H606.194L611.034 361.677V360.057H601.894ZM616.72 365.317H615.02L615.22 361.737H620.86V360.057H613.42L613.04 366.997H616.66C618.42 366.997 619.56 368.177 619.56 369.717C619.56 371.257 618.42 372.377 616.7 372.377C615.26 372.377 614.1 371.597 613.74 370.217L611.8 370.997C612.48 373.077 614.26 374.197 616.68 374.197C619.78 374.197 621.72 372.357 621.72 369.737C621.72 367.077 619.72 365.317 616.72 365.317Z" fill="#0C0E12"/>
<rect x="553.899" y="328.572" width="13.1455" height="13.1455" rx="2.19091" fill="#FF9D2A"/>
<path fill-rule="evenodd" clip-rule="evenodd" d="M560.869 333.195H561.71C562.72 333.195 563.213 333.734 563.21 334.841V336.174C563.21 337.231 562.559 337.883 561.499 337.883H559.442C558.388 337.883 557.733 337.231 557.733 336.172V334.115C557.733 332.981 558.237 332.406 559.231 332.406H559.664C559.919 332.403 560.157 332.521 560.313 332.721L560.554 333.041C560.631 333.137 560.746 333.195 560.869 333.195ZM559.204 336.046H561.74C561.852 336.046 561.942 335.952 561.942 335.84C561.942 335.725 561.852 335.635 561.74 335.635H559.204C559.089 335.635 558.998 335.725 558.998 335.84C558.998 335.952 559.089 336.046 559.204 336.046Z" fill="white"/>
<g clip-path="url(#clip9_663_2025)">
<rect x="553.899" y="392.154" width="98.0547" height="2" rx="0.766052" fill="#E2E1E4"/>
<rect x="553.899" y="392.154" width="49.0273" height="2" rx="0.766052" fill="#FF9D2A"/>
</g>
</g>
<g clip-path="url(#clip10_663_2025)">
<rect x="823.151" y="310.187" width="0.766052" height="102.651" fill="#E2E1E4"/>
<rect opacity="0.75" x="719.136" y="333.191" width="32" height="3.12987" rx="1.56494" fill="#E8E8E8"/>
<path d="M707.097 370.317C707.097 365.617 700.937 366.997 700.937 364.097C700.937 363.177 701.617 362.517 702.877 362.517C703.977 362.517 704.757 363.077 705.077 364.277L706.917 363.577C706.537 362.137 705.437 361.197 703.877 360.937V359.097H702.157V360.917C700.157 361.177 699.017 362.477 699.017 364.257C699.017 368.637 705.117 367.297 705.117 370.377C705.117 371.457 704.297 372.137 702.977 372.137C701.597 372.137 700.617 371.377 700.297 370.037L698.457 370.757C698.957 372.517 700.317 373.577 702.117 373.777V375.577H703.837V373.737C705.857 373.417 707.097 372.117 707.097 370.317ZM719.039 369.077H717.339V360.077H715.259L708.219 369.237V370.757H715.239V373.957H717.339V370.757H719.039V369.077ZM715.259 369.077H710.459L715.259 362.837V369.077ZM723.298 372.177L726.898 368.537C728.398 367.117 729.558 365.597 729.558 363.717C729.558 361.397 727.758 359.837 725.018 359.837C722.658 359.837 720.758 361.157 720.238 363.217L722.238 363.877C722.638 362.417 723.718 361.657 725.018 361.657C726.458 361.657 727.418 362.537 727.418 363.797C727.418 365.197 726.278 366.537 725.258 367.517L720.238 372.557V373.957H729.818V372.177H723.298ZM736.012 365.317H734.312L734.512 361.737H740.152V360.057H732.712L732.332 366.997H735.952C737.712 366.997 738.852 368.177 738.852 369.717C738.852 371.257 737.712 372.377 735.992 372.377C734.552 372.377 733.392 371.597 733.032 370.217L731.092 370.997C731.772 373.077 733.552 374.197 735.972 374.197C739.072 374.197 741.012 372.357 741.012 369.737C741.012 367.077 739.012 365.317 736.012 365.317ZM743.904 374.137C744.664 374.137 745.224 373.577 745.224 372.837C745.224 372.057 744.664 371.497 743.904 371.497C743.164 371.497 742.584 372.057 742.584 372.837C742.584 373.577 743.164 374.137 743.904 374.137ZM750.901 359.817C748.041 359.817 745.841 361.757 745.841 364.617C745.841 367.457 747.981 369.297 750.881 369.297C751.061 369.297 751.221 369.297 751.381 369.277L747.801 373.957H750.261L754.781 368.037C755.441 367.177 756.041 366.057 756.041 364.597C756.041 361.797 753.801 359.817 750.901 359.817ZM750.901 367.577C749.241 367.577 748.001 366.337 748.001 364.597C748.001 362.897 749.241 361.637 750.901 361.637C752.601 361.637 753.881 362.917 753.881 364.597C753.881 366.317 752.601 367.577 750.901 367.577ZM767.398 369.077H765.698V360.077H763.618L756.578 369.237V370.757H763.598V373.957H765.698V370.757H767.398V369.077ZM763.618 369.077H758.818L763.618 362.837V369.077Z" fill="#0C0E12"/>
<rect x="697.917" y="328.572" width="13.1455" height="13.1455" rx="2.19091" fill="#E85D75"/>
<path fill-rule="evenodd" clip-rule="evenodd" d="M705.908 333.066C705.908 332.702 706.204 332.406 706.568 332.406C706.932 332.406 707.228 332.702 707.228 333.066C707.228 333.43 706.932 333.726 706.568 333.726C706.204 333.726 705.908 333.43 705.908 333.066ZM704.854 335.9L705.645 334.879L705.634 334.884C705.678 334.824 705.686 334.747 705.656 334.679C705.626 334.611 705.56 334.564 705.489 334.559C705.415 334.55 705.341 334.583 705.297 334.643L704.635 335.501L703.876 334.904C703.829 334.868 703.775 334.854 703.72 334.86C703.665 334.868 703.616 334.898 703.583 334.942L702.773 335.996L702.756 336.021C702.709 336.108 702.731 336.221 702.813 336.281C702.852 336.306 702.893 336.322 702.939 336.322C703.003 336.325 703.063 336.292 703.101 336.24L703.788 335.355L704.569 335.942L704.594 335.958C704.681 336.004 704.791 335.983 704.854 335.9ZM705.434 332.893C705.423 332.962 705.418 333.03 705.418 333.099C705.418 333.715 705.916 334.213 706.53 334.213C706.598 334.213 706.664 334.205 706.732 334.194V336.404C706.732 337.333 706.185 337.883 705.254 337.883H703.23C702.299 337.883 701.751 337.333 701.751 336.404V334.378C701.751 333.447 702.299 332.893 703.23 332.893H705.434Z" fill="white"/>
<g clip-path="url(#clip11_663_2025)">
<rect x="697.917" y="392.154" width="98.0547" height="2" rx="0.766052" fill="#E2E1E4"/>
<rect x="697.917" y="392.154" width="49.0273" height="2" rx="0.766052" fill="#E85D75"/>
</g>
</g>
<g clip-path="url(#clip12_663_2025)">
<rect width="125.633" height="102.651" transform="translate(841.935 310.187)" fill="black" fill-opacity="0.01"/>
<rect opacity="0.75" x="863.736" y="333.191" width="32" height="3.12987" rx="1.56494" fill="#E8E8E8"/>
<path d="M851.115 370.317C851.115 365.617 844.955 366.997 844.955 364.097C844.955 363.177 845.635 362.517 846.895 362.517C847.995 362.517 848.775 363.077 849.095 364.277L850.935 363.577C850.555 362.137 849.455 361.197 847.895 360.937V359.097H846.175V360.917C844.175 361.177 843.035 362.477 843.035 364.257C843.035 368.637 849.135 367.297 849.135 370.377C849.135 371.457 848.315 372.137 846.995 372.137C845.615 372.137 844.635 371.377 844.315 370.037L842.475 370.757C842.975 372.517 844.335 373.577 846.135 373.777V375.577H847.855V373.737C849.875 373.417 851.115 372.117 851.115 370.317ZM855.636 372.177L859.236 368.537C860.736 367.117 861.896 365.597 861.896 363.717C861.896 361.397 860.096 359.837 857.356 359.837C854.996 359.837 853.096 361.157 852.576 363.217L854.576 363.877C854.976 362.417 856.056 361.657 857.356 361.657C858.796 361.657 859.756 362.537 859.756 363.797C859.756 365.197 858.616 366.537 857.596 367.517L852.576 372.557V373.957H862.156V372.177H855.636ZM868.35 365.317H866.65L866.85 361.737H872.49V360.057H865.05L864.67 366.997H868.29C870.05 366.997 871.19 368.177 871.19 369.717C871.19 371.257 870.05 372.377 868.33 372.377C866.89 372.377 865.73 371.597 865.37 370.217L863.43 370.997C864.11 373.077 865.89 374.197 868.31 374.197C871.41 374.197 873.35 372.357 873.35 369.737C873.35 367.077 871.35 365.317 868.35 365.317ZM876.242 374.137C877.002 374.137 877.562 373.577 877.562 372.837C877.562 372.057 877.002 371.497 876.242 371.497C875.502 371.497 874.922 372.057 874.922 372.837C874.922 373.577 875.502 374.137 876.242 374.137ZM883.239 359.817C880.379 359.817 878.179 361.757 878.179 364.617C878.179 367.457 880.319 369.297 883.219 369.297C883.399 369.297 883.559 369.297 883.719 369.277L880.139 373.957H882.599L887.119 368.037C887.779 367.177 888.379 366.057 888.379 364.597C888.379 361.797 886.139 359.817 883.239 359.817ZM883.239 367.577C881.579 367.577 880.339 366.337 880.339 364.597C880.339 362.897 881.579 361.637 883.239 361.637C884.939 361.637 886.219 362.917 886.219 364.597C886.219 366.317 884.939 367.577 883.239 367.577ZM899.736 369.077H898.036V360.077H895.956L888.916 369.237V370.757H895.936V373.957H898.036V370.757H899.736V369.077ZM895.956 369.077H891.156L895.956 362.837V369.077Z" fill="#0C0E12"/>
<rect x="841.934" y="328.572" width="13.1455" height="13.1455" rx="2.19091" fill="#425DF9"/>
<path fill-rule="evenodd" clip-rule="evenodd" d="M850.63 334.737L850.841 336.378C850.997 337.448 850.375 337.884 849.54 337.884H847.27C846.432 337.884 845.791 337.583 845.963 336.378L846.177 334.737C846.21 334.493 846.328 334.266 846.511 334.099C846.651 333.976 846.831 333.91 847.018 333.91V333.847C846.996 333.34 847.256 332.861 847.694 332.601C848.132 332.341 848.68 332.341 849.118 332.601C849.556 332.861 849.814 333.34 849.795 333.847V333.91C850.14 333.91 850.504 334.151 850.63 334.737ZM847.434 333.847C847.434 333.316 847.867 332.883 848.401 332.883C848.937 332.883 849.37 333.316 849.37 333.847V333.908H847.434V333.847ZM847.36 335.033C847.36 335.164 847.47 335.274 847.604 335.274C847.738 335.274 847.845 335.164 847.845 335.033C847.845 334.899 847.738 334.792 847.604 334.792C847.47 334.792 847.36 334.899 847.36 335.033ZM849.192 335.274C849.255 335.274 849.318 335.249 849.362 335.203C849.408 335.159 849.433 335.096 849.433 335.033C849.433 334.899 849.324 334.792 849.192 334.792C849.058 334.792 848.948 334.899 848.948 335.033C848.948 335.164 849.058 335.274 849.192 335.274Z" fill="white"/>
<g clip-path="url(#clip13_663_2025)">
<rect x="843.467" y="392.154" width="98.0547" height="2" rx="0.766052" fill="#E2E1E4"/>
<rect x="843.467" y="392.154" width="49.0273" height="2" rx="0.766052" fill="#425DF9"/>
</g>
</g>
</g>
<g filter="url(#filter1_d_663_2025)">
<rect x="64" y="368" width="400" height="73" rx="12" fill="white"/>
</g>
<rect x="92" y="390.5" width="28" height="28" rx="14" fill="#00B67A"/>
<g clip-path="url(#clip14_663_2025)">
<path d="M114.819 402.115H108.397L106.413 396L104.424 402.115L98.0016 402.109L103.203 405.891L101.213 412L106.413 408.223L111.608 412L109.624 405.891L114.819 402.115Z" fill="white"/>
<path d="M110.071 407.274L109.624 405.891L106.413 408.223L110.071 407.274Z" fill="#005128"/>
</g>
<path d="M131.264 396.744H130.424L130.532 394.86H133.808V393.66H129.224L128.996 397.944H131.216C132.188 397.944 132.8 398.58 132.8 399.408C132.8 400.236 132.188 400.848 131.252 400.848C130.472 400.848 129.824 400.416 129.62 399.636L128.228 400.2C128.66 401.472 129.74 402.144 131.228 402.144C133.172 402.144 134.36 401.028 134.36 399.432C134.36 397.8 133.136 396.744 131.264 396.744Z" fill="#100A1F"/>
<path d="M145.755 400.4L142.817 402.045L143.473 398.742L141 396.455L144.345 396.058L145.755 393L147.166 396.058L150.511 396.455L148.038 398.742L148.694 402.045L145.755 400.4Z" fill="#FF9E2A"/>
<path d="M157 400.608L154.061 402.253L154.717 398.95L152.245 396.663L155.589 396.267L157 393.208L158.411 396.267L161.755 396.663L159.282 398.95L159.939 402.253L157 400.608Z" fill="#FF9E2A"/>
<path d="M168 400.608L165.061 402.253L165.717 398.95L163.245 396.663L166.589 396.267L168 393.208L169.411 396.267L172.755 396.663L170.282 398.95L170.939 402.253L168 400.608Z" fill="#FF9E2A"/>
<path d="M179 400.608L176.061 402.253L176.717 398.95L174.245 396.663L177.589 396.267L179 393.208L180.411 396.267L183.755 396.663L181.282 398.95L181.939 402.253L179 400.608Z" fill="#FF9E2A"/>
<path d="M190 400.608L187.061 402.253L187.717 398.95L185.245 396.663L188.589 396.267L190 393.208L191.411 396.267L194.755 396.663L192.282 398.95L192.939 402.253L190 400.608Z" fill="#FF9E2A"/>
<path d="M133.36 409.05H128.13V409.82H130.32V416H131.17V409.82H133.36V409.05ZM134.266 411.5V410.73H133.466V416H134.316V412.82C134.316 412.07 134.986 411.42 135.946 411.41V410.62C135.206 410.62 134.606 411.01 134.266 411.5ZM140.565 410.73V414.04C140.555 414.71 139.955 415.35 139.065 415.35C138.165 415.36 137.595 414.77 137.595 413.88V410.73H136.745V413.98C136.745 415.23 137.495 416.11 138.845 416.11C139.625 416.11 140.255 415.74 140.605 415.25V416H141.415V410.73H140.565ZM144.511 416.11C145.761 416.11 146.591 415.53 146.591 414.53C146.591 412.6 143.541 413.22 143.541 412.04C143.541 411.61 143.891 411.34 144.501 411.34C145.031 411.34 145.411 411.56 145.581 412.03L146.391 411.71C146.161 411.01 145.471 410.62 144.511 410.62C143.351 410.62 142.601 411.18 142.601 412.09C142.601 413.9 145.631 413.33 145.631 414.6C145.631 415.09 145.201 415.37 144.541 415.37C143.811 415.37 143.321 415.05 143.151 414.51L142.341 414.83C142.621 415.67 143.421 416.11 144.511 416.11ZM149.629 416H150.399V415.25H149.779C149.099 415.25 148.729 414.85 148.729 414.14V411.46H150.319V410.73H148.759V409.38H147.939V410.25C147.939 410.57 147.789 410.73 147.469 410.73H146.919V411.46H147.879V414.23C147.879 415.32 148.489 416 149.629 416ZM153.97 410.62C153.1 410.62 152.4 411.03 151.98 411.7V410.73H151.19V417.79H152.04V415.14C152.46 415.75 153.13 416.11 153.95 416.11C155.45 416.11 156.55 414.94 156.55 413.37C156.55 411.8 155.47 410.62 153.97 410.62ZM153.86 415.36C152.76 415.36 152 414.54 152 413.37C152 412.2 152.77 411.37 153.86 411.37C154.92 411.37 155.7 412.22 155.7 413.37C155.7 414.51 154.91 415.36 153.86 415.36ZM158.075 409.76C158.455 409.76 158.745 409.49 158.745 409.11C158.745 408.72 158.455 408.44 158.075 408.44C157.695 408.44 157.405 408.72 157.405 409.11C157.405 409.49 157.695 409.76 158.075 409.76ZM157.655 416H158.505V410.73H157.655V416ZM159.911 416H160.761V408.69H159.911V416ZM164.577 416.11C166.177 416.11 167.317 414.94 167.317 413.37C167.317 411.79 166.177 410.62 164.577 410.62C162.977 410.62 161.837 411.79 161.837 413.37C161.837 414.94 162.977 416.11 164.577 416.11ZM164.587 415.35C163.467 415.35 162.697 414.52 162.697 413.37C162.697 412.21 163.467 411.38 164.587 411.38C165.707 411.38 166.467 412.21 166.467 413.37C166.467 414.52 165.697 415.35 164.587 415.35ZM170.42 416H171.19V415.25H170.57C169.89 415.25 169.52 414.85 169.52 414.14V411.46H171.11V410.73H169.55V409.38H168.73V410.25C168.73 410.57 168.58 410.73 168.26 410.73H167.71V411.46H168.67V414.23C168.67 415.32 169.28 416 170.42 416Z" fill="#0C0E12"/>
<path d="M174.218 413.52H178.118V413.34H174.218V413.52ZM184.066 411.92H183.966L186.036 409.73V409.05H181.636V409.74H185.076L182.986 411.92V412.51H183.856C184.656 412.51 185.346 413.03 185.346 413.92C185.346 414.75 184.736 415.37 183.786 415.37C182.926 415.37 182.296 414.9 182.106 414.25L181.326 414.56C181.586 415.45 182.536 416.11 183.796 416.11C185.246 416.11 186.226 415.19 186.226 413.97C186.226 412.77 185.316 411.92 184.066 411.92ZM190.132 416.11C191.932 416.11 193.082 414.74 193.082 412.53C193.082 410.28 191.942 408.96 190.132 408.96C188.332 408.96 187.172 410.27 187.172 412.53C187.172 414.75 188.332 416.11 190.132 416.11ZM190.132 415.3C188.872 415.3 188.042 414.28 188.042 412.53C188.042 410.78 188.872 409.77 190.132 409.77C191.382 409.77 192.212 410.79 192.212 412.53C192.212 414.27 191.382 415.3 190.132 415.3ZM197.046 416.11C198.846 416.11 199.996 414.74 199.996 412.53C199.996 410.28 198.856 408.96 197.046 408.96C195.246 408.96 194.086 410.27 194.086 412.53C194.086 414.75 195.246 416.11 197.046 416.11ZM197.046 415.3C195.786 415.3 194.956 414.28 194.956 412.53C194.956 410.78 195.786 409.77 197.046 409.77C198.296 409.77 199.126 410.79 199.126 412.53C199.126 414.27 198.296 415.3 197.046 415.3ZM204.95 412.94H202.99V410.89H202.79V412.94H200.83V413.14H202.79V415.33H202.99V413.14H204.95V412.94ZM209.031 411.5V410.73H208.231V416H209.081V412.82C209.081 412.07 209.751 411.42 210.711 411.41V410.62C209.971 410.62 209.371 411.01 209.031 411.5ZM211.827 413.68H216.207C216.217 413.58 216.227 413.4 216.227 413.25C216.227 411.86 215.217 410.61 213.627 410.61C212.137 410.61 210.967 411.84 210.967 413.37C210.967 414.94 212.067 416.12 213.687 416.12C214.937 416.12 215.667 415.58 216.057 414.83L215.317 414.38C215.057 414.99 214.577 415.32 213.717 415.32C212.747 415.32 211.977 414.66 211.827 413.68ZM211.837 412.94C211.997 411.94 212.767 411.35 213.657 411.35C214.537 411.35 215.227 411.95 215.357 412.94H211.837ZM220.858 410.73L219.118 415.16L217.378 410.73H216.488L218.638 416H219.598L221.748 410.73H220.858ZM222.958 409.76C223.338 409.76 223.628 409.49 223.628 409.11C223.628 408.72 223.338 408.44 222.958 408.44C222.578 408.44 222.288 408.72 222.288 409.11C222.288 409.49 222.578 409.76 222.958 409.76ZM222.538 416H223.388V410.73H222.538V416ZM225.284 413.68H229.664C229.674 413.58 229.684 413.4 229.684 413.25C229.684 411.86 228.674 410.61 227.084 410.61C225.594 410.61 224.424 411.84 224.424 413.37C224.424 414.94 225.524 416.12 227.144 416.12C228.394 416.12 229.124 415.58 229.514 414.83L228.774 414.38C228.514 414.99 228.034 415.32 227.174 415.32C226.204 415.32 225.434 414.66 225.284 413.68ZM225.294 412.94C225.454 411.94 226.224 411.35 227.114 411.35C227.994 411.35 228.684 411.95 228.814 412.94H225.294ZM236.703 410.73L235.603 415.13L234.323 410.73H233.373L232.093 415.15L230.983 410.73H230.103L231.543 416H232.553L233.843 411.69L235.153 416H236.153L237.593 410.73H236.703ZM240.058 416.11C241.308 416.11 242.138 415.53 242.138 414.53C242.138 412.6 239.088 413.22 239.088 412.04C239.088 411.61 239.438 411.34 240.048 411.34C240.578 411.34 240.958 411.56 241.128 412.03L241.938 411.71C241.708 411.01 241.018 410.62 240.058 410.62C238.898 410.62 238.148 411.18 238.148 412.09C238.148 413.9 241.178 413.33 241.178 414.6C241.178 415.09 240.748 415.37 240.088 415.37C239.358 415.37 238.868 415.05 238.698 414.51L237.888 414.83C238.168 415.67 238.968 416.11 240.058 416.11Z" fill="#676E77"/>
<rect x="275" y="390.5" width="28" height="28" rx="14" fill="#95BF46"/>
<path opacity="0.72" d="M295.232 397.91C295.226 397.868 295.207 397.83 295.178 397.802C295.148 397.773 295.111 397.757 295.071 397.755C294.998 397.755 293.713 397.724 293.713 397.724C293.713 397.724 292.924 396.915 292.632 396.603V413.419L297.218 412.207C297.218 412.207 295.246 398.003 295.232 397.91Z" fill="white"/>
<path d="M291.808 396.05C291.725 395.808 291.622 395.572 291.498 395.345C291.05 394.543 290.381 394.108 289.59 394.108C289.532 394.107 289.474 394.112 289.418 394.125C289.401 394.092 289.366 394.076 289.349 394.044C289.006 393.693 288.559 393.533 288.026 393.548C286.995 393.58 285.964 394.269 285.138 395.504C284.553 396.37 284.107 397.461 283.986 398.311C282.8 398.647 281.975 398.888 281.958 398.904C281.356 399.081 281.339 399.097 281.27 399.625C281.219 400.026 279.639 411.317 279.639 411.317L292.633 413.42V395.858C292.569 395.86 292.506 395.866 292.444 395.874C292.444 395.874 292.203 395.938 291.808 396.05ZM289.435 396.74C288.748 396.933 287.991 397.157 287.252 397.366C287.458 396.612 287.871 395.858 288.352 395.363C288.541 395.186 288.799 394.977 289.091 394.849C289.384 395.425 289.453 396.211 289.435 396.74ZM288.026 394.206C288.242 394.2 288.456 394.249 288.645 394.349C288.37 394.477 288.095 394.686 287.837 394.926C287.184 395.584 286.685 396.609 286.479 397.589C285.86 397.765 285.241 397.942 284.675 398.102C285.052 396.564 286.444 394.238 288.026 394.206ZM286.032 403.027C286.1 404.053 289.006 404.278 289.177 406.7C289.298 408.608 288.094 409.907 286.358 410.004C284.261 410.132 283.109 408.977 283.109 408.977L283.556 407.215C283.556 407.215 284.708 408.033 285.636 407.969C286.237 407.937 286.462 407.471 286.444 407.15C286.358 405.803 283.986 405.884 283.831 403.67C283.694 401.81 285 399.934 287.888 399.757C289.005 399.693 289.573 399.95 289.573 399.95L288.92 402.257C288.92 402.257 288.181 401.937 287.304 402.001C286.032 402.081 286.014 402.835 286.032 403.027ZM290.123 396.548C290.123 396.067 290.054 395.377 289.813 394.8C290.604 394.944 290.982 395.761 291.154 396.259C290.845 396.339 290.501 396.435 290.123 396.548Z" fill="white"/>
<path d="M314.264 396.744H313.424L313.532 394.86H316.808V393.66H312.224L311.996 397.944H314.216C315.188 397.944 315.8 398.58 315.8 399.408C315.8 400.236 315.188 400.848 314.252 400.848C313.472 400.848 312.824 400.416 312.62 399.636L311.228 400.2C311.66 401.472 312.74 402.144 314.228 402.144C316.172 402.144 317.36 401.028 317.36 399.432C317.36 397.8 316.136 396.744 314.264 396.744Z" fill="#100A1F"/>
<path d="M328.755 400.4L325.817 402.045L326.473 398.742L324 396.455L327.345 396.058L328.755 393L330.166 396.058L333.511 396.455L331.038 398.742L331.694 402.045L328.755 400.4Z" fill="#FF9E2A"/>
<path d="M340 400.608L337.061 402.253L337.717 398.95L335.245 396.663L338.589 396.267L340 393.208L341.411 396.267L344.755 396.663L342.282 398.95L342.939 402.253L340 400.608Z" fill="#FF9E2A"/>
<path d="M351 400.608L348.061 402.253L348.717 398.95L346.245 396.663L349.589 396.267L351 393.208L352.411 396.267L355.755 396.663L353.282 398.95L353.939 402.253L351 400.608Z" fill="#FF9E2A"/>
<path d="M362 400.608L359.061 402.253L359.717 398.95L357.245 396.663L360.589 396.267L362 393.208L363.411 396.267L366.755 396.663L364.282 398.95L364.939 402.253L362 400.608Z" fill="#FF9E2A"/>
<path d="M373 400.608L370.061 402.253L370.717 398.95L368.245 396.663L371.589 396.267L373 393.208L374.411 396.267L377.755 396.663L375.282 398.95L375.939 402.253L373 400.608Z" fill="#FF9E2A"/>
<path d="M313.73 416.1C315.17 416.1 316.1 415.35 316.1 414.22C316.1 411.63 312.46 412.43 312.46 410.67C312.46 410.1 312.92 409.69 313.76 409.69C314.5 409.69 314.97 410.01 315.18 410.71L315.99 410.4C315.73 409.5 314.96 408.95 313.79 408.95C312.43 408.95 311.61 409.69 311.61 410.75C311.61 413.15 315.24 412.39 315.24 414.25C315.24 414.93 314.68 415.35 313.79 415.35C312.91 415.35 312.3 414.91 312.1 414.14L311.29 414.45C311.59 415.5 312.48 416.1 313.73 416.1ZM319.848 410.62C319.048 410.62 318.428 410.97 318.078 411.43V408.69H317.228V416H318.078V412.74C318.088 412.03 318.728 411.38 319.628 411.38C320.568 411.37 321.138 411.95 321.138 412.93V416H321.988V412.78C321.988 411.47 321.198 410.62 319.848 410.62ZM325.751 416.11C327.351 416.11 328.491 414.94 328.491 413.37C328.491 411.79 327.351 410.62 325.751 410.62C324.151 410.62 323.011 411.79 323.011 413.37C323.011 414.94 324.151 416.11 325.751 416.11ZM325.761 415.35C324.641 415.35 323.871 414.52 323.871 413.37C323.871 412.21 324.641 411.38 325.761 411.38C326.881 411.38 327.641 412.21 327.641 413.37C327.641 414.52 326.871 415.35 325.761 415.35ZM332.371 410.62C331.501 410.62 330.801 411.03 330.381 411.7V410.73H329.591V417.79H330.441V415.14C330.861 415.75 331.531 416.11 332.351 416.11C333.851 416.11 334.951 414.94 334.951 413.37C334.951 411.8 333.871 410.62 332.371 410.62ZM332.261 415.36C331.161 415.36 330.401 414.54 330.401 413.37C330.401 412.2 331.171 411.37 332.261 411.37C333.321 411.37 334.101 412.22 334.101 413.37C334.101 414.51 333.311 415.36 332.261 415.36ZM336.476 409.76C336.856 409.76 337.146 409.49 337.146 409.11C337.146 408.72 336.856 408.44 336.476 408.44C336.096 408.44 335.806 408.72 335.806 409.11C335.806 409.49 336.096 409.76 336.476 409.76ZM336.056 416H336.906V410.73H336.056V416ZM340.642 409.26H340.962V408.58H340.612C339.402 408.58 338.712 409.3 338.712 410.51V410.73H337.752V411.46H338.712V416H339.562V411.46H340.942V410.73H339.562V410.43C339.562 409.68 339.972 409.26 340.642 409.26ZM345.509 410.73L343.729 415.28L342.029 410.73H341.139L343.199 416H343.429L342.679 417.79H343.519L346.399 410.73H345.509Z" fill="#0C0E12"/>
<path d="M349.425 413.52H353.325V413.34H349.425V413.52ZM358.723 415.28V409.05H357.873V410H356.743V410.71H357.873V415.28H356.703V416H359.663V415.28H358.723ZM362.566 411.74H361.576L361.686 409.73H364.586V409.05H360.956L360.776 412.43H362.536C363.486 412.43 364.126 413.06 364.126 413.91C364.126 414.77 363.486 415.38 362.556 415.38C361.776 415.38 361.146 414.95 360.956 414.22L360.176 414.53C360.496 415.55 361.366 416.11 362.546 416.11C364.036 416.11 364.996 415.21 364.996 413.92C364.996 412.62 364.016 411.74 362.566 411.74ZM368.855 416.11C370.655 416.11 371.805 414.74 371.805 412.53C371.805 410.28 370.665 408.96 368.855 408.96C367.055 408.96 365.895 410.27 365.895 412.53C365.895 414.75 367.055 416.11 368.855 416.11ZM368.855 415.3C367.595 415.3 366.765 414.28 366.765 412.53C366.765 410.78 367.595 409.77 368.855 409.77C370.105 409.77 370.935 410.79 370.935 412.53C370.935 414.27 370.105 415.3 368.855 415.3ZM376.759 412.94H374.799V410.89H374.599V412.94H372.639V413.14H374.599V415.33H374.799V413.14H376.759V412.94ZM380.84 411.5V410.73H380.04V416H380.89V412.82C380.89 412.07 381.56 411.42 382.52 411.41V410.62C381.78 410.62 381.18 411.01 380.84 411.5ZM383.636 413.68H388.016C388.026 413.58 388.036 413.4 388.036 413.25C388.036 411.86 387.026 410.61 385.436 410.61C383.946 410.61 382.776 411.84 382.776 413.37C382.776 414.94 383.876 416.12 385.496 416.12C386.746 416.12 387.476 415.58 387.866 414.83L387.126 414.38C386.866 414.99 386.386 415.32 385.526 415.32C384.556 415.32 383.786 414.66 383.636 413.68ZM383.646 412.94C383.806 411.94 384.576 411.35 385.466 411.35C386.346 411.35 387.036 411.95 387.166 412.94H383.646ZM392.667 410.73L390.927 415.16L389.187 410.73H388.297L390.447 416H391.407L393.557 410.73H392.667ZM394.767 409.76C395.147 409.76 395.437 409.49 395.437 409.11C395.437 408.72 395.147 408.44 394.767 408.44C394.387 408.44 394.097 408.72 394.097 409.11C394.097 409.49 394.387 409.76 394.767 409.76ZM394.347 416H395.197V410.73H394.347V416ZM397.093 413.68H401.473C401.483 413.58 401.493 413.4 401.493 413.25C401.493 411.86 400.483 410.61 398.893 410.61C397.403 410.61 396.233 411.84 396.233 413.37C396.233 414.94 397.333 416.12 398.953 416.12C400.203 416.12 400.933 415.58 401.323 414.83L400.583 414.38C400.323 414.99 399.843 415.32 398.983 415.32C398.013 415.32 397.243 414.66 397.093 413.68ZM397.103 412.94C397.263 411.94 398.033 411.35 398.923 411.35C399.803 411.35 400.493 411.95 400.623 412.94H397.103ZM408.512 410.73L407.412 415.13L406.132 410.73H405.182L403.902 415.15L402.792 410.73H401.912L403.352 416H404.362L405.652 411.69L406.962 416H407.962L409.402 410.73H408.512ZM411.867 416.11C413.117 416.11 413.947 415.53 413.947 414.53C413.947 412.6 410.897 413.22 410.897 412.04C410.897 411.61 411.247 411.34 411.857 411.34C412.387 411.34 412.767 411.56 412.937 412.03L413.747 411.71C413.517 411.01 412.827 410.62 411.867 410.62C410.707 410.62 409.957 411.18 409.957 412.09C409.957 413.9 412.987 413.33 412.987 414.6C412.987 415.09 412.557 415.37 411.897 415.37C411.167 415.37 410.677 415.05 410.507 414.51L409.697 414.83C409.977 415.67 410.777 416.11 411.867 416.11Z" fill="#676E77"/>
<g opacity="0.75">
<path fill-rule="evenodd" clip-rule="evenodd" d="M207 489.872H209.647V499.511H214.546V501.953H207V489.872ZM216.987 489.693C217.802 489.693 218.463 490.354 218.463 491.168C218.463 491.983 217.802 492.642 216.987 492.642C216.174 492.642 215.512 491.983 215.512 491.168C215.512 490.354 216.174 489.693 216.987 489.693ZM215.715 501.949V493.762H218.259V501.949H215.715ZM228.892 489.871H231.435V497.091L234.315 493.759H237.433L234.097 497.549L237.363 501.953H234.166L231.468 497.906H231.435V501.953H228.892V489.871ZM219.666 493.764H222.108V494.883H222.142C222.48 494.238 223.312 493.56 224.549 493.56C227.127 493.56 227.602 495.256 227.602 497.46V501.95H225.058V497.969C225.058 497.019 225.041 495.799 223.735 495.799C222.412 495.799 222.209 496.833 222.209 497.901V501.95H219.666V493.764ZM244.94 500.532C244.126 501.567 242.787 502.161 241.463 502.161C238.92 502.161 236.885 500.464 236.885 497.836C236.885 495.208 238.92 493.513 241.463 493.513C243.839 493.513 245.33 495.208 245.33 497.836V498.633H239.429C239.631 499.6 240.361 500.227 241.345 500.227C242.176 500.227 242.735 499.803 243.16 499.227L244.94 500.532ZM242.787 496.904C242.803 496.056 242.142 495.344 241.226 495.344C240.107 495.344 239.496 496.107 239.429 496.904H242.787ZM255.004 501.948H252.664V500.863H252.63C252.239 501.456 251.257 502.152 250.103 502.152C247.661 502.152 246.05 500.389 246.05 497.896C246.05 495.606 247.474 493.504 249.814 493.504C250.867 493.504 251.85 493.792 252.426 494.589H252.46V489.871H255.004V501.948ZM250.628 495.742C249.357 495.742 248.594 496.591 248.594 497.827C248.594 499.066 249.357 499.913 250.628 499.913C251.9 499.913 252.664 499.066 252.664 497.827C252.664 496.591 251.9 495.742 250.628 495.742ZM273.434 487.334C274.134 487.334 274.704 487.888 274.704 488.571V503.252C274.704 503.935 274.134 504.49 273.434 504.49H258.814C258.116 504.49 257.548 503.935 257.548 503.252V488.571C257.548 487.888 258.116 487.334 258.814 487.334H273.434ZM261.364 489.696C260.549 489.696 259.889 490.357 259.889 491.171C259.889 491.986 260.549 492.647 261.364 492.647C262.178 492.647 262.839 491.986 262.839 491.171C262.839 490.357 262.178 489.696 261.364 489.696ZM260.092 501.953H262.636V493.766H260.092V501.953ZM264.232 493.766V501.953H266.775V497.903C266.775 496.835 266.978 495.801 268.302 495.801C269.607 495.801 269.624 497.022 269.624 497.972V501.953H272.167V497.462C272.167 495.258 271.691 493.562 269.114 493.562C267.877 493.562 267.047 494.241 266.707 494.885H266.673V493.766H264.232Z" fill="#9B9FA5"/>
<path fill-rule="evenodd" clip-rule="evenodd" d="M355.749 488.632H353.645V491.228H352.511V493.102H353.645V499.661H355.749V493.102H356.9V491.228H355.749V488.632ZM350.538 487.432C349.766 487.432 349.157 488.04 349.157 488.829C349.157 489.601 349.766 490.21 350.538 490.21C351.344 490.21 351.952 489.601 351.952 488.829C351.952 488.04 351.344 487.432 350.538 487.432ZM383.987 491.032C383.626 491.032 383.346 490.752 383.346 490.39C383.346 490.045 383.626 489.766 383.987 489.766C384.333 489.766 384.612 490.045 384.612 490.39C384.612 490.752 384.333 491.032 383.987 491.032ZM383.987 489.667C383.577 489.667 383.248 489.996 383.248 490.39C383.248 490.801 383.577 491.13 383.987 491.13C384.382 491.13 384.711 490.801 384.711 490.39C384.711 489.996 384.382 489.667 383.987 489.667ZM359.348 494.565C359.628 493.448 360.483 492.823 361.584 492.823C362.685 492.823 363.507 493.431 363.77 494.565H359.348ZM361.633 490.965C359.102 490.965 357.179 492.905 357.179 495.486C357.179 498.033 358.938 499.907 361.666 499.907C363.178 499.907 364.526 499.349 365.512 498.296L364.099 496.9C363.408 497.557 362.669 498.033 361.715 498.033C360.565 498.033 359.694 497.376 359.398 496.275H365.956V495.765C365.956 492.889 364.181 490.965 361.633 490.965ZM380.256 490.965C379.22 490.965 378.333 491.36 377.708 492.034V487.662H375.604V499.66H377.708V495.075C377.708 493.859 378.481 493.02 379.763 493.02C380.963 493.02 381.621 493.76 381.621 495.075V499.66H383.724V494.697C383.724 492.363 382.261 490.965 380.256 490.965ZM383.823 490.374V490.11H383.987C384.119 490.11 384.169 490.16 384.169 490.243C384.169 490.325 384.119 490.374 383.987 490.374H383.823ZM384.267 490.243C384.267 490.078 384.152 490.012 383.987 490.012H383.724V490.768H383.823V490.472H383.987L384.169 490.768H384.283L384.086 490.456C384.202 490.439 384.267 490.374 384.267 490.243ZM371.183 493.004C372.07 493.004 372.794 493.464 373.353 494.105L374.815 492.659C373.994 491.623 372.695 490.965 371.216 490.965C368.669 490.965 366.663 492.905 366.663 495.436C366.663 497.968 368.669 499.907 371.216 499.907C372.695 499.907 373.994 499.249 374.815 498.215L373.353 496.768C372.81 497.393 372.07 497.869 371.167 497.869C369.818 497.869 368.783 496.817 368.783 495.436C368.783 494.055 369.818 493.004 371.183 493.004ZM349.503 499.66H351.607V491.228H349.503V499.66ZM334.282 497.869C332.934 497.869 331.865 496.801 331.865 495.42C331.865 494.055 332.934 493.004 334.282 493.004C335.646 493.004 336.715 494.055 336.715 495.436C336.715 496.817 335.646 497.869 334.282 497.869ZM334.282 490.965C331.734 490.965 329.729 492.905 329.729 495.436C329.729 497.968 331.734 499.907 334.282 499.907C336.83 499.907 338.835 497.968 338.835 495.436C338.835 492.905 336.83 490.965 334.282 490.965ZM326.803 499.66H328.908V487.662H326.803V499.66ZM344.111 497.869C342.764 497.869 341.695 496.801 341.695 495.42C341.695 494.055 342.764 493.004 344.111 493.004C345.476 493.004 346.544 494.055 346.544 495.436C346.544 496.817 345.476 497.869 344.111 497.869ZM348.582 492.905V491.228H345.623C345.147 491.065 344.638 490.965 344.111 490.965C341.564 490.965 339.559 492.905 339.559 495.436C339.559 497.968 341.564 499.907 344.111 499.907C346.659 499.907 348.665 497.968 348.665 495.436C348.665 494.582 348.434 493.744 347.974 493.119L348.582 492.905ZM344.111 502.652C342.764 502.652 341.695 501.6 341.695 500.236H339.559C339.559 502.767 341.564 504.706 344.111 504.706C346.659 504.706 348.665 502.767 348.665 500.236H346.528C346.528 501.6 345.459 502.652 344.111 502.652Z" fill="#9B9FA5"/>
<path fill-rule="evenodd" clip-rule="evenodd" d="M450.739 494.507C450.74 494.475 450.74 494.388 450.74 494.507H450.739ZM447.576 490.369C447.119 489.94 446.579 489.595 445.98 489.358C445.407 489.131 444.781 489.006 444.125 489.006C442.733 489.006 441.481 489.567 440.578 490.474C439.671 491.385 439.112 492.647 439.112 494.044C439.112 495.442 439.671 496.705 440.578 497.617C441.482 498.525 442.734 499.087 444.125 499.087C444.388 499.087 443.982 499.092 444.202 499.09C445.569 499.075 446.71 498.656 447.496 497.887C448.11 497.286 448.523 496.457 448.674 495.423H444.18V493.417H450.725L450.736 494.412C450.736 494.464 450.737 494.493 450.737 494.507H450.736C450.736 496.546 450.061 498.176 448.899 499.313C447.738 500.449 446.115 501.068 444.218 501.088C444.166 501.089 444.138 501.089 444.125 501.09V501.091C444.157 501.092 444.249 501.093 444.125 501.093C442.183 501.093 440.43 500.303 439.16 499.028C437.889 497.75 437.105 495.988 437.105 494.044C437.105 492.1 437.889 490.339 439.159 489.063C440.429 487.788 442.182 487 444.125 487C445.039 487 445.913 487.175 446.716 487.493C447.547 487.821 448.302 488.306 448.947 488.912L447.576 490.369ZM457.866 494.637C457.395 494.151 456.744 493.85 456.024 493.85C455.303 493.85 454.652 494.151 454.181 494.637C453.71 495.124 453.418 495.8 453.418 496.549C453.418 497.299 453.71 497.975 454.181 498.462C454.652 498.947 455.303 499.248 456.024 499.248C456.744 499.248 457.395 498.947 457.866 498.462C458.338 497.975 458.629 497.299 458.629 496.549C458.629 495.8 458.338 495.124 457.866 494.637ZM456.024 492.046C457.28 492.046 458.419 492.552 459.244 493.369C460.068 494.185 460.578 495.31 460.578 496.549C460.578 497.788 460.068 498.913 459.244 499.729C458.419 500.547 457.28 501.052 456.024 501.052C454.767 501.052 453.628 500.547 452.804 499.729C451.98 498.913 451.47 497.788 451.47 496.549C451.47 495.31 451.98 494.185 452.804 493.369C453.628 492.552 454.767 492.046 456.024 492.046ZM467.661 494.637C467.19 494.151 466.538 493.85 465.818 493.85C465.098 493.85 464.446 494.151 463.976 494.637C463.504 495.124 463.213 495.8 463.213 496.549C463.213 497.299 463.504 497.975 463.976 498.462C464.446 498.947 465.098 499.248 465.818 499.248C466.538 499.248 467.19 498.947 467.661 498.462C468.132 497.975 468.424 497.299 468.424 496.549C468.424 495.8 468.132 495.124 467.661 494.637ZM465.818 492.046C467.075 492.046 468.213 492.552 469.038 493.369C469.862 494.185 470.372 495.31 470.372 496.549C470.372 497.788 469.862 498.913 469.038 499.729C468.213 500.547 467.075 501.052 465.818 501.052C464.561 501.052 463.423 500.547 462.598 499.729C461.774 498.913 461.264 497.788 461.264 496.549C461.264 495.31 461.774 494.185 462.598 493.369C463.423 492.552 464.561 492.046 465.818 492.046ZM477.29 494.637C476.841 494.151 476.221 493.85 475.535 493.85C474.848 493.85 474.228 494.151 473.779 494.637C473.33 495.124 473.053 495.8 473.053 496.549C473.053 498.064 474.074 499.298 475.535 499.298C476.221 499.298 476.841 498.947 477.29 498.462C477.739 497.975 478.017 497.299 478.017 496.549C478.017 495.8 477.739 495.124 477.29 494.637ZM475.19 492.046C476.416 492.046 477.16 492.436 477.828 493.084V492.3H479.69V500.879C479.69 502.076 479.128 503.374 478.366 504.05C477.633 504.702 476.648 505.114 475.673 505.114C474.782 505.114 473.888 504.942 473.106 504.461C472.411 504.033 471.818 503.394 471.411 502.494L473.119 501.724C473.602 502.794 474.323 503.345 475.673 503.345C476.629 503.345 477.828 502.458 477.828 500.998V500.012C477.149 500.661 476.38 501.052 475.381 501.052C474.244 501.052 473.023 500.547 472.277 499.729C471.531 498.913 471.07 497.788 471.07 496.549C471.07 494.046 473.137 492.046 475.19 492.046ZM480.894 500.794V487.58H482.816V500.794H480.894ZM485.941 497.916C486.698 499.719 489.365 499.739 490.376 498.055L491.898 499.075C490.966 500.442 489.608 501.081 488.128 501.09C486.811 501.091 485.751 500.597 484.958 499.798C483.022 497.843 483.437 494.844 484.778 493.423C485.873 492.263 487.561 491.674 489.302 492.306C490.433 492.717 491.351 493.712 492.022 495.441C489.994 496.263 487.973 497.098 485.941 497.916ZM485.635 496.392L489.73 494.743C489.007 493.814 487.957 493.364 486.574 494.308C486.041 494.757 485.575 495.525 485.635 496.392Z" fill="#9B9FA5"/>
<path fill-rule="evenodd" clip-rule="evenodd" d="M550.526 489.593V491.581H549.425C549.425 491.581 548.431 491.439 548.431 492.397V493.959H550.526L550.277 496.117H548.431V502.159H546.018V496.089H544.385V493.959H546.088V492.149C546.088 492.149 545.876 491.155 546.763 490.338C547.65 489.522 548.822 489.593 548.822 489.593H550.526ZM556.216 498.911V497.349C556.216 496.526 555.516 495.752 554.653 495.752C553.789 495.752 553.089 496.526 553.089 497.349V498.911C553.089 499.734 553.789 500.508 554.653 500.508C555.516 500.508 556.216 499.734 556.216 498.911ZM556.346 493.995H558.672V502.159H556.347L556.363 501.106C555.746 501.93 554.878 502.443 553.916 502.443C552.044 502.443 550.526 500.774 550.526 498.103C550.526 495.414 552.044 493.764 553.916 493.764C554.869 493.764 555.73 494.267 556.346 495.078V493.995ZM577.795 497.296V498.857C577.795 499.681 578.495 500.455 579.358 500.455C580.221 500.455 580.921 499.681 580.921 498.857V497.296C580.921 496.472 580.221 495.698 579.358 495.698C578.495 495.698 577.795 496.472 577.795 497.296ZM577.665 502.212L575.245 502.175V489.981L577.663 489.709L577.647 495.101C578.264 494.277 579.133 493.764 580.095 493.764C581.967 493.764 583.485 495.432 583.485 498.103C583.485 500.792 581.967 502.443 580.095 502.443C579.142 502.443 578.281 501.939 577.665 501.129V502.212ZM563.926 500.463C565.186 500.48 565.63 500.037 565.63 500.037L566.215 501.794C565.204 502.539 562.151 502.663 560.784 501.403C559.602 500.313 559.602 498.546 559.624 498.089C559.602 497.633 559.602 495.866 560.784 494.775C562.151 493.515 565.204 493.639 566.215 494.385L565.63 496.142C565.63 496.142 565.186 495.698 563.926 495.716C563.926 495.716 562.062 495.61 562.062 498.023V498.155C562.062 500.569 563.926 500.463 563.926 500.463ZM569.002 497.313H572.019C572.019 497.313 572.143 495.503 570.511 495.503C568.878 495.503 569.002 497.313 569.002 497.313ZM574.238 498.964H569.037C569.037 498.964 568.931 500.419 570.351 500.544C571.771 500.668 573.563 500.118 573.563 500.118L574.078 501.768C574.078 501.768 572.392 502.62 570.173 502.354C567.955 502.088 566.659 501.271 566.553 498.449C566.553 498.449 565.878 493.797 570.546 493.825C575.214 493.852 574.238 498.964 574.238 498.964ZM589.878 498.867V497.306C589.878 496.482 589.16 495.708 588.274 495.708C587.388 495.708 586.67 496.482 586.67 497.306V498.867C586.67 499.691 587.388 500.465 588.274 500.465C589.16 500.465 589.878 499.691 589.878 498.867ZM588.295 493.875C591.196 493.875 592.356 495.793 592.356 498.159C592.356 500.936 590.538 502.443 588.295 502.443C585.551 502.443 584.233 500.759 584.233 498.159C584.233 495.708 585.256 493.875 588.295 493.875ZM598.846 498.867V497.306C598.846 496.482 598.128 495.708 597.242 495.708C596.357 495.708 595.638 496.482 595.638 497.306V498.867C595.638 499.691 596.357 500.465 597.242 500.465C598.128 500.465 598.846 499.691 598.846 498.867ZM597.263 493.875C600.164 493.875 601.324 495.793 601.324 498.159C601.324 500.936 599.506 502.443 597.263 502.443C594.52 502.443 593.202 500.759 593.202 498.159C593.202 495.708 594.224 493.875 597.263 493.875ZM609.84 502.194H607.323L604.648 498.013V502.194H602.209V489.922L604.648 489.666V497.653L607.126 493.973H609.722L607.185 498.084L609.84 502.194Z" fill="#9B9FA5"/>
<path fill-rule="evenodd" clip-rule="evenodd" d="M682.8 490.681H679.512V494.964H676.087V490.681H672.797V501.458H676.087V497.218H679.512V501.458H682.8V490.681ZM694.246 499.293V490.681H690.956V501.458H696.905L697.4 499.293H694.246ZM685.234 501.458H688.523V490.681H685.234V501.458ZM698.572 501.458H701.861V490.681H698.572V501.458ZM718.082 493.431C718.082 492.845 718.668 492.574 719.614 492.574C720.65 492.574 721.778 492.799 722.543 493.116L722.273 490.771C721.417 490.591 720.65 490.455 719.254 490.455C716.595 490.455 714.793 491.504 714.793 493.703C714.793 497.489 719.931 496.724 719.931 498.482C719.931 499.158 719.434 499.518 718.217 499.518C717.138 499.518 715.468 499.158 714.478 498.662L714.839 501.143C715.83 501.503 717.181 501.684 718.263 501.684C721.011 501.684 723.265 500.781 723.265 498.075C723.265 494.469 718.082 495.145 718.082 493.431ZM708.802 498.888C711.864 498.888 713.802 497.309 713.802 494.559C713.802 491.537 711.73 490.455 708.349 490.455C707.043 490.455 705.465 490.545 704.339 490.681V501.458H707.63V498.888H708.802ZM710.557 494.604C710.557 496.001 709.882 496.948 708.17 496.948H707.63V492.496C707.821 492.485 708.001 492.485 708.17 492.485C709.791 492.485 710.557 493.251 710.557 494.604ZM666.489 498.888C669.553 498.888 671.49 497.308 671.49 494.558C671.49 491.537 669.417 490.455 666.039 490.455C664.732 490.455 663.154 490.545 662.029 490.681V501.458H665.317V498.888H666.489ZM668.247 494.604C668.247 496.001 667.571 496.948 665.859 496.948H665.317V492.496C665.51 492.485 665.69 492.485 665.859 492.485C667.48 492.485 668.247 493.251 668.247 494.604Z" fill="#9B9FA5"/>
<path fill-rule="evenodd" clip-rule="evenodd" d="M805.178 500.085C802.385 502.146 798.336 503.242 794.849 503.242C789.962 503.242 785.561 501.436 782.23 498.429C781.969 498.193 782.202 497.87 782.516 498.053C786.109 500.144 790.553 501.403 795.142 501.403C798.238 501.403 801.641 500.761 804.773 499.432C805.245 499.232 805.641 499.744 805.178 500.085ZM806.341 498.758C805.984 498.301 803.979 498.541 803.079 498.649C802.806 498.682 802.764 498.444 803.01 498.271C804.608 497.148 807.228 497.472 807.533 497.848C807.84 498.227 807.453 500.854 805.954 502.107C805.723 502.3 805.504 502.198 805.606 501.943C805.944 501.101 806.698 499.216 806.341 498.758ZM803.142 490.337V489.246C803.143 489.08 803.268 488.97 803.419 488.97L808.31 488.969C808.466 488.969 808.592 489.083 808.592 489.245L808.592 490.181C808.59 490.338 808.458 490.543 808.223 490.868L805.69 494.485C806.63 494.463 807.625 494.603 808.48 495.084C808.672 495.192 808.724 495.352 808.739 495.51V496.674C808.739 496.834 808.564 497.02 808.379 496.924C806.874 496.135 804.876 496.049 803.212 496.933C803.041 497.024 802.863 496.841 802.863 496.68V495.573C802.863 495.396 802.867 495.093 803.045 494.823L805.98 490.613L803.425 490.612C803.269 490.612 803.143 490.501 803.142 490.337ZM785.302 497.153H783.814C783.673 497.144 783.559 497.037 783.548 496.901L783.549 489.265C783.549 489.112 783.678 488.99 783.836 488.99L785.222 488.989C785.367 488.997 785.483 489.107 785.492 489.246V490.243H785.52C785.881 489.279 786.562 488.829 787.479 488.829C788.409 488.829 788.993 489.279 789.409 490.243C789.77 489.279 790.59 488.829 791.465 488.829C792.09 488.829 792.77 489.086 793.187 489.664C793.659 490.307 793.562 491.239 793.562 492.059L793.561 496.878C793.561 497.03 793.432 497.153 793.274 497.153H791.788C791.638 497.143 791.521 497.025 791.521 496.879L791.52 492.83C791.52 492.509 791.548 491.705 791.479 491.4C791.368 490.886 791.034 490.741 790.604 490.741C790.243 490.741 789.867 490.982 789.715 491.368C789.562 491.754 789.576 492.396 789.576 492.83V496.878C789.576 497.03 789.447 497.153 789.289 497.153H787.803C787.653 497.143 787.536 497.025 787.536 496.879L787.534 492.83C787.534 491.979 787.673 490.725 786.618 490.725C785.548 490.725 785.59 491.946 785.59 492.83L785.589 496.878C785.589 497.03 785.461 497.153 785.302 497.153ZM812.816 490.388C811.718 490.388 811.649 491.882 811.649 492.814C811.649 493.746 811.635 495.739 812.802 495.739C813.955 495.739 814.01 494.132 814.01 493.152C814.01 492.509 813.983 491.737 813.788 491.127C813.621 490.596 813.288 490.388 812.816 490.388ZM812.802 488.829C815.011 488.829 816.205 490.725 816.205 493.135C816.205 495.465 814.886 497.314 812.802 497.314C810.635 497.314 809.455 495.417 809.455 493.055C809.455 490.677 810.649 488.829 812.802 488.829ZM819.069 497.153H817.586C817.437 497.143 817.319 497.025 817.319 496.879L817.317 489.239C817.329 489.1 817.453 488.99 817.603 488.99L818.983 488.989C819.113 488.996 819.22 489.085 819.247 489.203V490.371H819.275C819.692 489.327 820.275 488.829 821.303 488.829C821.969 488.829 822.622 489.07 823.039 489.729C823.428 490.339 823.428 491.368 823.428 492.107V496.912C823.411 497.048 823.29 497.153 823.143 497.153H821.651C821.514 497.144 821.403 497.043 821.386 496.912V492.766C821.386 491.93 821.484 490.709 820.456 490.709C820.094 490.709 819.761 490.95 819.595 491.32C819.386 491.786 819.358 492.252 819.358 492.766V496.878C819.356 497.03 819.227 497.153 819.069 497.153ZM824.361 496.547C824.361 496.163 824.689 495.851 825.093 495.851C825.498 495.851 825.825 496.163 825.825 496.547C825.825 496.931 825.498 497.242 825.093 497.242C824.689 497.242 824.361 496.931 824.361 496.547ZM840.125 497.155C839.97 497.15 839.847 497.03 839.847 496.88V489.243C839.858 489.108 839.971 489.001 840.114 488.992L840.66 488.991C840.81 488.991 840.933 489.101 840.946 489.243V490.356C841.334 489.474 842.057 488.783 842.972 488.783L843.029 488.784L843.085 488.783C844.055 488.783 844.765 489.499 845.028 490.538C845.44 489.512 846.214 488.783 847.236 488.783L847.289 488.784L847.348 488.783C848.07 488.783 848.765 489.249 849.126 489.956C849.473 490.631 849.459 491.531 849.459 492.286L849.459 496.881C849.459 497.027 849.342 497.145 849.192 497.155H848.538C848.398 497.151 848.282 497.05 848.264 496.918V492.286C848.264 491.74 848.291 491.161 848.069 490.663C847.842 490.153 847.41 489.836 846.944 489.813C846.425 489.838 845.948 490.215 845.64 490.727C845.237 491.386 845.251 491.981 845.251 492.752V496.92C845.233 497.047 845.123 497.146 844.987 497.155H844.336C844.182 497.15 844.058 497.03 844.058 496.88L844.055 491.981C844.055 491.531 844.028 491 843.819 490.598C843.579 490.136 843.148 489.836 842.697 489.813C842.228 489.839 841.754 490.197 841.473 490.615C841.112 491.145 841.043 491.804 841.043 492.479L841.042 496.881C841.042 497.027 840.924 497.145 840.775 497.155H840.125ZM835.797 496.27C836.491 496.248 837.039 495.817 837.363 495.098C837.655 494.455 837.71 493.716 837.71 493.009C837.71 492.238 837.627 491.434 837.266 490.775C836.943 490.199 836.385 489.834 835.794 489.812C835.137 489.836 834.55 490.281 834.253 490.968C833.99 491.563 833.906 492.35 833.906 493.009C833.906 493.748 834.004 494.6 834.309 495.243C834.606 495.852 835.178 496.248 835.797 496.27ZM835.641 497.316C833.53 497.316 832.586 495.162 832.586 493.009C832.586 490.743 833.697 488.783 835.822 488.783L835.876 488.783L835.934 488.783C838.003 488.783 839.031 490.872 839.031 493.025C839.031 495.307 837.892 497.316 835.753 497.316L835.699 497.315L835.641 497.316ZM829.044 496.238C829.992 496.208 830.489 495.449 830.696 494.464C830.736 494.342 830.83 494.247 830.968 494.247L831.595 494.244C831.743 494.252 831.879 494.365 831.868 494.503C831.578 496.178 830.567 497.316 829.126 497.316L829.068 497.315L829.014 497.316C826.917 497.316 826.014 495.211 826.014 493.073C826.014 490.952 826.931 488.783 829.028 488.783L829.083 488.783L829.14 488.783C830.596 488.783 831.634 489.904 831.86 491.58C831.86 491.706 831.743 491.815 831.606 491.831L830.949 491.823C830.813 491.803 830.723 491.685 830.702 491.553C830.544 490.618 830.006 489.874 829.111 489.844C827.685 489.89 827.279 491.645 827.279 492.993C827.279 494.294 827.618 496.191 829.044 496.238ZM800.744 497.134C800.645 497.222 800.503 497.228 800.392 497.168C799.898 496.758 799.809 496.568 799.539 496.177C798.722 497.009 798.144 497.258 797.086 497.258C795.834 497.258 794.859 496.485 794.859 494.939C794.859 493.731 795.513 492.91 796.446 492.507C797.253 492.153 798.381 492.089 799.244 491.992V491.799C799.244 491.444 799.271 491.026 799.063 490.72C798.882 490.446 798.534 490.333 798.227 490.333C797.66 490.333 797.156 490.624 797.031 491.227C797.006 491.361 796.908 491.493 796.773 491.5L795.331 491.344C795.209 491.317 795.074 491.219 795.109 491.033C795.44 489.283 797.02 488.755 798.436 488.755C799.16 488.755 800.107 488.948 800.677 489.496C801.401 490.172 801.331 491.074 801.331 492.056V494.375C801.331 495.072 801.621 495.378 801.893 495.754C801.988 495.889 802.01 496.05 801.888 496.149C801.584 496.403 801.044 496.873 800.747 497.137L800.744 497.134ZM799.243 493.506V493.184C798.167 493.184 797.03 493.415 797.03 494.682C797.03 495.326 797.364 495.761 797.935 495.761C798.353 495.761 798.728 495.503 798.965 495.084C799.257 494.569 799.243 494.086 799.243 493.506ZM781.239 497.134C781.14 497.223 780.998 497.229 780.887 497.169C780.393 496.758 780.304 496.568 780.034 496.177C779.217 497.009 778.639 497.259 777.581 497.259C776.328 497.259 775.354 496.486 775.354 494.94C775.354 493.732 776.008 492.911 776.941 492.508C777.748 492.154 778.876 492.089 779.738 491.993V491.799C779.738 491.445 779.766 491.026 779.558 490.72C779.377 490.447 779.028 490.334 778.722 490.334C778.155 490.334 777.65 490.625 777.526 491.227C777.501 491.361 777.403 491.494 777.268 491.501L775.826 491.345C775.704 491.317 775.569 491.22 775.604 491.034C775.935 489.284 777.515 488.755 778.931 488.755C779.655 488.755 780.601 488.949 781.172 489.496C781.896 490.173 781.826 491.075 781.826 492.057V494.375C781.826 495.072 782.116 495.378 782.388 495.754C782.483 495.889 782.504 496.05 782.383 496.149C782.079 496.404 781.539 496.873 781.242 497.138L781.239 497.134ZM779.738 493.506V493.184C778.662 493.184 777.525 493.415 777.525 494.682C777.525 495.326 777.859 495.761 778.43 495.761C778.847 495.761 779.223 495.503 779.46 495.084C779.752 494.569 779.738 494.086 779.738 493.506Z" fill="#9B9FA5"/>
</g>
<defs>
<filter id="filter0_d_663_2025" x="447" y="84.1864" width="609" height="453" filterUnits="userSpaceOnUse" color-interpolation-filters="sRGB">
<feFlood flood-opacity="0" result="BackgroundImageFix"/>
<feColorMatrix in="SourceAlpha" type="matrix" values="0 0 0 0 0 0 0 0 0 0 0 0 0 0 0 0 0 0 127 0" result="hardAlpha"/>
<feOffset dy="32"/>
<feGaussianBlur stdDeviation="32"/>
<feComposite in2="hardAlpha" operator="out"/>
<feColorMatrix type="matrix" values="0 0 0 0 0.0470588 0 0 0 0 0.054902 0 0 0 0 0.0705882 0 0 0 0.04 0"/>
<feBlend mode="normal" in2="BackgroundImageFix" result="effect1_dropShadow_663_2025"/>
<feBlend mode="normal" in="SourceGraphic" in2="effect1_dropShadow_663_2025" result="shape"/>
</filter>
<filter id="filter1_d_663_2025" x="0" y="336" width="528" height="201" filterUnits="userSpaceOnUse" color-interpolation-filters="sRGB">
<feFlood flood-opacity="0" result="BackgroundImageFix"/>
<feColorMatrix in="SourceAlpha" type="matrix" values="0 0 0 0 0 0 0 0 0 0 0 0 0 0 0 0 0 0 127 0" result="hardAlpha"/>
<feOffset dy="32"/>
<feGaussianBlur stdDeviation="32"/>
<feComposite in2="hardAlpha" operator="out"/>
<feColorMatrix type="matrix" values="0 0 0 0 0.0470588 0 0 0 0 0.054902 0 0 0 0 0.0705882 0 0 0 0.04 0"/>
<feBlend mode="normal" in2="BackgroundImageFix" result="effect1_dropShadow_663_2025"/>
<feBlend mode="normal" in="SourceGraphic" in2="effect1_dropShadow_663_2025" result="shape"/>
</filter>
<clipPath id="clip0_663_2025">
<rect width="639.913" height="36.0485" fill="white" transform="translate(208 56)"/>
</clipPath>
<clipPath id="clip1_663_2025">
<rect width="33.7063" height="119.504" fill="white" transform="translate(682.215 150.186)"/>
</clipPath>
<clipPath id="clip2_663_2025">
<rect width="33.7063" height="81.2015" fill="white" transform="translate(799.421 188.489)"/>
</clipPath>
<clipPath id="clip3_663_2025">
<rect width="33.7063" height="40.6008" fill="white" transform="translate(740.435 229.09)"/>
</clipPath>
<clipPath id="clip4_663_2025">
<rect width="33.7063" height="64.3484" fill="white" transform="translate(857.641 205.342)"/>
</clipPath>
<clipPath id="clip5_663_2025">
<rect width="33.7063" height="45.1971" fill="white" transform="translate(915.861 224.493)"/>
</clipPath>
<clipPath id="clip6_663_2025">
<rect width="29.11" height="12.2568" fill="white" transform="translate(605.224 225.25)"/>
</clipPath>
<clipPath id="clip7_663_2025">
<rect width="432.053" height="103.417" fill="white" transform="translate(535.514 310.186)"/>
</clipPath>
<clipPath id="clip8_663_2025">
<rect width="125.633" height="102.651" fill="white" transform="translate(553.899 310.187)"/>
</clipPath>
<clipPath id="clip9_663_2025">
<rect width="98.0547" height="1.5321" fill="white" transform="translate(553.899 392.154)"/>
</clipPath>
<clipPath id="clip10_663_2025">
<rect width="125.633" height="102.651" fill="white" transform="translate(697.917 310.187)"/>
</clipPath>
<clipPath id="clip11_663_2025">
<rect width="98.0547" height="1.5321" fill="white" transform="translate(697.917 392.154)"/>
</clipPath>
<clipPath id="clip12_663_2025">
<rect width="125.633" height="102.651" fill="white" transform="translate(841.935 310.187)"/>
</clipPath>
<clipPath id="clip13_663_2025">
<rect width="98.0547" height="1.5321" fill="white" transform="translate(843.467 392.154)"/>
</clipPath>
<clipPath id="clip14_663_2025">
<rect width="16.8209" height="16" fill="white" transform="translate(98 396)"/>
</clipPath>
</defs>
</svg>
