<svg width="264" height="144" viewBox="0 0 264 144" fill="none" xmlns="http://www.w3.org/2000/svg">
<rect width="264" height="144" rx="12" fill="#0C0E12" fill-opacity="0.92"/>
<rect x="20" y="20" width="24" height="24" rx="6" fill="#425DF9"/>
<path d="M27.5 27.5H30.5V26H26V30.5H27.5V27.5Z" fill="white"/>
<path d="M33.5 26V27.5H36.5V30.5H38V26H33.5Z" fill="white"/>
<path d="M36.5 36.5H33.5V38H38V33.5H36.5V36.5Z" fill="white"/>
<path d="M27.5 33.5H26V38H30.5V36.5H27.5V33.5Z" fill="white"/>
<path d="M35 29H29V35H35V29Z" fill="white"/>
<path d="M60.448 38.176C62.864 38.176 64.384 36.928 64.384 35.072C64.384 30.912 58.624 32.144 58.624 29.568C58.624 28.752 59.28 28.16 60.48 28.16C61.584 28.16 62.288 28.656 62.608 29.712L64.208 29.104C63.792 27.632 62.496 26.704 60.56 26.704C58.272 26.704 56.928 27.952 56.928 29.712C56.928 33.584 62.672 32.4 62.672 35.12C62.672 36.096 61.872 36.704 60.592 36.704C59.28 36.704 58.352 36.032 58.032 34.848L56.432 35.456C56.928 37.184 58.416 38.176 60.448 38.176ZM67.1767 28.112C67.8647 28.112 68.4087 27.632 68.4087 26.928C68.4087 26.224 67.8647 25.712 67.1767 25.712C66.4887 25.712 65.9447 26.224 65.9447 26.928C65.9447 27.632 66.4887 28.112 67.1767 28.112ZM66.3287 38H68.0247V29.568H66.3287V38ZM71.8704 36.624L76.4304 30.832V29.568H69.9824V30.944H74.3664L69.7744 36.784V38H76.6064V36.624H71.8704ZM79.2766 34.352H86.0766C86.0926 34.192 86.1086 33.888 86.1086 33.6C86.1086 31.424 84.4926 29.376 81.8846 29.376C79.5006 29.376 77.5966 31.344 77.5966 33.792C77.5966 36.304 79.3566 38.192 82.0126 38.192C84.0286 38.192 85.1646 37.344 85.8046 36.224L84.4126 35.344C84.0286 36.224 83.3246 36.688 82.0606 36.688C80.6366 36.688 79.5326 35.792 79.2766 34.352ZM79.2926 33.056C79.5486 31.6 80.6366 30.752 81.9486 30.752C83.2446 30.752 84.2206 31.632 84.4446 33.056H79.2926Z" fill="white"/>
<path d="M26.24 74.66V78.224H22.004V74.66H20.984V83H22.004V79.136H26.24V83H27.26V74.66H26.24ZM29.5845 80.216H34.8405C34.8525 80.096 34.8645 79.88 34.8645 79.7C34.8645 78.032 33.6525 76.532 31.7445 76.532C29.9565 76.532 28.5525 78.008 28.5525 79.844C28.5525 81.728 29.8725 83.144 31.8165 83.144C33.3165 83.144 34.1925 82.496 34.6605 81.596L33.7725 81.056C33.4605 81.788 32.8845 82.184 31.8525 82.184C30.6885 82.184 29.7645 81.392 29.5845 80.216ZM29.5965 79.328C29.7885 78.128 30.7125 77.42 31.7805 77.42C32.8365 77.42 33.6645 78.14 33.8205 79.328H29.5965ZM36.6255 75.512C37.0815 75.512 37.4295 75.188 37.4295 74.732C37.4295 74.264 37.0815 73.928 36.6255 73.928C36.1695 73.928 35.8215 74.264 35.8215 74.732C35.8215 75.188 36.1695 75.512 36.6255 75.512ZM36.1215 83H37.1415V76.676H36.1215V83ZM43.9286 76.676V77.852C43.4486 77.048 42.6206 76.544 41.5646 76.544C39.7646 76.544 38.4446 77.96 38.4446 79.748C38.4446 81.56 39.7526 82.952 41.5646 82.952C42.6206 82.952 43.4486 82.448 43.9286 81.632V82.256C43.9286 83.588 43.0526 84.416 41.6366 84.416C40.5566 84.416 39.7886 83.948 39.4766 83.024L38.6006 83.36C39.0086 84.548 40.0046 85.28 41.6246 85.28C43.6646 85.28 44.8766 84.056 44.8766 82.172V76.676H43.9286ZM41.6606 82.148C40.4006 82.148 39.4646 81.14 39.4646 79.796C39.4646 78.464 40.4126 77.444 41.6846 77.444C42.9686 77.444 43.8686 78.428 43.8686 79.796C43.8686 81.164 42.9566 82.148 41.6606 82.148ZM49.7069 76.544C48.7469 76.544 48.0029 76.964 47.5829 77.516V74.228H46.5629V83H47.5829V79.088C47.5949 78.236 48.3629 77.456 49.4429 77.456C50.5709 77.444 51.2549 78.14 51.2549 79.316V83H52.2749V79.136C52.2749 77.564 51.3269 76.544 49.7069 76.544ZM56.3257 83H57.2497V82.1H56.5057C55.6897 82.1 55.2457 81.62 55.2457 80.768V77.552H57.1537V76.676H55.2817V75.056H54.2977V76.1C54.2977 76.484 54.1177 76.676 53.7337 76.676H53.0737V77.552H54.2257V80.876C54.2257 82.184 54.9577 83 56.3257 83Z" fill="#9B9FA5"/>
<path d="M29.276 102.66L27.692 109.716L25.796 102.66H24.692L22.808 109.74L21.212 102.66H20.204L22.196 111H23.36L25.244 104.064L27.128 111H28.292L30.284 102.66H29.276ZM31.8443 103.512C32.3003 103.512 32.6483 103.188 32.6483 102.732C32.6483 102.264 32.3003 101.928 31.8443 101.928C31.3883 101.928 31.0403 102.264 31.0403 102.732C31.0403 103.188 31.3883 103.512 31.8443 103.512ZM31.3403 111H32.3603V104.676H31.3403V111ZM39.0753 102.228V105.744C38.5713 104.988 37.7553 104.544 36.7473 104.544C34.9593 104.544 33.6633 105.96 33.6633 107.832C33.6633 109.728 34.9713 111.132 36.7713 111.132C37.8153 111.132 38.6553 110.64 39.1473 109.836V111H40.0953V102.228H39.0753ZM36.8913 110.232C35.6193 110.232 34.6713 109.212 34.6713 107.832C34.6713 106.476 35.6193 105.444 36.8913 105.444C38.2113 105.444 39.1113 106.428 39.1113 107.832C39.1113 109.248 38.1993 110.232 36.8913 110.232ZM44.3491 111H45.2731V110.1H44.5291C43.7131 110.1 43.2691 109.62 43.2691 108.768V105.552H45.1771V104.676H43.3051V103.056H42.3211V104.1C42.3211 104.484 42.1411 104.676 41.7571 104.676H41.0971V105.552H42.2491V108.876C42.2491 110.184 42.9811 111 44.3491 111ZM49.3671 104.544C48.4071 104.544 47.6631 104.964 47.2431 105.516V102.228H46.2231V111H47.2431V107.088C47.2551 106.236 48.0231 105.456 49.1031 105.456C50.2311 105.444 50.9151 106.14 50.9151 107.316V111H51.9351V107.136C51.9351 105.564 50.9871 104.544 49.3671 104.544Z" fill="#9B9FA5"/>
<rect x="87" y="78" width="157" height="4" rx="2" fill="#676E77" fill-opacity="0.5"/>
<rect x="87" y="78" width="79" height="4" rx="2" fill="#425DF9"/>
<g filter="url(#filter0_ddd_20_263)">
<path d="M155 80C155 74.4772 159.477 70 165 70V70C170.523 70 175 74.4772 175 80V80C175 85.5228 170.523 90 165 90V90C159.477 90 155 85.5228 155 80V80Z" fill="white"/>
<path d="M165 86C161.686 86 159 83.3137 159 80H151C151 87.732 157.268 94 165 94V86ZM171 80C171 83.3137 168.314 86 165 86V94C172.732 94 179 87.732 179 80H171ZM165 74C168.314 74 171 76.6863 171 80H179C179 72.268 172.732 66 165 66V74ZM165 66C157.268 66 151 72.268 151 80H159C159 76.6863 161.686 74 165 74V66Z" fill="#425DF9"/>
</g>
<rect x="87" y="107" width="157" height="4" rx="2" fill="#676E77" fill-opacity="0.5"/>
<rect x="87" y="107" width="157" height="4" rx="2" fill="#425DF9"/>
<g filter="url(#filter1_ddd_20_263)">
<path d="M224 109C224 103.477 228.477 99 234 99V99C239.523 99 244 103.477 244 109V109C244 114.523 239.523 119 234 119V119C228.477 119 224 114.523 224 109V109Z" fill="white"/>
<path d="M234 115C230.686 115 228 112.314 228 109H220C220 116.732 226.268 123 234 123V115ZM240 109C240 112.314 237.314 115 234 115V123C241.732 123 248 116.732 248 109H240ZM234 103C237.314 103 240 105.686 240 109H248C248 101.268 241.732 95 234 95V103ZM234 95C226.268 95 220 101.268 220 109H228C228 105.686 230.686 103 234 103V95Z" fill="#425DF9"/>
</g>
<defs>
<filter id="filter0_ddd_20_263" x="147" y="63" width="36" height="36" filterUnits="userSpaceOnUse" color-interpolation-filters="sRGB">
<feFlood flood-opacity="0" result="BackgroundImageFix"/>
<feColorMatrix in="SourceAlpha" type="matrix" values="0 0 0 0 0 0 0 0 0 0 0 0 0 0 0 0 0 0 127 0" result="hardAlpha"/>
<feOffset dy="3"/>
<feGaussianBlur stdDeviation="2"/>
<feColorMatrix type="matrix" values="0 0 0 0 0 0 0 0 0 0 0 0 0 0 0 0 0 0 0.08 0"/>
<feBlend mode="normal" in2="BackgroundImageFix" result="effect1_dropShadow_20_263"/>
<feColorMatrix in="SourceAlpha" type="matrix" values="0 0 0 0 0 0 0 0 0 0 0 0 0 0 0 0 0 0 127 0" result="hardAlpha"/>
<feOffset dy="3"/>
<feGaussianBlur stdDeviation="1.5"/>
<feColorMatrix type="matrix" values="0 0 0 0 0 0 0 0 0 0 0 0 0 0 0 0 0 0 0.06 0"/>
<feBlend mode="normal" in2="effect1_dropShadow_20_263" result="effect2_dropShadow_20_263"/>
<feColorMatrix in="SourceAlpha" type="matrix" values="0 0 0 0 0 0 0 0 0 0 0 0 0 0 0 0 0 0 127 0" result="hardAlpha"/>
<feOffset dy="1"/>
<feGaussianBlur stdDeviation="4"/>
<feColorMatrix type="matrix" values="0 0 0 0 0 0 0 0 0 0 0 0 0 0 0 0 0 0 0.1 0"/>
<feBlend mode="normal" in2="effect2_dropShadow_20_263" result="effect3_dropShadow_20_263"/>
<feBlend mode="normal" in="SourceGraphic" in2="effect3_dropShadow_20_263" result="shape"/>
</filter>
<filter id="filter1_ddd_20_263" x="216" y="92" width="36" height="36" filterUnits="userSpaceOnUse" color-interpolation-filters="sRGB">
<feFlood flood-opacity="0" result="BackgroundImageFix"/>
<feColorMatrix in="SourceAlpha" type="matrix" values="0 0 0 0 0 0 0 0 0 0 0 0 0 0 0 0 0 0 127 0" result="hardAlpha"/>
<feOffset dy="3"/>
<feGaussianBlur stdDeviation="2"/>
<feColorMatrix type="matrix" values="0 0 0 0 0 0 0 0 0 0 0 0 0 0 0 0 0 0 0.08 0"/>
<feBlend mode="normal" in2="BackgroundImageFix" result="effect1_dropShadow_20_263"/>
<feColorMatrix in="SourceAlpha" type="matrix" values="0 0 0 0 0 0 0 0 0 0 0 0 0 0 0 0 0 0 127 0" result="hardAlpha"/>
<feOffset dy="3"/>
<feGaussianBlur stdDeviation="1.5"/>
<feColorMatrix type="matrix" values="0 0 0 0 0 0 0 0 0 0 0 0 0 0 0 0 0 0 0.06 0"/>
<feBlend mode="normal" in2="effect1_dropShadow_20_263" result="effect2_dropShadow_20_263"/>
<feColorMatrix in="SourceAlpha" type="matrix" values="0 0 0 0 0 0 0 0 0 0 0 0 0 0 0 0 0 0 127 0" result="hardAlpha"/>
<feOffset dy="1"/>
<feGaussianBlur stdDeviation="4"/>
<feColorMatrix type="matrix" values="0 0 0 0 0 0 0 0 0 0 0 0 0 0 0 0 0 0 0.1 0"/>
<feBlend mode="normal" in2="effect2_dropShadow_20_263" result="effect3_dropShadow_20_263"/>
<feBlend mode="normal" in="SourceGraphic" in2="effect3_dropShadow_20_263" result="shape"/>
</filter>
</defs>
</svg>
