<svg width="264" height="262" viewBox="0 0 264 262" fill="none" xmlns="http://www.w3.org/2000/svg">
<rect width="264" height="262" rx="12" fill="#0C0E12" fill-opacity="0.92"/>
<rect x="20" y="20" width="24" height="24" rx="6" fill="#425DF9"/>
<g clip-path="url(#clip0_20_300)">
<path d="M37.7 31.475L34.025 26.45C33.725 26.15 33.05 25.775 31.775 26.3C31.025 26.6 30.2 27.2 29.45 27.95C28.025 29.375 26.9 31.475 27.95 32.525L32.975 36.2C33.2 36.425 33.5 36.5 33.8 36.5C34.625 36.5 35.675 35.825 36.5 35C37.025 34.475 37.475 33.875 37.775 33.275C38.225 32.3 37.925 31.7 37.7 31.475ZM30.5 29C31.625 27.875 32.6 27.5 32.9 27.5C32.9 27.8 32.525 28.775 31.4 29.9C30.275 31.025 29.3 31.4 29 31.4C29.075 31.025 29.375 30.05 30.5 29Z" fill="white"/>
<path d="M26 36.5C26 35.675 27.5 33.5 27.5 33.5C27.5 33.5 29 35.675 29 36.5C29 37.325 28.325 38 27.5 38C26.675 38 26 37.325 26 36.5Z" fill="white"/>
</g>
<path d="M63.296 32.096C64.288 31.616 64.944 30.704 64.944 29.584C64.944 27.968 63.84 26.88 61.856 26.88H57.216V38H61.744C64.016 38 65.328 36.784 65.328 34.896C65.328 33.552 64.576 32.544 63.296 32.096ZM63.248 29.904C63.248 30.912 62.432 31.552 61.376 31.552H58.896V28.256H61.424C62.64 28.256 63.248 28.928 63.248 29.904ZM61.52 36.624H58.896V32.928H61.504C62.8 32.928 63.632 33.6 63.632 34.768C63.632 35.936 62.864 36.624 61.52 36.624ZM74.0008 29.568V30.992C73.3608 30.032 72.3368 29.488 71.0247 29.488C68.6247 29.488 66.8647 31.28 66.8647 33.776C66.8647 36.304 68.6087 38.192 71.0247 38.192C72.3368 38.192 73.3608 37.6 74.0008 36.624V38H75.5688V29.568H74.0008ZM71.2327 36.688C69.6807 36.688 68.5447 35.456 68.5447 33.776C68.5447 32.128 69.6967 30.88 71.2327 30.88C72.8488 30.88 73.9367 32.08 73.9367 33.776C73.9367 35.488 72.8327 36.688 71.2327 36.688ZM81.8492 38.192C83.9932 38.192 85.3853 36.864 85.8012 35.536L84.2812 34.928C83.9772 36 83.0812 36.672 81.8812 36.672C80.3452 36.672 79.1772 35.52 79.1772 33.792C79.1772 32.064 80.3452 30.912 81.8812 30.912C83.0652 30.912 83.9292 31.584 84.2332 32.672L85.7533 32.064C85.3372 30.704 83.9452 29.392 81.8332 29.392C79.3212 29.392 77.4812 31.296 77.4812 33.792C77.4812 36.32 79.3532 38.192 81.8492 38.192ZM94.8444 38L90.8444 33.456L94.7484 29.568H92.8124L89.1804 33.056V26.304H87.4844V38H89.1804V33.92L92.9564 38H94.8444ZM102.101 29.568V30.912C101.461 29.968 100.437 29.392 99.1254 29.392C96.7254 29.392 94.9654 31.28 94.9654 33.632C94.9654 36 96.7094 37.856 99.1254 37.856C100.437 37.856 101.461 37.264 102.101 36.32V36.992C102.101 38.608 101.013 39.632 99.2534 39.632C97.9414 39.632 96.9814 39.072 96.5814 37.952L95.1414 38.512C95.6854 40.064 97.0134 41.056 99.2374 41.056C102.021 41.056 103.669 39.376 103.669 36.848V29.568H102.101ZM99.3174 36.544C97.7814 36.544 96.6454 35.328 96.6454 33.712C96.6454 32.112 97.7974 30.88 99.3334 30.88C100.901 30.88 102.005 32.08 102.005 33.712C102.005 35.36 100.885 36.544 99.3174 36.544ZM107.646 30.64V29.568H106.046V38H107.742V33.056C107.742 31.872 108.734 30.976 110.238 30.96V29.376C109.134 29.376 108.206 29.92 107.646 30.64ZM115.443 38.192C118.051 38.192 119.891 36.304 119.891 33.792C119.891 31.264 118.051 29.392 115.443 29.392C112.851 29.392 111.011 31.264 111.011 33.792C111.011 36.304 112.851 38.192 115.443 38.192ZM115.459 36.672C113.827 36.672 112.707 35.456 112.707 33.792C112.707 32.096 113.827 30.896 115.459 30.896C117.091 30.896 118.195 32.096 118.195 33.792C118.195 35.472 117.075 36.672 115.459 36.672ZM127.651 29.568V34.768C127.635 35.76 126.787 36.672 125.507 36.672C124.211 36.688 123.395 35.84 123.395 34.576V29.568H121.715V34.784C121.715 36.752 122.883 38.192 125.043 38.192C126.211 38.192 127.171 37.664 127.747 36.928V38H129.331V29.568H127.651ZM136.109 29.376C134.861 29.376 133.901 29.904 133.325 30.64V29.568H131.725V38H133.421V32.864C133.437 31.824 134.365 30.896 135.629 30.896C136.973 30.88 137.805 31.712 137.805 33.104V38H139.501V32.8C139.501 30.736 138.221 29.376 136.109 29.376ZM148.355 26.304V30.736C147.683 29.888 146.675 29.392 145.459 29.392C143.059 29.392 141.347 31.28 141.347 33.776C141.347 36.304 143.091 38.192 145.507 38.192C146.787 38.192 147.827 37.632 148.483 36.688V38H150.051V26.304H148.355ZM145.715 36.688C144.163 36.688 143.027 35.456 143.027 33.776C143.027 32.128 144.179 30.88 145.715 30.88C147.331 30.88 148.419 32.08 148.419 33.776C148.419 35.488 147.315 36.688 145.715 36.688Z" fill="white"/>
<path d="M27.896 224.624V223.832H26.6L27.188 221.66H26.336L25.748 223.832H23.6L24.188 221.66H23.336L22.748 223.832H21.176V224.624H22.52L21.896 226.928H20.348V227.732H21.68L21.056 230H21.92L22.532 227.732H24.68L24.056 230H24.92L25.532 227.732H27.08V226.928H25.76L26.384 224.624H27.896ZM24.896 226.928H22.76L23.384 224.624H25.52L24.896 226.928ZM34.4666 221.66V225.224H30.2306V221.66H29.2106V230H30.2306V226.136H34.4666V230H35.4866V221.66H34.4666ZM37.8111 227.216H43.0671C43.0791 227.096 43.0911 226.88 43.0911 226.7C43.0911 225.032 41.8791 223.532 39.9711 223.532C38.1831 223.532 36.7791 225.008 36.7791 226.844C36.7791 228.728 38.0991 230.144 40.0431 230.144C41.5431 230.144 42.4191 229.496 42.8871 228.596L41.9991 228.056C41.6871 228.788 41.1111 229.184 40.0791 229.184C38.9151 229.184 37.9911 228.392 37.8111 227.216ZM37.8231 226.328C38.0151 225.128 38.9391 224.42 40.0071 224.42C41.0631 224.42 41.8911 225.14 42.0471 226.328H37.8231ZM49.3954 230L46.9234 226.808L49.3114 223.676H48.2074L46.3594 226.088L44.4874 223.676H43.3474L45.7234 226.736L43.1914 230H44.2834L46.2754 227.456L48.2554 230H49.3954Z" fill="#9B9FA5"/>
<rect x="20" y="64" width="224" height="78" rx="8" fill="url(#paint0_linear_20_300)"/>
<rect x="20" y="65" width="224" height="77" fill="url(#paint1_linear_20_300)"/>
<rect x="20" y="65" width="224" height="77" fill="url(#paint2_linear_20_300)"/>
<circle cx="233" cy="128" r="7" stroke="white" stroke-width="2"/>
<rect x="21" y="162" width="223" height="4" rx="2" fill="url(#paint3_linear_20_300)"/>
<g filter="url(#filter0_ddd_20_300)">
<path d="M170 164C170 158.477 174.477 154 180 154V154C185.523 154 190 158.477 190 164V164C190 169.523 185.523 174 180 174V174C174.477 174 170 169.523 170 164V164Z" fill="white"/>
<path d="M180 170C176.686 170 174 167.314 174 164H166C166 171.732 172.268 178 180 178V170ZM186 164C186 167.314 183.314 170 180 170V178C187.732 178 194 171.732 194 164H186ZM180 158C183.314 158 186 160.686 186 164H194C194 156.268 187.732 150 180 150V158ZM180 150C172.268 150 166 156.268 166 164H174C174 160.686 176.686 158 180 158V150Z" fill="#425DF9"/>
</g>
<rect x="21" y="190" width="223" height="4" rx="2" fill="#0C0E12"/>
<rect x="21" y="190" width="223" height="4" rx="2" fill="url(#paint4_linear_20_300)"/>
<g filter="url(#filter1_ddd_20_300)">
<path d="M224 192C224 186.477 228.477 182 234 182V182C239.523 182 244 186.477 244 192V192C244 197.523 239.523 202 234 202V202C228.477 202 224 197.523 224 192V192Z" fill="white"/>
<path d="M234 198C230.686 198 228 195.314 228 192H220C220 199.732 226.268 206 234 206V198ZM240 192C240 195.314 237.314 198 234 198V206C241.732 206 248 199.732 248 192H240ZM234 186C237.314 186 240 188.686 240 192H248C248 184.268 241.732 178 234 178V186ZM234 178C226.268 178 220 184.268 220 192H228C228 188.686 230.686 186 234 186V178Z" fill="#425DF9"/>
</g>
<rect x="84" y="210" width="105" height="32" rx="6" fill="#676E77" fill-opacity="0.24"/>
<path d="M98.176 230.132C100.372 230.132 101.788 228.488 101.788 225.824C101.788 223.124 100.384 221.54 98.176 221.54C95.98 221.54 94.564 223.112 94.564 225.824C94.564 228.5 95.98 230.132 98.176 230.132ZM98.176 228.932C96.784 228.932 95.86 227.804 95.86 225.836C95.86 223.868 96.784 222.74 98.176 222.74C99.568 222.74 100.492 223.868 100.492 225.836C100.492 227.804 99.568 228.932 98.176 228.932ZM106.531 230.132C108.727 230.132 110.143 228.488 110.143 225.824C110.143 223.124 108.739 221.54 106.531 221.54C104.335 221.54 102.919 223.112 102.919 225.824C102.919 228.5 104.335 230.132 106.531 230.132ZM106.531 228.932C105.139 228.932 104.215 227.804 104.215 225.836C104.215 223.868 105.139 222.74 106.531 222.74C107.923 222.74 108.847 223.868 108.847 225.836C108.847 227.804 107.923 228.932 106.531 228.932ZM114.887 230.132C117.083 230.132 118.499 228.488 118.499 225.824C118.499 223.124 117.095 221.54 114.887 221.54C112.691 221.54 111.275 223.112 111.275 225.824C111.275 228.5 112.691 230.132 114.887 230.132ZM114.887 228.932C113.495 228.932 112.571 227.804 112.571 225.836C112.571 223.868 113.495 222.74 114.887 222.74C116.279 222.74 117.203 223.868 117.203 225.836C117.203 227.804 116.279 228.932 114.887 228.932ZM123.242 230.132C125.438 230.132 126.854 228.488 126.854 225.824C126.854 223.124 125.45 221.54 123.242 221.54C121.046 221.54 119.63 223.112 119.63 225.824C119.63 228.5 121.046 230.132 123.242 230.132ZM123.242 228.932C121.85 228.932 120.926 227.804 120.926 225.836C120.926 223.868 121.85 222.74 123.242 222.74C124.634 222.74 125.558 223.868 125.558 225.836C125.558 227.804 124.634 228.932 123.242 228.932ZM131.598 230.132C133.794 230.132 135.21 228.488 135.21 225.824C135.21 223.124 133.806 221.54 131.598 221.54C129.402 221.54 127.986 223.112 127.986 225.824C127.986 228.5 129.402 230.132 131.598 230.132ZM131.598 228.932C130.206 228.932 129.282 227.804 129.282 225.836C129.282 223.868 130.206 222.74 131.598 222.74C132.99 222.74 133.914 223.868 133.914 225.836C133.914 227.804 132.99 228.932 131.598 228.932ZM139.953 230.132C142.149 230.132 143.565 228.488 143.565 225.824C143.565 223.124 142.161 221.54 139.953 221.54C137.757 221.54 136.341 223.112 136.341 225.824C136.341 228.5 137.757 230.132 139.953 230.132ZM139.953 228.932C138.561 228.932 137.637 227.804 137.637 225.836C137.637 223.868 138.561 222.74 139.953 222.74C141.345 222.74 142.269 223.868 142.269 225.836C142.269 227.804 141.345 228.932 139.953 228.932Z" fill="#E2E1E4"/>
<rect x="193" y="210" width="51" height="32" rx="6" fill="#676E77" fill-opacity="0.24"/>
<path d="M206.168 228.944V221.66H204.908V222.812H203.552V223.868H204.908V228.944H203.516V230H207.248V228.944H206.168ZM211.582 230.132C213.778 230.132 215.194 228.488 215.194 225.824C215.194 223.124 213.79 221.54 211.582 221.54C209.386 221.54 207.97 223.112 207.97 225.824C207.97 228.5 209.386 230.132 211.582 230.132ZM211.582 228.932C210.19 228.932 209.266 227.804 209.266 225.836C209.266 223.868 210.19 222.74 211.582 222.74C212.974 222.74 213.898 223.868 213.898 225.836C213.898 227.804 212.974 228.932 211.582 228.932ZM219.938 230.132C222.134 230.132 223.55 228.488 223.55 225.824C223.55 223.124 222.146 221.54 219.938 221.54C217.742 221.54 216.326 223.112 216.326 225.824C216.326 228.5 217.742 230.132 219.938 230.132ZM219.938 228.932C218.546 228.932 217.622 227.804 217.622 225.836C217.622 223.868 218.546 222.74 219.938 222.74C221.33 222.74 222.254 223.868 222.254 225.836C222.254 227.804 221.33 228.932 219.938 228.932ZM226.325 225.428C227.429 225.428 228.209 224.576 228.209 223.496C228.209 222.44 227.429 221.576 226.325 221.576C225.233 221.576 224.429 222.44 224.429 223.496C224.429 224.576 225.233 225.428 226.325 225.428ZM225.749 230H226.745L231.557 221.66H230.549L225.749 230ZM226.325 224.612C225.713 224.612 225.269 224.132 225.269 223.496C225.269 222.884 225.713 222.38 226.325 222.38C226.925 222.38 227.369 222.884 227.369 223.496C227.369 224.132 226.925 224.612 226.325 224.612ZM230.981 230.084C232.085 230.084 232.865 229.244 232.865 228.164C232.865 227.096 232.085 226.232 230.981 226.232C229.889 226.232 229.085 227.096 229.085 228.164C229.085 229.244 229.889 230.084 230.981 230.084ZM230.981 229.28C230.381 229.28 229.925 228.8 229.925 228.164C229.925 227.552 230.369 227.048 230.981 227.048C231.581 227.048 232.037 227.552 232.037 228.164C232.037 228.8 231.581 229.28 230.981 229.28Z" fill="#E2E1E4"/>
<defs>
<filter id="filter0_ddd_20_300" x="162" y="147" width="36" height="36" filterUnits="userSpaceOnUse" color-interpolation-filters="sRGB">
<feFlood flood-opacity="0" result="BackgroundImageFix"/>
<feColorMatrix in="SourceAlpha" type="matrix" values="0 0 0 0 0 0 0 0 0 0 0 0 0 0 0 0 0 0 127 0" result="hardAlpha"/>
<feOffset dy="3"/>
<feGaussianBlur stdDeviation="2"/>
<feColorMatrix type="matrix" values="0 0 0 0 0 0 0 0 0 0 0 0 0 0 0 0 0 0 0.08 0"/>
<feBlend mode="normal" in2="BackgroundImageFix" result="effect1_dropShadow_20_300"/>
<feColorMatrix in="SourceAlpha" type="matrix" values="0 0 0 0 0 0 0 0 0 0 0 0 0 0 0 0 0 0 127 0" result="hardAlpha"/>
<feOffset dy="3"/>
<feGaussianBlur stdDeviation="1.5"/>
<feColorMatrix type="matrix" values="0 0 0 0 0 0 0 0 0 0 0 0 0 0 0 0 0 0 0.06 0"/>
<feBlend mode="normal" in2="effect1_dropShadow_20_300" result="effect2_dropShadow_20_300"/>
<feColorMatrix in="SourceAlpha" type="matrix" values="0 0 0 0 0 0 0 0 0 0 0 0 0 0 0 0 0 0 127 0" result="hardAlpha"/>
<feOffset dy="1"/>
<feGaussianBlur stdDeviation="4"/>
<feColorMatrix type="matrix" values="0 0 0 0 0 0 0 0 0 0 0 0 0 0 0 0 0 0 0.1 0"/>
<feBlend mode="normal" in2="effect2_dropShadow_20_300" result="effect3_dropShadow_20_300"/>
<feBlend mode="normal" in="SourceGraphic" in2="effect3_dropShadow_20_300" result="shape"/>
</filter>
<filter id="filter1_ddd_20_300" x="216" y="175" width="36" height="36" filterUnits="userSpaceOnUse" color-interpolation-filters="sRGB">
<feFlood flood-opacity="0" result="BackgroundImageFix"/>
<feColorMatrix in="SourceAlpha" type="matrix" values="0 0 0 0 0 0 0 0 0 0 0 0 0 0 0 0 0 0 127 0" result="hardAlpha"/>
<feOffset dy="3"/>
<feGaussianBlur stdDeviation="2"/>
<feColorMatrix type="matrix" values="0 0 0 0 0 0 0 0 0 0 0 0 0 0 0 0 0 0 0.08 0"/>
<feBlend mode="normal" in2="BackgroundImageFix" result="effect1_dropShadow_20_300"/>
<feColorMatrix in="SourceAlpha" type="matrix" values="0 0 0 0 0 0 0 0 0 0 0 0 0 0 0 0 0 0 127 0" result="hardAlpha"/>
<feOffset dy="3"/>
<feGaussianBlur stdDeviation="1.5"/>
<feColorMatrix type="matrix" values="0 0 0 0 0 0 0 0 0 0 0 0 0 0 0 0 0 0 0.06 0"/>
<feBlend mode="normal" in2="effect1_dropShadow_20_300" result="effect2_dropShadow_20_300"/>
<feColorMatrix in="SourceAlpha" type="matrix" values="0 0 0 0 0 0 0 0 0 0 0 0 0 0 0 0 0 0 127 0" result="hardAlpha"/>
<feOffset dy="1"/>
<feGaussianBlur stdDeviation="4"/>
<feColorMatrix type="matrix" values="0 0 0 0 0 0 0 0 0 0 0 0 0 0 0 0 0 0 0.1 0"/>
<feBlend mode="normal" in2="effect2_dropShadow_20_300" result="effect3_dropShadow_20_300"/>
<feBlend mode="normal" in="SourceGraphic" in2="effect3_dropShadow_20_300" result="shape"/>
</filter>
<linearGradient id="paint0_linear_20_300" x1="132" y1="64" x2="132" y2="142" gradientUnits="userSpaceOnUse">
<stop stop-color="#425DF9"/>
<stop offset="1" stop-opacity="0"/>
</linearGradient>
<linearGradient id="paint1_linear_20_300" x1="20" y1="65" x2="244" y2="65" gradientUnits="userSpaceOnUse">
<stop stop-color="white"/>
<stop offset="1" stop-opacity="0"/>
</linearGradient>
<linearGradient id="paint2_linear_20_300" x1="20" y1="65" x2="20" y2="142" gradientUnits="userSpaceOnUse">
<stop stop-color="#425DF9"/>
<stop offset="1" stop-opacity="0"/>
</linearGradient>
<linearGradient id="paint3_linear_20_300" x1="21" y1="166" x2="244" y2="166" gradientUnits="userSpaceOnUse">
<stop stop-color="#FF0000"/>
<stop offset="0.109375" stop-color="#FC8900"/>
<stop offset="0.234375" stop-color="#FAFF00"/>
<stop offset="0.348958" stop-color="#87F774"/>
<stop offset="0.427083" stop-color="#4AF2B2"/>
<stop offset="0.520833" stop-color="#00EDFC"/>
<stop offset="0.708333" stop-color="#454AB7"/>
<stop offset="0.864583" stop-color="#A92293"/>
<stop offset="1" stop-color="#FF0000"/>
</linearGradient>
<linearGradient id="paint4_linear_20_300" x1="244" y1="190" x2="21" y2="190" gradientUnits="userSpaceOnUse">
<stop stop-color="#425DF9"/>
<stop offset="1" stop-color="#425DF9" stop-opacity="0"/>
</linearGradient>
<clipPath id="clip0_20_300">
<rect width="12" height="12" fill="white" transform="translate(26 26)"/>
</clipPath>
</defs>
</svg>
