<svg width="264" height="112" viewBox="0 0 264 112" fill="none" xmlns="http://www.w3.org/2000/svg">
<rect width="264" height="112" rx="12" fill="#0C0E12" fill-opacity="0.92"/>
<rect x="20" y="20" width="24" height="24" rx="6" fill="#425DF9"/>
<g clip-path="url(#clip0_21_5)">
<path d="M37.9999 29.7343C37.9924 29.4058 37.7719 29.1193 37.4554 29.0293L26.9554 26.0293C26.6966 25.9543 26.4124 26.0271 26.2196 26.2198C26.0269 26.4126 25.9534 26.6938 26.0284 26.9563L29.0284 37.4563C29.1191 37.7721 29.4049 37.9926 29.7341 38.0001C30.0761 38.0173 30.3581 37.7991 30.4616 37.4871L31.5784 34.1383L35.2196 37.7803C35.3659 37.9266 35.5579 38.0001 35.7499 38.0001C35.9419 38.0001 36.1339 37.9266 36.2801 37.7803L37.7801 36.2803C38.0734 35.9871 38.0734 35.5131 37.7801 35.2198L34.1389 31.5778L37.4876 30.4618C37.7989 30.3576 38.0074 30.0628 37.9999 29.7343Z" fill="white"/>
</g>
<path d="M64.368 38H66.048L62.096 26.88H60.048L56.112 38H57.792L58.816 35.088H63.344L64.368 38ZM59.312 33.696L61.088 28.672L62.848 33.696H59.312ZM71.2011 38.192C73.3451 38.192 74.7371 36.864 75.1531 35.536L73.6331 34.928C73.3291 36 72.4331 36.672 71.2331 36.672C69.6971 36.672 68.5291 35.52 68.5291 33.792C68.5291 32.064 69.6971 30.912 71.2331 30.912C72.4171 30.912 73.2811 31.584 73.5851 32.672L75.1051 32.064C74.6891 30.704 73.2971 29.392 71.1851 29.392C68.6731 29.392 66.8331 31.296 66.8331 33.792C66.8331 36.32 68.7051 38.192 71.2011 38.192ZM80.4042 38H81.6842V36.512H80.7402C79.7322 36.512 79.1722 35.936 79.1722 34.88V31.024H81.5882V29.568H79.2362V27.392H77.5882V28.752C77.5882 29.296 77.3482 29.568 76.8042 29.568H75.9882V31.024H77.4922V35.056C77.4922 36.864 78.5002 38 80.4042 38ZM84.0824 28.112C84.7704 28.112 85.3144 27.632 85.3144 26.928C85.3144 26.224 84.7704 25.712 84.0824 25.712C83.3944 25.712 82.8504 26.224 82.8504 26.928C82.8504 27.632 83.3944 28.112 84.0824 28.112ZM83.2344 38H84.9304V29.568H83.2344V38ZM91.272 38.192C93.88 38.192 95.72 36.304 95.72 33.792C95.72 31.264 93.88 29.392 91.272 29.392C88.68 29.392 86.84 31.264 86.84 33.792C86.84 36.304 88.68 38.192 91.272 38.192ZM91.288 36.672C89.656 36.672 88.536 35.456 88.536 33.792C88.536 32.096 89.656 30.896 91.288 30.896C92.92 30.896 94.024 32.096 94.024 33.792C94.024 35.472 92.904 36.672 91.288 36.672ZM102.024 29.376C100.776 29.376 99.816 29.904 99.24 30.64V29.568H97.64V38H99.336V32.864C99.352 31.824 100.28 30.896 101.544 30.896C102.888 30.88 103.72 31.712 103.72 33.104V38H105.416V32.8C105.416 30.736 104.136 29.376 102.024 29.376Z" fill="white"/>
<path d="M26.432 71.66H20.156V72.584H22.784V80H23.804V72.584H26.432V71.66ZM31.3286 73.676L29.1926 79.136L27.1526 73.676H26.0846L28.5566 80H28.8326L27.9326 82.148H28.9406L32.3966 73.676H31.3286ZM36.6802 73.544C35.6362 73.544 34.7962 74.036 34.2922 74.84V73.676H33.3442V82.148H34.3642V78.968C34.8682 79.7 35.6722 80.132 36.6562 80.132C38.4562 80.132 39.7762 78.728 39.7762 76.844C39.7762 74.96 38.4802 73.544 36.6802 73.544ZM36.5482 79.232C35.2282 79.232 34.3162 78.248 34.3162 76.844C34.3162 75.44 35.2402 74.444 36.5482 74.444C37.8202 74.444 38.7562 75.464 38.7562 76.844C38.7562 78.212 37.8082 79.232 36.5482 79.232ZM41.69 77.216H46.946C46.958 77.096 46.97 76.88 46.97 76.7C46.97 75.032 45.758 73.532 43.85 73.532C42.062 73.532 40.658 75.008 40.658 76.844C40.658 78.728 41.978 80.144 43.922 80.144C45.422 80.144 46.298 79.496 46.766 78.596L45.878 78.056C45.566 78.788 44.99 79.184 43.958 79.184C42.794 79.184 41.87 78.392 41.69 77.216ZM41.702 76.328C41.894 75.128 42.818 74.42 43.886 74.42C44.942 74.42 45.77 75.14 45.926 76.328H41.702Z" fill="#9B9FA5"/>
<rect x="77" y="60" width="170" height="32" rx="6" fill="#676E77" fill-opacity="0.24"/>
<path d="M93.276 80H94.536L91.572 71.66H90.036L87.084 80H88.344L89.112 77.816H92.508L93.276 80ZM89.484 76.772L90.816 73.004L92.136 76.772H89.484ZM100.165 71.228V74.552C99.6606 73.916 98.9046 73.544 97.9926 73.544C96.1926 73.544 94.9086 74.96 94.9086 76.832C94.9086 78.728 96.2166 80.144 98.0286 80.144C98.9886 80.144 99.7686 79.724 100.261 79.016V80H101.437V71.228H100.165ZM98.1846 79.016C97.0206 79.016 96.1686 78.092 96.1686 76.832C96.1686 75.596 97.0326 74.66 98.1846 74.66C99.3966 74.66 100.213 75.56 100.213 76.832C100.213 78.116 99.3846 79.016 98.1846 79.016ZM107.899 71.228V74.552C107.395 73.916 106.639 73.544 105.727 73.544C103.927 73.544 102.643 74.96 102.643 76.832C102.643 78.728 103.951 80.144 105.763 80.144C106.723 80.144 107.503 79.724 107.995 79.016V80H109.171V71.228H107.899ZM105.919 79.016C104.755 79.016 103.903 78.092 103.903 76.832C103.903 75.596 104.767 74.66 105.919 74.66C107.131 74.66 107.947 75.56 107.947 76.832C107.947 78.116 107.119 79.016 105.919 79.016ZM115.722 80H116.682V78.884H115.974C115.218 78.884 114.798 78.452 114.798 77.66V74.768H116.61V73.676H114.846V72.044H113.61V73.064C113.61 73.472 113.43 73.676 113.022 73.676H112.41V74.768H113.538V77.792C113.538 79.148 114.294 80 115.722 80ZM120.416 80.144C122.372 80.144 123.752 78.728 123.752 76.844C123.752 74.948 122.372 73.544 120.416 73.544C118.472 73.544 117.092 74.948 117.092 76.844C117.092 78.728 118.472 80.144 120.416 80.144ZM120.428 79.004C119.204 79.004 118.364 78.092 118.364 76.844C118.364 75.572 119.204 74.672 120.428 74.672C121.652 74.672 122.48 75.572 122.48 76.844C122.48 78.104 121.64 79.004 120.428 79.004ZM127.542 80H128.814V71.228H127.542V80ZM131.002 72.584C131.518 72.584 131.926 72.224 131.926 71.696C131.926 71.168 131.518 70.784 131.002 70.784C130.486 70.784 130.078 71.168 130.078 71.696C130.078 72.224 130.486 72.584 131.002 72.584ZM130.366 80H131.638V73.676H130.366V80ZM135.326 80.144C136.862 80.144 137.87 79.424 137.87 78.188C137.87 75.872 134.306 76.58 134.306 75.284C134.306 74.84 134.666 74.552 135.314 74.552C135.902 74.552 136.31 74.804 136.502 75.32L137.654 74.876C137.378 74.024 136.526 73.544 135.338 73.544C133.898 73.544 132.962 74.228 132.962 75.356C132.962 77.528 136.526 76.904 136.526 78.284C136.526 78.8 136.07 79.1 135.362 79.1C134.546 79.1 134.006 78.74 133.814 78.116L132.662 78.56C132.998 79.592 133.982 80.144 135.326 80.144ZM141.561 80H142.521V78.884H141.813C141.057 78.884 140.637 78.452 140.637 77.66V74.768H142.449V73.676H140.685V72.044H139.449V73.064C139.449 73.472 139.269 73.676 138.861 73.676H138.249V74.768H139.377V77.792C139.377 79.148 140.133 80 141.561 80ZM148.59 80.132C150.402 80.132 151.542 79.196 151.542 77.804C151.542 74.684 147.222 75.608 147.222 73.676C147.222 73.064 147.714 72.62 148.614 72.62C149.442 72.62 149.97 72.992 150.21 73.784L151.41 73.328C151.098 72.224 150.126 71.528 148.674 71.528C146.958 71.528 145.95 72.464 145.95 73.784C145.95 76.688 150.258 75.8 150.258 77.84C150.258 78.572 149.658 79.028 148.698 79.028C147.714 79.028 147.018 78.524 146.778 77.636L145.578 78.092C145.95 79.388 147.066 80.132 148.59 80.132ZM157.14 73.676V77.576C157.128 78.32 156.492 79.004 155.532 79.004C154.56 79.016 153.948 78.38 153.948 77.432V73.676H152.688V77.588C152.688 79.064 153.564 80.144 155.184 80.144C156.06 80.144 156.78 79.748 157.212 79.196V80H158.4V73.676H157.14ZM163.388 73.544C162.476 73.544 161.732 73.916 161.228 74.54V71.228H159.956V80H161.132V79.028C161.624 79.724 162.392 80.144 163.364 80.144C165.176 80.144 166.484 78.728 166.484 76.832C166.484 74.96 165.2 73.544 163.388 73.544ZM163.208 79.016C162.008 79.016 161.168 78.116 161.168 76.832C161.168 75.56 161.996 74.66 163.208 74.66C164.36 74.66 165.224 75.596 165.224 76.832C165.224 78.092 164.372 79.016 163.208 79.016ZM169.803 80.144C171.339 80.144 172.347 79.424 172.347 78.188C172.347 75.872 168.783 76.58 168.783 75.284C168.783 74.84 169.143 74.552 169.791 74.552C170.379 74.552 170.787 74.804 170.979 75.32L172.131 74.876C171.855 74.024 171.003 73.544 169.815 73.544C168.375 73.544 167.439 74.228 167.439 75.356C167.439 77.528 171.003 76.904 171.003 78.284C171.003 78.8 170.547 79.1 169.839 79.1C169.023 79.1 168.483 78.74 168.291 78.116L167.139 78.56C167.475 79.592 168.459 80.144 169.803 80.144ZM176.384 80.144C177.992 80.144 179.036 79.148 179.348 78.152L178.208 77.696C177.98 78.5 177.308 79.004 176.408 79.004C175.256 79.004 174.38 78.14 174.38 76.844C174.38 75.548 175.256 74.684 176.408 74.684C177.296 74.684 177.944 75.188 178.172 76.004L179.312 75.548C179 74.528 177.956 73.544 176.372 73.544C174.488 73.544 173.108 74.972 173.108 76.844C173.108 78.74 174.512 80.144 176.384 80.144ZM181.57 74.48V73.676H180.37V80H181.642V76.292C181.642 75.404 182.386 74.732 183.514 74.72V73.532C182.686 73.532 181.99 73.94 181.57 74.48ZM185.119 72.584C185.635 72.584 186.043 72.224 186.043 71.696C186.043 71.168 185.635 70.784 185.119 70.784C184.603 70.784 184.195 71.168 184.195 71.696C184.195 72.224 184.603 72.584 185.119 72.584ZM184.483 80H185.755V73.676H184.483V80ZM190.739 73.544C189.827 73.544 189.083 73.916 188.579 74.54V71.228H187.307V80H188.483V79.028C188.975 79.724 189.743 80.144 190.715 80.144C192.527 80.144 193.835 78.728 193.835 76.832C193.835 74.96 192.551 73.544 190.739 73.544ZM190.559 79.016C189.359 79.016 188.519 78.116 188.519 76.832C188.519 75.56 189.347 74.66 190.559 74.66C191.711 74.66 192.575 75.596 192.575 76.832C192.575 78.092 191.723 79.016 190.559 79.016ZM195.894 77.264H200.994C201.006 77.144 201.018 76.916 201.018 76.7C201.018 75.068 199.806 73.532 197.85 73.532C196.062 73.532 194.634 75.008 194.634 76.844C194.634 78.728 195.954 80.144 197.946 80.144C199.458 80.144 200.31 79.508 200.79 78.668L199.746 78.008C199.458 78.668 198.93 79.016 197.982 79.016C196.914 79.016 196.086 78.344 195.894 77.264ZM195.906 76.292C196.098 75.2 196.914 74.564 197.898 74.564C198.87 74.564 199.602 75.224 199.77 76.292H195.906ZM203.367 74.48V73.676H202.167V80H203.439V76.292C203.439 75.404 204.183 74.732 205.311 74.72V73.532C204.483 73.532 203.787 73.94 203.367 74.48ZM208.287 80.144C209.823 80.144 210.831 79.424 210.831 78.188C210.831 75.872 207.267 76.58 207.267 75.284C207.267 74.84 207.627 74.552 208.275 74.552C208.863 74.552 209.271 74.804 209.463 75.32L210.615 74.876C210.339 74.024 209.487 73.544 208.299 73.544C206.859 73.544 205.923 74.228 205.923 75.356C205.923 77.528 209.487 76.904 209.487 78.284C209.487 78.8 209.031 79.1 208.323 79.1C207.507 79.1 206.967 78.74 206.775 78.116L205.623 78.56C205.959 79.592 206.943 80.144 208.287 80.144Z" fill="#E2E1E4"/>
<g clip-path="url(#clip1_21_5)">
<path d="M231.354 70.146C231.308 70.0994 231.252 70.0625 231.192 70.0373C231.131 70.0121 231.066 69.9991 231 69.9991C230.934 69.9991 230.869 70.0121 230.808 70.0373C230.748 70.0625 230.692 70.0994 230.646 70.146L227.646 73.146C227.576 73.2159 227.528 73.3051 227.509 73.4022C227.489 73.4993 227.499 73.6 227.537 73.6915C227.575 73.7829 227.639 73.8611 227.722 73.916C227.804 73.971 227.901 74.0002 228 74H234C234.099 74.0002 234.196 73.971 234.278 73.916C234.361 73.8611 234.425 73.7829 234.463 73.6915C234.501 73.6 234.511 73.4993 234.491 73.4022C234.472 73.3051 234.424 73.2159 234.354 73.146L231.354 70.146Z" fill="#676E77"/>
<path d="M234 78H228C227.901 77.9998 227.804 78.0291 227.722 78.084C227.639 78.1389 227.575 78.2171 227.537 78.3085C227.499 78.4 227.489 78.5007 227.509 78.5978C227.528 78.6949 227.576 78.7841 227.646 78.854L230.646 81.854C230.692 81.9006 230.748 81.9375 230.808 81.9627C230.869 81.9879 230.934 82.0009 231 82.0009C231.066 82.0009 231.131 81.9879 231.192 81.9627C231.252 81.9375 231.308 81.9006 231.354 81.854L234.354 78.854C234.424 78.7841 234.472 78.6949 234.491 78.5978C234.511 78.5007 234.501 78.4 234.463 78.3085C234.425 78.2171 234.361 78.1389 234.278 78.084C234.196 78.0291 234.099 77.9998 234 78Z" fill="#676E77"/>
</g>
<defs>
<clipPath id="clip0_21_5">
<rect width="12" height="12" fill="white" transform="translate(26 26)"/>
</clipPath>
<clipPath id="clip1_21_5">
<rect width="12" height="12" fill="white" transform="translate(225 70)"/>
</clipPath>
</defs>
</svg>
