<svg width="264" height="269" viewBox="0 0 264 269" fill="none" xmlns="http://www.w3.org/2000/svg">
<rect width="264" height="269" rx="12" fill="#0C0E12" fill-opacity="0.92"/>
<rect x="20" y="20" width="24" height="24" rx="6" fill="#425DF9"/>
<path d="M32 26H26.75V29H27.5L28.0427 27.9146C28.1697 27.6605 28.4294 27.5 28.7135 27.5H31.25V35.9594C31.25 36.2823 31.0434 36.5689 30.7372 36.6709L29 37.25V38H32H35V37.25L33.2628 36.6709C32.9566 36.5689 32.75 36.2823 32.75 35.9594V27.5H35.2865C35.5706 27.5 35.8303 27.6605 35.9573 27.9146L36.5 29H37.25V26H32Z" fill="white"/>
<path d="M64.768 26.88H56.208V28.4H59.648V38H61.344V28.4H64.768V26.88ZM71.5452 29.568L68.9212 36.608L66.4732 29.568H64.7292L67.8652 38H68.3452L67.1932 40.864H68.8572L69.9773 38L73.3053 29.568H71.5452ZM79.3341 29.392C78.0381 29.392 76.9981 29.952 76.3261 30.896V29.568H74.7581V40.864H76.4541V36.88C77.1101 37.712 78.0861 38.192 79.3021 38.192C81.7021 38.192 83.4621 36.304 83.4621 33.792C83.4621 31.28 81.7501 29.392 79.3341 29.392ZM79.0941 36.688C77.4781 36.688 76.3741 35.504 76.3741 33.792C76.3741 32.08 77.4941 30.88 79.0941 30.88C80.6461 30.88 81.7821 32.112 81.7821 33.792C81.7821 35.456 80.6301 36.688 79.0941 36.688ZM89.3426 38.192C91.9506 38.192 93.7906 36.304 93.7906 33.792C93.7906 31.264 91.9506 29.392 89.3426 29.392C86.7506 29.392 84.9106 31.264 84.9106 33.792C84.9106 36.304 86.7506 38.192 89.3426 38.192ZM89.3586 36.672C87.7266 36.672 86.6066 35.456 86.6066 33.792C86.6066 32.096 87.7266 30.896 89.3586 30.896C90.9906 30.896 92.0946 32.096 92.0946 33.792C92.0946 35.472 90.9746 36.672 89.3586 36.672ZM102.383 29.568V30.912C101.743 29.968 100.719 29.392 99.4066 29.392C97.0066 29.392 95.2466 31.28 95.2466 33.632C95.2466 36 96.9906 37.856 99.4066 37.856C100.719 37.856 101.743 37.264 102.383 36.32V36.992C102.383 38.608 101.295 39.632 99.5346 39.632C98.2226 39.632 97.2626 39.072 96.8626 37.952L95.4226 38.512C95.9666 40.064 97.2946 41.056 99.5186 41.056C102.303 41.056 103.951 39.376 103.951 36.848V29.568H102.383ZM99.5986 36.544C98.0626 36.544 96.9266 35.328 96.9266 33.712C96.9266 32.112 98.0786 30.88 99.6146 30.88C101.183 30.88 102.287 32.08 102.287 33.712C102.287 35.36 101.167 36.544 99.5986 36.544ZM107.927 30.64V29.568H106.327V38H108.023V33.056C108.023 31.872 109.015 30.976 110.519 30.96V29.376C109.415 29.376 108.487 29.92 107.927 30.64ZM118.444 29.568V30.992C117.804 30.032 116.78 29.488 115.468 29.488C113.068 29.488 111.308 31.28 111.308 33.776C111.308 36.304 113.052 38.192 115.468 38.192C116.78 38.192 117.804 37.6 118.444 36.624V38H120.012V29.568H118.444ZM115.676 36.688C114.124 36.688 112.988 35.456 112.988 33.776C112.988 32.128 114.14 30.88 115.676 30.88C117.292 30.88 118.38 32.08 118.38 33.776C118.38 35.488 117.276 36.688 115.676 36.688ZM126.981 29.392C125.685 29.392 124.645 29.952 123.973 30.896V29.568H122.405V40.864H124.101V36.88C124.757 37.712 125.733 38.192 126.949 38.192C129.349 38.192 131.109 36.304 131.109 33.792C131.109 31.28 129.397 29.392 126.981 29.392ZM126.741 36.688C125.125 36.688 124.021 35.504 124.021 33.792C124.021 32.08 125.141 30.88 126.741 30.88C128.293 30.88 129.429 32.112 129.429 33.792C129.429 35.456 128.277 36.688 126.741 36.688ZM137.421 29.376C136.237 29.376 135.309 29.856 134.733 30.512V26.304H133.037V38H134.733V32.864C134.749 31.824 135.677 30.896 136.941 30.896C138.285 30.88 139.117 31.712 139.117 33.104V38H140.813V32.8C140.813 30.736 139.533 29.376 137.421 29.376ZM148.777 29.568L146.153 36.608L143.705 29.568H141.961L145.097 38H145.577L144.425 40.864H146.089L147.209 38L150.537 29.568H148.777Z" fill="white"/>
<path d="M26.156 76.56V75.66H20.984V84H22.004V80.172H25.748V79.272H22.004V76.56H26.156ZM30.037 84.132C31.957 84.132 33.325 82.728 33.325 80.844C33.325 78.948 31.957 77.544 30.037 77.544C28.117 77.544 26.749 78.948 26.749 80.844C26.749 82.728 28.117 84.132 30.037 84.132ZM30.049 83.22C28.705 83.22 27.781 82.224 27.781 80.844C27.781 79.452 28.705 78.456 30.049 78.456C31.393 78.456 32.305 79.452 32.305 80.844C32.305 82.224 31.381 83.22 30.049 83.22ZM37.789 77.544C36.781 77.544 36.013 78 35.605 78.6V77.676H34.645V84H35.665V80.088C35.677 79.236 36.445 78.456 37.525 78.456C38.653 78.444 39.337 79.14 39.337 80.316V84H40.357V80.136C40.357 78.564 39.409 77.544 37.789 77.544ZM44.4077 84H45.3317V83.1H44.5877C43.7717 83.1 43.3277 82.62 43.3277 81.768V78.552H45.2357V77.676H43.3637V76.056H42.3797V77.1C42.3797 77.484 42.1997 77.676 41.8157 77.676H41.1557V78.552H42.3077V81.876C42.3077 83.184 43.0397 84 44.4077 84Z" fill="#9B9FA5"/>
<path d="M29.276 113.66L27.692 120.716L25.796 113.66H24.692L22.808 120.74L21.212 113.66H20.204L22.196 122H23.36L25.244 115.064L27.128 122H28.292L30.284 113.66H29.276ZM31.6002 119.216H36.8562C36.8682 119.096 36.8802 118.88 36.8802 118.7C36.8802 117.032 35.6682 115.532 33.7602 115.532C31.9722 115.532 30.5682 117.008 30.5682 118.844C30.5682 120.728 31.8882 122.144 33.8322 122.144C35.3322 122.144 36.2082 121.496 36.6762 120.596L35.7882 120.056C35.4762 120.788 34.9002 121.184 33.8682 121.184C32.7042 121.184 31.7802 120.392 31.6002 119.216ZM31.6122 118.328C31.8042 117.128 32.7282 116.42 33.7962 116.42C34.8522 116.42 35.6802 117.14 35.8362 118.328H31.6122ZM38.6412 114.512C39.0972 114.512 39.4452 114.188 39.4452 113.732C39.4452 113.264 39.0972 112.928 38.6412 112.928C38.1852 112.928 37.8372 113.264 37.8372 113.732C37.8372 114.188 38.1852 114.512 38.6412 114.512ZM38.1372 122H39.1572V115.676H38.1372V122ZM45.9442 115.676V116.852C45.4642 116.048 44.6362 115.544 43.5802 115.544C41.7802 115.544 40.4602 116.96 40.4602 118.748C40.4602 120.56 41.7682 121.952 43.5802 121.952C44.6362 121.952 45.4642 121.448 45.9442 120.632V121.256C45.9442 122.588 45.0682 123.416 43.6522 123.416C42.5722 123.416 41.8042 122.948 41.4922 122.024L40.6162 122.36C41.0242 123.548 42.0202 124.28 43.6402 124.28C45.6802 124.28 46.8922 123.056 46.8922 121.172V115.676H45.9442ZM43.6762 121.148C42.4162 121.148 41.4802 120.14 41.4802 118.796C41.4802 117.464 42.4282 116.444 43.7002 116.444C44.9842 116.444 45.8842 117.428 45.8842 118.796C45.8842 120.164 44.9722 121.148 43.6762 121.148ZM51.7226 115.544C50.7626 115.544 50.0186 115.964 49.5986 116.516V113.228H48.5786V122H49.5986V118.088C49.6106 117.236 50.3786 116.456 51.4586 116.456C52.5866 116.444 53.2706 117.14 53.2706 118.316V122H54.2906V118.136C54.2906 116.564 53.3426 115.544 51.7226 115.544ZM58.3413 122H59.2653V121.1H58.5213C57.7053 121.1 57.2613 120.62 57.2613 119.768V116.552H59.1693V115.676H57.2973V114.056H56.3133V115.1C56.3133 115.484 56.1333 115.676 55.7493 115.676H55.0893V116.552H56.2413V119.876C56.2413 121.184 56.9733 122 58.3413 122Z" fill="#9B9FA5"/>
<path d="M23.276 160.12C25.004 160.12 26.12 159.22 26.12 157.864C26.12 154.756 21.752 155.716 21.752 153.604C21.752 152.92 22.304 152.428 23.312 152.428C24.2 152.428 24.764 152.812 25.016 153.652L25.988 153.28C25.676 152.2 24.752 151.54 23.348 151.54C21.716 151.54 20.732 152.428 20.732 153.7C20.732 156.58 25.088 155.668 25.088 157.9C25.088 158.716 24.416 159.22 23.348 159.22C22.292 159.22 21.56 158.692 21.32 157.768L20.348 158.14C20.708 159.4 21.776 160.12 23.276 160.12ZM27.9419 152.512C28.3979 152.512 28.7459 152.188 28.7459 151.732C28.7459 151.264 28.3979 150.928 27.9419 150.928C27.4859 150.928 27.1379 151.264 27.1379 151.732C27.1379 152.188 27.4859 152.512 27.9419 152.512ZM27.4379 160H28.4579V153.676H27.4379V160ZM30.853 159.16L34.489 154.456V153.676H29.761V154.516H33.241L29.593 159.256V160H34.621V159.16H30.853ZM36.1705 157.216H41.4265C41.4385 157.096 41.4505 156.88 41.4505 156.7C41.4505 155.032 40.2385 153.532 38.3305 153.532C36.5425 153.532 35.1385 155.008 35.1385 156.844C35.1385 158.728 36.4585 160.144 38.4025 160.144C39.9025 160.144 40.7785 159.496 41.2465 158.596L40.3585 158.056C40.0465 158.788 39.4705 159.184 38.4385 159.184C37.2745 159.184 36.3505 158.392 36.1705 157.216ZM36.1825 156.328C36.3745 155.128 37.2985 154.42 38.3665 154.42C39.4225 154.42 40.2505 155.14 40.4065 156.328H36.1825Z" fill="#9B9FA5"/>
<path d="M24.704 198.132C26.708 198.132 27.908 197.016 28.436 195.492L27.452 195.084C27.02 196.38 26.132 197.16 24.68 197.16C22.88 197.16 21.572 195.804 21.572 193.836C21.572 191.856 22.88 190.5 24.656 190.5C26.108 190.5 27.02 191.28 27.452 192.576L28.436 192.168C27.92 190.668 26.672 189.528 24.668 189.528C22.304 189.528 20.528 191.304 20.528 193.836C20.528 196.356 22.304 198.132 24.704 198.132ZM32.4862 198.132C34.4062 198.132 35.7742 196.728 35.7742 194.844C35.7742 192.948 34.4062 191.544 32.4862 191.544C30.5662 191.544 29.1982 192.948 29.1982 194.844C29.1982 196.728 30.5662 198.132 32.4862 198.132ZM32.4982 197.22C31.1542 197.22 30.2302 196.224 30.2302 194.844C30.2302 193.452 31.1542 192.456 32.4982 192.456C33.8422 192.456 34.7542 193.452 34.7542 194.844C34.7542 196.224 33.8302 197.22 32.4982 197.22ZM37.0942 198H38.1142V189.228H37.0942V198ZM42.6932 198.132C44.6132 198.132 45.9812 196.728 45.9812 194.844C45.9812 192.948 44.6132 191.544 42.6932 191.544C40.7732 191.544 39.4052 192.948 39.4052 194.844C39.4052 196.728 40.7732 198.132 42.6932 198.132ZM42.7052 197.22C41.3612 197.22 40.4372 196.224 40.4372 194.844C40.4372 193.452 41.3612 192.456 42.7052 192.456C44.0492 192.456 44.9612 193.452 44.9612 194.844C44.9612 196.224 44.0372 197.22 42.7052 197.22ZM48.2612 192.6V191.676H47.3012V198H48.3212V194.184C48.3212 193.284 49.1252 192.504 50.2772 192.492V191.544C49.3892 191.544 48.6692 192.012 48.2612 192.6Z" fill="#9B9FA5"/>
<path d="M26.384 236H27.392L24.368 227.66H23.132L20.108 236H21.128L21.992 233.612H25.52L26.384 236ZM22.304 232.772L23.756 228.752L25.208 232.772H22.304ZM28.352 236H29.372V227.228H28.352V236ZM31.563 228.512C32.019 228.512 32.367 228.188 32.367 227.732C32.367 227.264 32.019 226.928 31.563 226.928C31.107 226.928 30.759 227.264 30.759 227.732C30.759 228.188 31.107 228.512 31.563 228.512ZM31.059 236H32.079V229.676H31.059V236ZM38.8661 229.676V230.852C38.3861 230.048 37.5581 229.544 36.5021 229.544C34.7021 229.544 33.3821 230.96 33.3821 232.748C33.3821 234.56 34.6901 235.952 36.5021 235.952C37.5581 235.952 38.3861 235.448 38.8661 234.632V235.256C38.8661 236.588 37.9901 237.416 36.5741 237.416C35.4941 237.416 34.7261 236.948 34.4141 236.024L33.5381 236.36C33.9461 237.548 34.9421 238.28 36.5621 238.28C38.6021 238.28 39.8141 237.056 39.8141 235.172V229.676H38.8661ZM36.5981 235.148C35.3381 235.148 34.4021 234.14 34.4021 232.796C34.4021 231.464 35.3501 230.444 36.6221 230.444C37.9061 230.444 38.8061 231.428 38.8061 232.796C38.8061 234.164 37.8941 235.148 36.5981 235.148ZM44.6444 229.544C43.6364 229.544 42.8684 230 42.4604 230.6V229.676H41.5004V236H42.5204V232.088C42.5324 231.236 43.3004 230.456 44.3804 230.456C45.5084 230.444 46.1924 231.14 46.1924 232.316V236H47.2124V232.136C47.2124 230.564 46.2644 229.544 44.6444 229.544Z" fill="#9B9FA5"/>
<rect x="84" y="64" width="160" height="32" rx="6" fill="#676E77" fill-opacity="0.24"/>
<path d="M99.472 79.572C100.216 79.212 100.708 78.528 100.708 77.688C100.708 76.476 99.88 75.66 98.392 75.66H94.912V84H98.308C100.012 84 100.996 83.088 100.996 81.672C100.996 80.664 100.432 79.908 99.472 79.572ZM99.436 77.928C99.436 78.684 98.824 79.164 98.032 79.164H96.172V76.692H98.068C98.98 76.692 99.436 77.196 99.436 77.928ZM98.14 82.968H96.172V80.196H98.128C99.1 80.196 99.724 80.7 99.724 81.576C99.724 82.452 99.148 82.968 98.14 82.968ZM102.893 76.584C103.409 76.584 103.817 76.224 103.817 75.696C103.817 75.168 103.409 74.784 102.893 74.784C102.377 74.784 101.969 75.168 101.969 75.696C101.969 76.224 102.377 76.584 102.893 76.584ZM102.257 84H103.529V77.676H102.257V84ZM105.933 81.264H111.033C111.045 81.144 111.057 80.916 111.057 80.7C111.057 79.068 109.845 77.532 107.889 77.532C106.101 77.532 104.673 79.008 104.673 80.844C104.673 82.728 105.993 84.144 107.985 84.144C109.497 84.144 110.349 83.508 110.829 82.668L109.785 82.008C109.497 82.668 108.969 83.016 108.021 83.016C106.953 83.016 106.125 82.344 105.933 81.264ZM105.945 80.292C106.137 79.2 106.953 78.564 107.937 78.564C108.909 78.564 109.641 79.224 109.809 80.292H105.945ZM115.494 77.532C114.558 77.532 113.838 77.928 113.406 78.48V77.676H112.206V84H113.478V80.148C113.49 79.368 114.186 78.672 115.134 78.672C116.142 78.66 116.766 79.284 116.766 80.328V84H118.038V80.1C118.038 78.552 117.078 77.532 115.494 77.532ZM122.818 77.532C121.882 77.532 121.162 77.928 120.73 78.48V77.676H119.53V84H120.802V80.148C120.814 79.368 121.51 78.672 122.458 78.672C123.466 78.66 124.09 79.284 124.09 80.328V84H125.362V80.1C125.362 78.552 124.402 77.532 122.818 77.532ZM131.858 77.676V78.744C131.378 78.024 130.61 77.616 129.626 77.616C127.826 77.616 126.506 78.96 126.506 80.832C126.506 82.728 127.814 84.144 129.626 84.144C130.61 84.144 131.378 83.7 131.858 82.968V84H133.034V77.676H131.858ZM129.782 83.016C128.618 83.016 127.766 82.092 127.766 80.832C127.766 79.596 128.63 78.66 129.782 78.66C130.994 78.66 131.81 79.56 131.81 80.832C131.81 82.116 130.982 83.016 129.782 83.016ZM134.589 84H135.861V75.228H134.589V84ZM138.265 81.264H143.365C143.377 81.144 143.389 80.916 143.389 80.7C143.389 79.068 142.177 77.532 140.221 77.532C138.433 77.532 137.005 79.008 137.005 80.844C137.005 82.728 138.325 84.144 140.317 84.144C141.829 84.144 142.681 83.508 143.161 82.668L142.117 82.008C141.829 82.668 141.301 83.016 140.353 83.016C139.285 83.016 138.457 82.344 138.265 81.264ZM138.277 80.292C138.469 79.2 139.285 78.564 140.269 78.564C141.241 78.564 141.973 79.224 142.141 80.292H138.277Z" fill="#E2E1E4"/>
<g clip-path="url(#clip0_20_180)">
<path d="M228.354 74.146C228.308 74.0994 228.252 74.0625 228.192 74.0373C228.131 74.0121 228.066 73.9991 228 73.9991C227.934 73.9991 227.869 74.0121 227.808 74.0373C227.748 74.0625 227.692 74.0994 227.646 74.146L224.646 77.146C224.576 77.2159 224.528 77.3051 224.509 77.4022C224.489 77.4993 224.499 77.6 224.537 77.6915C224.575 77.7829 224.639 77.8611 224.722 77.916C224.804 77.9709 224.901 78.0002 225 78H231C231.099 78.0002 231.196 77.9709 231.278 77.916C231.361 77.8611 231.425 77.7829 231.463 77.6915C231.501 77.6 231.511 77.4993 231.491 77.4022C231.472 77.3051 231.424 77.2159 231.354 77.146L228.354 74.146Z" fill="#676E77"/>
<path d="M231 82H225C224.901 81.9998 224.804 82.0291 224.722 82.084C224.639 82.1389 224.575 82.2171 224.537 82.3085C224.499 82.4 224.489 82.5007 224.509 82.5978C224.528 82.6949 224.576 82.7841 224.646 82.854L227.646 85.854C227.692 85.9006 227.748 85.9375 227.808 85.9627C227.869 85.9879 227.934 86.0009 228 86.0009C228.066 86.0009 228.131 85.9879 228.192 85.9627C228.252 85.9375 228.308 85.9006 228.354 85.854L231.354 82.854C231.424 82.7841 231.472 82.6949 231.491 82.5978C231.511 82.5007 231.501 82.4 231.463 82.3085C231.425 82.2171 231.361 82.1389 231.278 82.084C231.196 82.0291 231.099 81.9998 231 82Z" fill="#676E77"/>
</g>
<rect x="84" y="216" width="120" height="28" rx="6" fill="#676E77" fill-opacity="0.24"/>
<g clip-path="url(#clip1_20_180)">
<path d="M92.375 225.875H103.625" stroke="#9B9FA5" stroke-linecap="round" stroke-linejoin="round"/>
<path d="M92.375 228.875H99.125" stroke="#9B9FA5" stroke-linecap="round" stroke-linejoin="round"/>
<path d="M92.375 231.875H103.625" stroke="#9B9FA5" stroke-linecap="round" stroke-linejoin="round"/>
<path d="M92.375 234.875H99.125" stroke="#9B9FA5" stroke-linecap="round" stroke-linejoin="round"/>
</g>
<line opacity="0.25" x1="112.5" y1="224" x2="112.5" y2="236" stroke="#676E77"/>
<rect x="120" y="220" width="20" height="20" rx="4" fill="white"/>
<g clip-path="url(#clip2_20_180)">
<path d="M124.375 225.875H135.625" stroke="#0C0E12" stroke-linecap="round" stroke-linejoin="round"/>
<path d="M126.625 228.875H133.375" stroke="#0C0E12" stroke-linecap="round" stroke-linejoin="round"/>
<path d="M124.375 231.875H135.625" stroke="#0C0E12" stroke-linecap="round" stroke-linejoin="round"/>
<path d="M126.625 234.875H133.375" stroke="#0C0E12" stroke-linecap="round" stroke-linejoin="round"/>
</g>
<line opacity="0.25" x1="148.5" y1="224" x2="148.5" y2="236" stroke="#676E77"/>
<g clip-path="url(#clip3_20_180)">
<path d="M156.375 225.875H167.625" stroke="#9B9FA5" stroke-linecap="round" stroke-linejoin="round"/>
<path d="M160.875 228.875H167.625" stroke="#9B9FA5" stroke-linecap="round" stroke-linejoin="round"/>
<path d="M156.375 231.875H167.625" stroke="#9B9FA5" stroke-linecap="round" stroke-linejoin="round"/>
<path d="M160.875 234.875H167.625" stroke="#9B9FA5" stroke-linecap="round" stroke-linejoin="round"/>
</g>
<line opacity="0.25" x1="176.5" y1="224" x2="176.5" y2="236" stroke="#676E77"/>
<g clip-path="url(#clip4_20_180)">
<path d="M184.375 225.875H195.625" stroke="#9B9FA5" stroke-linecap="round" stroke-linejoin="round"/>
<path d="M184.375 228.875H195.625" stroke="#9B9FA5" stroke-linecap="round" stroke-linejoin="round"/>
<path d="M184.375 231.875H195.625" stroke="#9B9FA5" stroke-linecap="round" stroke-linejoin="round"/>
<path d="M184.375 234.875H195.625" stroke="#9B9FA5" stroke-linecap="round" stroke-linejoin="round"/>
</g>
<rect x="84" y="102" width="160" height="32" rx="6" fill="#676E77" fill-opacity="0.24"/>
<path d="M97.336 122.132C99.148 122.132 100.288 121.196 100.288 119.804C100.288 116.684 95.968 117.608 95.968 115.676C95.968 115.064 96.46 114.62 97.36 114.62C98.188 114.62 98.716 114.992 98.956 115.784L100.156 115.328C99.844 114.224 98.872 113.528 97.42 113.528C95.704 113.528 94.696 114.464 94.696 115.784C94.696 118.688 99.004 117.8 99.004 119.84C99.004 120.572 98.404 121.028 97.444 121.028C96.46 121.028 95.764 120.524 95.524 119.636L94.324 120.092C94.696 121.388 95.812 122.132 97.336 122.132ZM102.394 119.264H107.494C107.506 119.144 107.518 118.916 107.518 118.7C107.518 117.068 106.306 115.532 104.35 115.532C102.562 115.532 101.134 117.008 101.134 118.844C101.134 120.728 102.454 122.144 104.446 122.144C105.958 122.144 106.81 121.508 107.29 120.668L106.246 120.008C105.958 120.668 105.43 121.016 104.482 121.016C103.414 121.016 102.586 120.344 102.394 119.264ZM102.406 118.292C102.598 117.2 103.414 116.564 104.398 116.564C105.37 116.564 106.102 117.224 106.27 118.292H102.406ZM116.143 115.532C115.027 115.532 114.283 116.06 113.947 116.696C113.587 115.964 112.915 115.532 111.859 115.532C110.959 115.532 110.263 115.952 109.867 116.48V115.676H108.667V122H109.939V118.088C109.951 117.416 110.527 116.672 111.487 116.672C112.447 116.66 112.999 117.368 112.999 118.316V122H114.271V118.088C114.283 117.428 114.847 116.672 115.819 116.672C116.779 116.66 117.331 117.368 117.331 118.316V122H118.591V118.088C118.591 116.636 117.715 115.532 116.143 115.532ZM120.717 114.584C121.233 114.584 121.641 114.224 121.641 113.696C121.641 113.168 121.233 112.784 120.717 112.784C120.201 112.784 119.793 113.168 119.793 113.696C119.793 114.224 120.201 114.584 120.717 114.584ZM120.081 122H121.353V115.676H120.081V122ZM127.597 117.572C128.341 117.212 128.833 116.528 128.833 115.688C128.833 114.476 128.005 113.66 126.517 113.66H123.037V122H126.433C128.137 122 129.121 121.088 129.121 119.672C129.121 118.664 128.557 117.908 127.597 117.572ZM127.561 115.928C127.561 116.684 126.949 117.164 126.157 117.164H124.297V114.692H126.193C127.105 114.692 127.561 115.196 127.561 115.928ZM126.265 120.968H124.297V118.196H126.253C127.225 118.196 127.849 118.7 127.849 119.576C127.849 120.452 127.273 120.968 126.265 120.968ZM133.346 122.144C135.302 122.144 136.682 120.728 136.682 118.844C136.682 116.948 135.302 115.544 133.346 115.544C131.402 115.544 130.022 116.948 130.022 118.844C130.022 120.728 131.402 122.144 133.346 122.144ZM133.358 121.004C132.134 121.004 131.294 120.092 131.294 118.844C131.294 117.572 132.134 116.672 133.358 116.672C134.582 116.672 135.41 117.572 135.41 118.844C135.41 120.104 134.57 121.004 133.358 121.004ZM137.882 122H139.154V113.228H137.882V122ZM145.614 113.228V116.552C145.11 115.916 144.354 115.544 143.442 115.544C141.642 115.544 140.358 116.96 140.358 118.832C140.358 120.728 141.666 122.144 143.478 122.144C144.438 122.144 145.218 121.724 145.71 121.016V122H146.886V113.228H145.614ZM143.634 121.016C142.47 121.016 141.618 120.092 141.618 118.832C141.618 117.596 142.482 116.66 143.634 116.66C144.846 116.66 145.662 117.56 145.662 118.832C145.662 120.116 144.834 121.016 143.634 121.016Z" fill="#E2E1E4"/>
<g clip-path="url(#clip5_20_180)">
<path d="M228.354 112.146C228.308 112.099 228.252 112.063 228.192 112.037C228.131 112.012 228.066 111.999 228 111.999C227.934 111.999 227.869 112.012 227.808 112.037C227.748 112.063 227.692 112.099 227.646 112.146L224.646 115.146C224.576 115.216 224.528 115.305 224.509 115.402C224.489 115.499 224.499 115.6 224.537 115.691C224.575 115.783 224.639 115.861 224.722 115.916C224.804 115.971 224.901 116 225 116H231C231.099 116 231.196 115.971 231.278 115.916C231.361 115.861 231.425 115.783 231.463 115.691C231.501 115.6 231.511 115.499 231.491 115.402C231.472 115.305 231.424 115.216 231.354 115.146L228.354 112.146Z" fill="#676E77"/>
<path d="M231 120H225C224.901 120 224.804 120.029 224.722 120.084C224.639 120.139 224.575 120.217 224.537 120.309C224.499 120.4 224.489 120.501 224.509 120.598C224.528 120.695 224.576 120.784 224.646 120.854L227.646 123.854C227.692 123.901 227.748 123.938 227.808 123.963C227.869 123.988 227.934 124.001 228 124.001C228.066 124.001 228.131 123.988 228.192 123.963C228.252 123.938 228.308 123.901 228.354 123.854L231.354 120.854C231.424 120.784 231.472 120.695 231.491 120.598C231.511 120.501 231.501 120.4 231.463 120.309C231.425 120.217 231.361 120.139 231.278 120.084C231.196 120.029 231.099 120 231 120Z" fill="#676E77"/>
</g>
<rect x="84" y="140" width="98" height="32" rx="6" fill="#676E77" fill-opacity="0.24"/>
<path d="M97.168 158.944V151.66H95.908V152.812H94.552V153.868H95.908V158.944H94.516V160H98.248V158.944H97.168ZM105.208 157.072H104.188V151.672H102.94L98.7163 157.168V158.08H102.928V160H104.188V158.08H105.208V157.072ZM102.94 157.072H100.06L102.94 153.328V157.072Z" fill="#E2E1E4"/>
<g clip-path="url(#clip6_20_180)">
<path d="M166.354 150.146C166.308 150.099 166.252 150.063 166.192 150.037C166.131 150.012 166.066 149.999 166 149.999C165.934 149.999 165.869 150.012 165.808 150.037C165.748 150.063 165.692 150.099 165.646 150.146L162.646 153.146C162.576 153.216 162.528 153.305 162.509 153.402C162.489 153.499 162.499 153.6 162.537 153.691C162.575 153.783 162.639 153.861 162.722 153.916C162.804 153.971 162.901 154 163 154H169C169.099 154 169.196 153.971 169.278 153.916C169.361 153.861 169.425 153.783 169.463 153.691C169.501 153.6 169.511 153.499 169.491 153.402C169.472 153.305 169.424 153.216 169.354 153.146L166.354 150.146Z" fill="#676E77"/>
<path d="M169 158H163C162.901 158 162.804 158.029 162.722 158.084C162.639 158.139 162.575 158.217 162.537 158.309C162.499 158.4 162.489 158.501 162.509 158.598C162.528 158.695 162.576 158.784 162.646 158.854L165.646 161.854C165.692 161.901 165.748 161.938 165.808 161.963C165.869 161.988 165.934 162.001 166 162.001C166.066 162.001 166.131 161.988 166.192 161.963C166.252 161.938 166.308 161.901 166.354 161.854L169.354 158.854C169.424 158.784 169.472 158.695 169.491 158.598C169.511 158.501 169.501 158.4 169.463 158.309C169.425 158.217 169.361 158.139 169.278 158.084C169.196 158.029 169.099 158 169 158Z" fill="#676E77"/>
</g>
<rect x="186" y="140" width="58" height="32" rx="6" fill="#676E77" fill-opacity="0.24"/>
<path d="M200.212 153.544C199.24 153.544 198.46 153.964 197.956 154.672V153.676H196.78V162.148H198.052V159.16C198.544 159.784 199.276 160.144 200.188 160.144C201.988 160.144 203.308 158.728 203.308 156.844C203.308 154.96 202.024 153.544 200.212 153.544ZM200.032 159.016C198.82 159.016 197.992 158.128 197.992 156.844C197.992 155.56 198.832 154.66 200.032 154.66C201.196 154.66 202.048 155.584 202.048 156.844C202.048 158.092 201.184 159.016 200.032 159.016ZM209.755 160L207.307 156.82L209.695 153.676H208.327L206.623 155.92L204.895 153.676H203.491L205.843 156.736L203.335 160H204.679L206.527 157.624L208.351 160H209.755Z" fill="#E2E1E4"/>
<g clip-path="url(#clip7_20_180)">
<path d="M228.354 150.146C228.308 150.099 228.252 150.063 228.192 150.037C228.131 150.012 228.066 149.999 228 149.999C227.934 149.999 227.869 150.012 227.808 150.037C227.748 150.063 227.692 150.099 227.646 150.146L224.646 153.146C224.576 153.216 224.528 153.305 224.509 153.402C224.489 153.499 224.499 153.6 224.537 153.691C224.575 153.783 224.639 153.861 224.722 153.916C224.804 153.971 224.901 154 225 154H231C231.099 154 231.196 153.971 231.278 153.916C231.361 153.861 231.425 153.783 231.463 153.691C231.501 153.6 231.511 153.499 231.491 153.402C231.472 153.305 231.424 153.216 231.354 153.146L228.354 150.146Z" fill="#676E77"/>
<path d="M231 158H225C224.901 158 224.804 158.029 224.722 158.084C224.639 158.139 224.575 158.217 224.537 158.309C224.499 158.4 224.489 158.501 224.509 158.598C224.528 158.695 224.576 158.784 224.646 158.854L227.646 161.854C227.692 161.901 227.748 161.938 227.808 161.963C227.869 161.988 227.934 162.001 228 162.001C228.066 162.001 228.131 161.988 228.192 161.963C228.252 161.938 228.308 161.901 228.354 161.854L231.354 158.854C231.424 158.784 231.472 158.695 231.491 158.598C231.511 158.501 231.501 158.4 231.463 158.309C231.425 158.217 231.361 158.139 231.278 158.084C231.196 158.029 231.099 158 231 158Z" fill="#676E77"/>
</g>
<circle cx="95" cy="194" r="9" fill="#0C0E12" stroke="white" stroke-width="2"/>
<circle cx="95" cy="194" r="6" fill="white"/>
<circle cx="117" cy="194" r="6" fill="#676E77"/>
<circle opacity="0.3" cx="139" cy="194" r="6" fill="#676E77"/>
<circle cx="161" cy="194" r="6" fill="#E85D75"/>
<circle cx="183" cy="194" r="6" fill="#425DF9"/>
<circle cx="205" cy="194" r="6" fill="#FF9D2A"/>
<circle cx="227" cy="194" r="6" fill="#33CA7F"/>
<defs>
<clipPath id="clip0_20_180">
<rect width="12" height="12" fill="white" transform="translate(222 74)"/>
</clipPath>
<clipPath id="clip1_20_180">
<rect width="12" height="12" fill="white" transform="translate(92 224)"/>
</clipPath>
<clipPath id="clip2_20_180">
<rect width="12" height="12" fill="white" transform="translate(124 224)"/>
</clipPath>
<clipPath id="clip3_20_180">
<rect width="12" height="12" fill="white" transform="translate(156 224)"/>
</clipPath>
<clipPath id="clip4_20_180">
<rect width="12" height="12" fill="white" transform="translate(184 224)"/>
</clipPath>
<clipPath id="clip5_20_180">
<rect width="12" height="12" fill="white" transform="translate(222 112)"/>
</clipPath>
<clipPath id="clip6_20_180">
<rect width="12" height="12" fill="white" transform="translate(160 150)"/>
</clipPath>
<clipPath id="clip7_20_180">
<rect width="12" height="12" fill="white" transform="translate(222 150)"/>
</clipPath>
</defs>
</svg>
