<svg width="48" height="48" viewBox="0 0 48 48" fill="none" xmlns="http://www.w3.org/2000/svg">
<rect width="48" height="48" rx="24" fill="black"/>
<path fill-rule="evenodd" clip-rule="evenodd" d="M26.1637 18.2242C25.5692 18.5446 25.3479 19.0859 25.3479 20.5805C25.3479 20.5805 25.6489 20.2811 26.0953 20.1143C26.4209 19.9934 26.699 19.8085 26.8595 19.6876C27.3618 19.3089 27.4398 18.8217 27.4398 18.0008C27.4398 18.0008 26.6206 17.9781 26.1637 18.2242ZM22.6382 18.5744C22.1533 19.014 22.0116 19.7148 22.0116 19.7148L20.4066 26.1123L19.0718 20.8762C18.9417 20.3195 18.7074 19.6316 18.3364 19.1662C17.8641 18.5735 16.904 18.5362 16.8019 18.5362C16.6993 18.5362 15.7392 18.5735 15.2665 19.1662C14.8959 19.6316 14.6616 20.3195 14.5316 20.8762L13.1967 26.1123L11.5913 19.7148C11.5913 19.7148 11.45 19.014 10.9652 18.5744C10.1789 17.8616 9 18.0138 9 18.0138L12.0736 29.9696C12.0736 29.9696 13.0875 30.0451 13.5952 29.7788C14.2614 29.4296 14.5787 29.1599 14.9822 27.5332C15.3415 26.0827 16.3466 21.8227 16.4404 21.5195C16.4871 21.3698 16.5459 21.0117 16.8019 21.0117C17.0628 21.0117 17.117 21.3694 17.1625 21.5195C17.2546 21.8231 18.2614 26.0827 18.6211 27.5332C19.0247 29.1599 19.3415 29.4296 20.0081 29.7788C20.5154 30.0451 21.5293 29.9696 21.5293 29.9696L24.6029 18.0138C24.6029 18.0138 23.4244 17.8616 22.6382 18.5744ZM27.4388 19.9657C27.4388 19.9657 27.2466 20.2719 26.8076 20.5241C26.5262 20.6862 26.2557 20.796 25.9655 20.9392C25.4794 21.179 25.3477 21.4462 25.3477 21.8536V21.99V22.6196V22.6367V22.7787V29.9696C25.3477 29.9696 26.1235 30.0709 26.6309 29.8045C27.2837 29.4623 27.4338 29.1321 27.4396 27.6451V20.3989L27.4388 20.3993V19.9657ZM35.1001 24.0208L39 18.0534C39 18.0534 37.3542 17.7652 36.5392 18.5281C36.0177 19.0166 35.4344 19.895 35.4344 19.895L33.9995 22.0231C33.9299 22.1337 33.8386 22.2542 33.6931 22.2542C33.5477 22.2542 33.4568 22.1337 33.3872 22.0231L31.9523 19.895C31.9523 19.895 31.369 19.0166 30.8475 18.5281C30.0325 17.7652 28.3867 18.0534 28.3867 18.0534L32.2862 24.0208L28.3967 29.9697C28.3967 29.9697 30.1109 30.1927 30.9259 29.4289C31.4474 28.9408 31.9523 28.1465 31.9523 28.1465L33.3872 26.0189C33.4568 25.9078 33.5477 25.7877 33.6931 25.7877C33.8386 25.7877 33.9299 25.9078 33.9995 26.0189L35.4344 28.1465C35.4344 28.1465 35.9685 28.9408 36.49 29.4289C37.3054 30.1927 38.9896 29.9697 38.9896 29.9697L35.1001 24.0208Z" fill="white"/>
</svg>
