<svg version="1.2" xmlns="http://www.w3.org/2000/svg" viewBox="0 0 524 433" width="524" height="433">
	<title>&lt;Group&gt;</title>
	<defs>
		<linearGradient id="g1" x1="281.9" y1="175" x2="281.9" y2="263.3" gradientUnits="userSpaceOnUse">
			<stop offset="0" stop-color="#8066ac"/>
			<stop offset="1" stop-color="#5d55a4" stop-opacity="0"/>
		</linearGradient>
		<linearGradient id="g2" x1="324.3" y1="62.2" x2="372.3" y2="185.2" gradientUnits="userSpaceOnUse">
			<stop offset="0" stop-color="#9f08fc"/>
			<stop offset="1" stop-color="#5d55a4"/>
		</linearGradient>
		<linearGradient id="g3" x1="63.6" y1="392.8" x2="334.3" y2="392.8" gradientUnits="userSpaceOnUse">
			<stop offset="0" stop-color="#9f08fc"/>
			<stop offset="1" stop-color="#5d55a4"/>
		</linearGradient>
	</defs>
	<style>
		.s0 { fill: #2E2136 } 
		.s1 { fill: #ffffff } 
		.s2 { fill: #5f616e } 
		.s3 { fill: none;stroke: #f2f3f7 } 
		.s4 { fill: #2e2136;stroke: #f2f3f7 } 
		.s5 { opacity: .2;fill: url(#g1) } 
		.s6 { fill: none;stroke: #f2f3f7;stroke-width: 2 } 
		.s7 { fill: url(#g2) } 
		.s8 { fill: none;stroke: #ffffff;stroke-linecap: round } 
		.s9 { fill: #9f08fc } 
		.s10 { fill: #ff7c9f } 
		.s11 { fill: #f9d967 } 
		.s12 { fill: #f96767 } 
		.s13 { fill: #f2f3f7 } 
		.s14 { fill: url(#g3) } 
	</style>
	<g id="&lt;Group&gt;">
		<g id="&lt;Group&gt;">
			<path id="&lt;Path&gt;" class="s0" d="m6.1 26.3c0-14.1 11.4-25.5 25.5-25.5h422.4c14.1 0 25.5 11.4 25.5 25.5v380.9c0 14-11.4 25.4-25.5 25.4h-422.4c-14.1 0-25.5-11.4-25.5-25.4z"/>
		</g>
		<path id="Grow your business" class="s1" aria-label="Grow your business"  d="m42 36.2q-1.1 0-2-0.5-0.8-0.4-1.3-1.1-0.5-0.7-0.7-1.6-0.3-0.9-0.3-1.9 0-0.9 0.3-1.8 0.2-0.9 0.7-1.6 0.6-0.8 1.4-1.2 0.8-0.5 1.9-0.5 0.9 0 1.6 0.3 0.6 0.3 1.1 0.8 0.4 0.5 0.7 1l-1.6 0.9q-0.3-0.5-0.7-0.9-0.5-0.3-1.1-0.3-0.7 0-1.2 0.3-0.4 0.3-0.7 0.8-0.3 0.5-0.4 1.1-0.1 0.5-0.1 1.1 0 0.6 0.1 1.2 0.2 0.6 0.5 1.1 0.2 0.5 0.7 0.8 0.5 0.2 1.1 0.2 0.5 0 0.9-0.2 0.4-0.2 0.6-0.6 0.2-0.3 0.2-0.8v-0.2h-1.6v-1.7h3.5v1.4q0 1.3-0.5 2.1-0.5 0.9-1.3 1.3-0.8 0.5-1.8 0.5zm7.3-0.2h-1.7v-7.2h1.7v0.8q0.2-0.4 0.6-0.7 0.5-0.2 0.9-0.2 0.8 0 1.3 0.5l-0.2 1.6q-0.3-0.2-0.6-0.3-0.3-0.1-0.6-0.1-0.4 0-0.7 0.2-0.4 0.2-0.5 0.6-0.2 0.3-0.2 0.9zm6.6 0.2q-1.5 0-2.4-1-0.8-1-0.8-2.8 0-1.1 0.4-2 0.4-0.8 1.1-1.3 0.7-0.4 1.7-0.4 1 0 1.7 0.4 0.8 0.5 1.2 1.3 0.4 0.9 0.4 2 0 1.2-0.4 2-0.4 0.9-1.1 1.3-0.8 0.5-1.8 0.5zm0-1.7q0.7 0 1.1-0.6 0.4-0.5 0.4-1.5 0-1-0.4-1.5-0.4-0.6-1.1-0.6-0.7 0-1.1 0.6-0.4 0.5-0.4 1.5 0 1 0.4 1.5 0.4 0.6 1.1 0.6zm7.9 1.5h-1.6l-1.9-7.2h1.7l0.8 3.6q0.1 0.2 0.1 0.5 0.1 0.2 0.1 0.5 0.1-0.3 0.1-0.5 0.1-0.3 0.2-0.5l0.9-3.6h1.5l1 3.6q0 0.2 0.1 0.5 0.1 0.3 0.1 0.5 0.1-0.3 0.1-0.5 0.1-0.3 0.1-0.5l0.9-3.6h1.7l-2 7.2h-1.5l-1-3.6q0-0.2-0.1-0.5-0.1-0.3-0.1-0.6-0.1 0.3-0.1 0.6-0.1 0.3-0.2 0.5zm13.8 2.7h-1.8l1-2.8-2.6-7h1.8l1.5 4.1q0.1 0.2 0.1 0.4 0.1 0.1 0.1 0.3 0.1-0.2 0.1-0.3 0.1-0.2 0.2-0.4l1.5-4.1h1.8zm8-2.6q-1.5 0-2.4-1-0.9-1-0.9-2.7 0-1.2 0.4-2 0.4-0.9 1.1-1.3 0.8-0.5 1.8-0.5 1 0 1.7 0.5 0.7 0.4 1.1 1.3 0.4 0.8 0.4 2 0 1.1-0.4 2-0.4 0.8-1.1 1.3-0.7 0.4-1.7 0.4zm0-1.7q0.7 0 1.1-0.5 0.4-0.6 0.4-1.5 0-1-0.4-1.6-0.4-0.5-1.1-0.5-0.7 0-1.1 0.5-0.4 0.6-0.4 1.6 0 0.9 0.4 1.5 0.4 0.5 1.1 0.5zm7.5 1.7q-1.2 0-1.9-0.7-0.6-0.8-0.6-2.1v-4.5h1.7v3.9q0 0.9 0.3 1.3 0.3 0.4 1 0.4 0.7 0 1-0.4 0.4-0.4 0.4-1.3v-3.9h1.7v7.1h-1.7v-0.6q-0.4 0.4-0.8 0.6-0.5 0.2-1.1 0.2zm7.6-0.2h-1.8v-7.1h1.8v0.8q0.2-0.5 0.6-0.7 0.4-0.3 0.9-0.3 0.7 0 1.3 0.5l-0.3 1.6q-0.3-0.2-0.5-0.3-0.3-0.1-0.6-0.1-0.5 0-0.8 0.2-0.3 0.2-0.5 0.6-0.1 0.4-0.1 0.9zm10.8 0.2q-0.5 0-0.8-0.2-0.4-0.2-0.7-0.5v0.5h-1.7v-9.3l1.7-0.8v3.5q0.3-0.3 0.7-0.5 0.4-0.2 0.9-0.2 0.8 0 1.5 0.5 0.7 0.4 1.1 1.3 0.3 0.8 0.3 1.9 0 1.8-0.8 2.8-0.8 1-2.2 1zm-0.2-1.7q0.7 0 1.1-0.5 0.4-0.6 0.4-1.6 0-1-0.4-1.5-0.4-0.5-1.1-0.5-0.4 0-0.7 0.1-0.4 0.2-0.6 0.5v2.9q0.2 0.3 0.5 0.5 0.4 0.1 0.8 0.1zm7.5 1.7q-1.2 0-1.9-0.7-0.6-0.8-0.6-2.2v-4.4h1.7v3.9q0 0.9 0.3 1.3 0.3 0.4 1 0.4 0.7 0 1-0.4 0.4-0.4 0.4-1.3v-3.9h1.7v7.1h-1.7v-0.6q-0.3 0.4-0.8 0.6-0.5 0.2-1.1 0.2zm8.2 0q-0.9 0-1.6-0.4-0.8-0.3-1.3-0.9l1.2-1q0.3 0.4 0.8 0.6 0.5 0.2 0.9 0.2 0.5 0 0.8-0.1 0.3-0.2 0.3-0.5 0-0.3-0.1-0.4-0.2-0.2-0.5-0.4-0.3-0.1-1-0.4-1.2-0.4-1.7-0.9-0.5-0.5-0.5-1.3 0-0.9 0.7-1.4 0.7-0.6 1.9-0.6 0.8 0 1.4 0.3 0.7 0.3 1.2 0.9l-1.2 0.9q-0.6-0.6-1.4-0.6-0.5 0-0.7 0.1-0.3 0.2-0.3 0.4 0 0.3 0.3 0.5 0.3 0.2 1.2 0.5 0.8 0.2 1.3 0.6 0.5 0.3 0.8 0.7 0.2 0.5 0.2 1 0 1-0.7 1.6-0.8 0.6-2 0.6zm6.3-0.2h-1.8v-7.1h1.8zm-0.9-8.1q-0.4 0-0.7-0.3-0.3-0.3-0.3-0.7 0-0.4 0.3-0.7 0.3-0.3 0.7-0.3 0.4 0 0.7 0.3 0.3 0.3 0.3 0.7 0 0.4-0.3 0.7-0.3 0.3-0.7 0.3zm4.8 8.1h-1.7v-7.2h1.7v0.7q0.4-0.4 0.8-0.6 0.5-0.2 1.1-0.2 1.2 0 1.9 0.7 0.6 0.7 0.6 2.1v4.5h-1.7v-3.9q0-0.9-0.3-1.4-0.3-0.4-1-0.4-0.7 0-1 0.4-0.4 0.5-0.4 1.3zm9.6 0.2q-1 0-1.8-0.5-0.7-0.4-1.1-1.3-0.4-0.8-0.4-2 0-1.1 0.4-2 0.4-0.8 1.1-1.2 0.8-0.5 1.8-0.5 0.9 0 1.6 0.4 0.7 0.3 1.1 1.1 0.4 0.7 0.4 1.9 0 0.2 0 0.4 0 0.3 0 0.6h-4.7q0 0.5 0.2 0.8 0.2 0.4 0.6 0.6 0.3 0.2 0.8 0.2 0.5 0 0.9-0.2 0.4-0.1 0.7-0.5l1 1q-0.5 0.5-1.1 0.9-0.7 0.3-1.5 0.3zm-1.6-4.5h3q0-0.5-0.2-0.8-0.2-0.3-0.5-0.5-0.3-0.2-0.8-0.2-0.6 0-1 0.4-0.4 0.4-0.5 1.1zm8.6 4.5q-0.8 0-1.6-0.4-0.7-0.3-1.2-0.9l1.2-1q0.3 0.4 0.8 0.6 0.5 0.2 0.9 0.2 0.5 0 0.8-0.1 0.3-0.2 0.3-0.5 0-0.3-0.1-0.4-0.2-0.2-0.5-0.4-0.4-0.1-1-0.4-1.2-0.4-1.7-0.9-0.5-0.5-0.5-1.3 0-0.9 0.7-1.4 0.7-0.6 1.9-0.6 0.8 0 1.4 0.3 0.7 0.3 1.2 0.9l-1.2 0.9q-0.6-0.6-1.5-0.6-0.4 0-0.6 0.1-0.3 0.2-0.3 0.4 0 0.3 0.3 0.5 0.3 0.2 1.1 0.5 0.9 0.2 1.4 0.6 0.5 0.3 0.7 0.7 0.3 0.5 0.3 1 0 1-0.8 1.6-0.7 0.6-2 0.6zm6.9 0q-0.8 0-1.6-0.4-0.7-0.3-1.2-0.9l1.2-1q0.3 0.4 0.8 0.6 0.5 0.2 0.9 0.2 0.5 0 0.8-0.1 0.3-0.2 0.3-0.5 0-0.3-0.1-0.4-0.2-0.2-0.5-0.4-0.4-0.1-1-0.4-1.2-0.4-1.7-0.9-0.5-0.5-0.5-1.3 0-0.9 0.7-1.4 0.7-0.6 1.9-0.6 0.8 0 1.4 0.3 0.7 0.3 1.2 0.9l-1.2 0.9q-0.6-0.6-1.5-0.6-0.4 0-0.6 0.1-0.3 0.2-0.3 0.4 0 0.3 0.3 0.5 0.3 0.2 1.1 0.5 0.9 0.2 1.4 0.6 0.5 0.3 0.7 0.7 0.3 0.5 0.3 1 0 1-0.8 1.6-0.7 0.6-2 0.6z"/>
		<path id="1000
800
600
400
200
0
" class="s2" aria-label="1000
800
600
400
200
0"  d="m36 84h-0.6v-4.5h-0.9v-0.4q0.3 0 0.5-0.1 0.2 0 0.4-0.2 0.1-0.1 0.2-0.4h0.4zm3.5 0.1q-0.5 0-0.9-0.3-0.3-0.2-0.6-0.6-0.2-0.5-0.3-1-0.1-0.5-0.1-1 0-0.4 0.1-0.8 0-0.4 0.2-0.7 0.1-0.4 0.3-0.7 0.2-0.3 0.5-0.5 0.4-0.2 0.8-0.2 0.6 0 0.9 0.3 0.4 0.2 0.6 0.6 0.3 0.5 0.3 1 0.1 0.5 0.1 1 0 0.4 0 0.8-0.1 0.4-0.2 0.7-0.1 0.4-0.3 0.7-0.3 0.3-0.6 0.5-0.3 0.2-0.8 0.2zm0-0.5q0.4 0 0.7-0.3 0.3-0.2 0.4-0.5 0.1-0.4 0.2-0.8 0-0.4 0-0.8 0-0.4 0-0.8-0.1-0.5-0.2-0.8-0.2-0.4-0.4-0.6-0.3-0.2-0.7-0.2-0.4 0-0.6 0.3-0.3 0.2-0.4 0.5-0.2 0.4-0.2 0.8-0.1 0.4-0.1 0.8 0 0.4 0.1 0.9 0 0.4 0.2 0.7 0.1 0.4 0.4 0.6 0.3 0.2 0.6 0.2zm5 0.5q-0.5 0-0.9-0.3-0.4-0.2-0.6-0.6-0.2-0.5-0.3-1-0.1-0.5-0.1-1 0-0.4 0.1-0.8 0-0.4 0.2-0.7 0.1-0.4 0.3-0.7 0.2-0.3 0.5-0.5 0.4-0.2 0.8-0.2 0.6 0 0.9 0.3 0.4 0.2 0.6 0.6 0.2 0.5 0.3 1 0.1 0.5 0.1 1 0 0.4 0 0.8-0.1 0.4-0.2 0.7-0.1 0.4-0.4 0.7-0.2 0.3-0.5 0.5-0.3 0.2-0.8 0.2zm0-0.5q0.4 0 0.7-0.3 0.2-0.2 0.4-0.5 0.1-0.4 0.2-0.8 0-0.4 0-0.8 0-0.4 0-0.8-0.1-0.5-0.2-0.8-0.2-0.4-0.4-0.6-0.3-0.2-0.7-0.2-0.4 0-0.6 0.3-0.3 0.2-0.4 0.5-0.2 0.4-0.2 0.8-0.1 0.4-0.1 0.8 0 0.4 0.1 0.9 0 0.4 0.2 0.7 0.1 0.4 0.4 0.6 0.2 0.2 0.6 0.2zm5 0.5q-0.5 0-0.9-0.3-0.4-0.2-0.6-0.6-0.2-0.5-0.3-1-0.1-0.5-0.1-1 0-0.4 0.1-0.8 0-0.4 0.1-0.7 0.2-0.4 0.4-0.7 0.2-0.3 0.5-0.5 0.4-0.2 0.8-0.2 0.6 0 0.9 0.3 0.4 0.2 0.6 0.6 0.2 0.5 0.3 1 0.1 0.5 0.1 1 0 0.4 0 0.8-0.1 0.4-0.2 0.7-0.1 0.4-0.4 0.7-0.2 0.3-0.5 0.5-0.3 0.2-0.8 0.2zm0-0.5q0.4 0 0.7-0.3 0.2-0.2 0.4-0.5 0.1-0.4 0.2-0.8 0-0.4 0-0.8 0-0.4 0-0.8-0.1-0.5-0.3-0.8-0.1-0.4-0.3-0.6-0.3-0.2-0.7-0.2-0.4 0-0.7 0.3-0.2 0.2-0.4 0.5-0.1 0.4-0.1 0.8-0.1 0.4-0.1 0.8 0 0.4 0.1 0.9 0 0.4 0.2 0.7 0.1 0.4 0.4 0.6 0.2 0.2 0.6 0.2zm-9.8 36.5q-0.6 0-1-0.2-0.4-0.2-0.6-0.6-0.3-0.4-0.3-0.9 0-0.5 0.3-0.9 0.3-0.4 0.8-0.6-0.3-0.1-0.5-0.3-0.1-0.1-0.2-0.4-0.1-0.2-0.1-0.5 0-0.4 0.2-0.7 0.2-0.3 0.5-0.5 0.4-0.2 0.9-0.2 0.4 0 0.8 0.2 0.3 0.2 0.5 0.5 0.2 0.3 0.2 0.7 0 0.3-0.1 0.5 0 0.2-0.2 0.4-0.2 0.2-0.5 0.3 0.5 0.2 0.8 0.6 0.3 0.4 0.3 0.9 0 0.5-0.3 0.9-0.2 0.4-0.6 0.6-0.4 0.2-0.9 0.2zm0-0.5q0.3 0 0.6-0.2 0.3-0.1 0.4-0.4 0.2-0.3 0.2-0.6 0-0.3-0.2-0.6-0.1-0.3-0.4-0.5-0.3-0.1-0.6-0.1-0.4 0-0.7 0.1-0.3 0.2-0.4 0.5-0.2 0.3-0.2 0.6 0 0.3 0.2 0.6 0.1 0.3 0.4 0.4 0.3 0.2 0.7 0.2zm0-2.9q0.4 0 0.7-0.3 0.3-0.2 0.3-0.6 0-0.5-0.3-0.7-0.3-0.3-0.7-0.3-0.5 0-0.8 0.3-0.2 0.2-0.2 0.7 0 0.4 0.2 0.6 0.3 0.3 0.8 0.3zm4.8 3.4q-0.5 0-0.9-0.3-0.4-0.2-0.6-0.6-0.2-0.5-0.3-1-0.1-0.5-0.1-1 0-0.4 0.1-0.8 0-0.4 0.2-0.7 0.1-0.4 0.3-0.7 0.2-0.3 0.5-0.5 0.4-0.2 0.8-0.2 0.6 0 0.9 0.3 0.4 0.2 0.6 0.6 0.2 0.5 0.3 1 0.1 0.5 0.1 1 0 0.4 0 0.8-0.1 0.4-0.2 0.7-0.1 0.4-0.4 0.7-0.2 0.3-0.5 0.5-0.3 0.2-0.8 0.2zm0-0.5q0.4 0 0.7-0.3 0.2-0.2 0.4-0.5 0.1-0.4 0.2-0.8 0-0.4 0-0.8 0-0.4 0-0.8-0.1-0.5-0.2-0.8-0.2-0.4-0.4-0.6-0.3-0.2-0.7-0.2-0.4 0-0.6 0.3-0.3 0.2-0.4 0.5-0.2 0.4-0.2 0.8-0.1 0.4-0.1 0.8 0 0.4 0.1 0.9 0 0.4 0.2 0.7 0.1 0.4 0.4 0.6 0.2 0.2 0.6 0.2zm5 0.5q-0.5 0-0.9-0.3-0.4-0.2-0.6-0.6-0.2-0.5-0.3-1-0.1-0.5-0.1-1 0-0.4 0.1-0.8 0-0.4 0.1-0.7 0.2-0.4 0.4-0.7 0.2-0.3 0.5-0.5 0.4-0.2 0.8-0.2 0.6 0 0.9 0.3 0.4 0.2 0.6 0.6 0.2 0.5 0.3 1 0.1 0.5 0.1 1 0 0.4 0 0.8-0.1 0.4-0.2 0.7-0.1 0.4-0.4 0.7-0.2 0.3-0.5 0.5-0.3 0.2-0.8 0.2zm0-0.5q0.4 0 0.7-0.3 0.2-0.2 0.4-0.5 0.1-0.4 0.2-0.8 0-0.4 0-0.8 0-0.4 0-0.8-0.1-0.5-0.3-0.8-0.1-0.4-0.3-0.6-0.3-0.2-0.7-0.2-0.4 0-0.7 0.3-0.2 0.2-0.4 0.5-0.1 0.4-0.1 0.8-0.1 0.4-0.1 0.8 0 0.4 0.1 0.9 0 0.4 0.2 0.7 0.1 0.4 0.4 0.6 0.2 0.2 0.6 0.2zm-9.9 36.5q-0.4 0-0.8-0.2-0.3-0.1-0.5-0.4-0.3-0.3-0.4-0.7-0.1-0.4-0.1-0.8 0-0.9 0.3-1.6 0.4-0.8 1-1.3 0.6-0.6 1.6-0.8v0.5q-0.6 0.2-1 0.5-0.5 0.3-0.8 0.7-0.3 0.5-0.4 1.1 0.2-0.3 0.5-0.4 0.3-0.2 0.8-0.2 0.4 0 0.8 0.3 0.4 0.2 0.6 0.6 0.3 0.4 0.3 0.9 0 0.5-0.3 0.9-0.2 0.4-0.6 0.7-0.4 0.2-1 0.2zm0-0.5q0.4 0 0.7-0.2 0.3-0.2 0.4-0.4 0.2-0.3 0.2-0.7 0-0.5-0.4-0.9-0.3-0.3-0.9-0.3-0.3 0-0.6 0.1-0.3 0.2-0.5 0.5-0.1 0.2-0.1 0.6 0 0.4 0.1 0.7 0.2 0.2 0.5 0.4 0.3 0.2 0.6 0.2zm4.9 0.5q-0.5 0-0.9-0.3-0.4-0.2-0.6-0.6-0.2-0.5-0.3-1-0.1-0.5-0.1-1 0-0.4 0.1-0.8 0-0.4 0.2-0.7 0.1-0.4 0.3-0.7 0.2-0.3 0.5-0.5 0.4-0.2 0.8-0.2 0.6 0 0.9 0.3 0.4 0.2 0.6 0.6 0.2 0.5 0.3 1 0.1 0.5 0.1 1 0 0.4 0 0.8-0.1 0.4-0.2 0.7-0.1 0.4-0.4 0.7-0.2 0.3-0.5 0.5-0.3 0.2-0.8 0.2zm0-0.5q0.4 0 0.7-0.3 0.2-0.2 0.4-0.5 0.1-0.4 0.2-0.8 0-0.4 0-0.8 0-0.4 0-0.8-0.1-0.5-0.2-0.8-0.2-0.4-0.4-0.6-0.3-0.2-0.7-0.2-0.4 0-0.6 0.3-0.3 0.2-0.4 0.5-0.2 0.4-0.2 0.8-0.1 0.4-0.1 0.8 0 0.4 0.1 0.9 0 0.4 0.2 0.7 0.1 0.4 0.4 0.6 0.2 0.2 0.6 0.2zm5 0.5q-0.5 0-0.9-0.3-0.4-0.2-0.6-0.6-0.2-0.5-0.3-1-0.1-0.5-0.1-1 0-0.4 0.1-0.8 0-0.4 0.1-0.7 0.2-0.4 0.4-0.7 0.2-0.3 0.5-0.5 0.4-0.2 0.8-0.2 0.6 0 0.9 0.3 0.4 0.2 0.6 0.6 0.2 0.5 0.3 1 0.1 0.5 0.1 1 0 0.4 0 0.8-0.1 0.4-0.2 0.7-0.1 0.4-0.4 0.7-0.2 0.3-0.5 0.5-0.3 0.2-0.8 0.2zm0-0.5q0.4 0 0.7-0.3 0.2-0.2 0.4-0.5 0.1-0.4 0.2-0.8 0-0.4 0-0.8 0-0.4 0-0.8-0.1-0.5-0.3-0.8-0.1-0.4-0.3-0.6-0.3-0.2-0.7-0.2-0.4 0-0.7 0.3-0.2 0.2-0.4 0.5-0.1 0.4-0.1 0.8-0.1 0.4-0.1 0.8 0 0.4 0.1 0.9 0 0.4 0.2 0.7 0.1 0.4 0.4 0.6 0.2 0.2 0.6 0.2zm-8.7 36.4h-0.6v-1.5h-2.8v-0.3l2.9-3.8h0.5v3.6h0.8v0.5h-0.8zm-0.6-4.7l-2.1 2.8h2.1zm4.3 4.8q-0.5 0-0.9-0.3-0.4-0.2-0.6-0.6-0.2-0.5-0.3-1-0.1-0.5-0.1-1 0-0.4 0.1-0.8 0-0.4 0.2-0.8 0.1-0.3 0.3-0.6 0.2-0.3 0.5-0.5 0.4-0.2 0.8-0.2 0.6 0 0.9 0.2 0.4 0.3 0.6 0.7 0.2 0.4 0.3 1 0.1 0.5 0.1 1 0 0.3 0 0.7-0.1 0.4-0.2 0.8-0.1 0.4-0.4 0.7-0.2 0.3-0.5 0.5-0.3 0.2-0.8 0.2zm0-0.6q0.4 0 0.7-0.2 0.2-0.2 0.4-0.6 0.1-0.3 0.2-0.7 0-0.4 0-0.8 0-0.4 0-0.9-0.1-0.4-0.2-0.7-0.2-0.4-0.4-0.6-0.3-0.2-0.7-0.2-0.4 0-0.6 0.2-0.3 0.3-0.4 0.6-0.2 0.4-0.2 0.8-0.1 0.4-0.1 0.8 0 0.4 0.1 0.8 0 0.5 0.2 0.8 0.1 0.3 0.4 0.5 0.2 0.2 0.6 0.2zm5 0.6q-0.5 0-0.9-0.3-0.4-0.2-0.6-0.6-0.2-0.5-0.3-1-0.1-0.5-0.1-1 0-0.4 0.1-0.8 0-0.4 0.1-0.8 0.2-0.3 0.4-0.6 0.2-0.3 0.5-0.5 0.4-0.2 0.8-0.2 0.6 0 0.9 0.2 0.4 0.3 0.6 0.7 0.2 0.4 0.3 1 0.1 0.5 0.1 1 0 0.3 0 0.7-0.1 0.4-0.2 0.8-0.1 0.4-0.4 0.7-0.2 0.3-0.5 0.5-0.3 0.2-0.8 0.2zm0-0.6q0.4 0 0.7-0.2 0.2-0.2 0.4-0.6 0.1-0.3 0.2-0.7 0-0.4 0-0.8 0-0.4 0-0.9-0.1-0.4-0.3-0.7-0.1-0.4-0.3-0.6-0.3-0.2-0.7-0.2-0.4 0-0.7 0.2-0.2 0.3-0.4 0.6-0.1 0.4-0.1 0.8-0.1 0.4-0.1 0.8 0 0.4 0.1 0.8 0 0.5 0.2 0.8 0.1 0.3 0.4 0.5 0.2 0.2 0.6 0.2zm-8.1 36.5h-3.7q0-0.5 0.2-0.9 0.1-0.4 0.4-0.7 0.2-0.3 0.5-0.6 0.4-0.2 0.7-0.4 0.3-0.2 0.6-0.4 0.3-0.2 0.5-0.5 0.2-0.3 0.2-0.6 0-0.5-0.3-0.8-0.4-0.3-0.9-0.3-0.5 0-0.8 0.3-0.3 0.2-0.5 0.6l-0.5-0.2q0.2-0.5 0.7-0.9 0.4-0.3 1.1-0.3 0.6 0 0.9 0.2 0.4 0.2 0.6 0.5 0.2 0.4 0.2 0.9 0 0.5-0.2 0.8-0.2 0.4-0.6 0.7-0.3 0.2-0.7 0.5-0.4 0.2-0.7 0.4-0.3 0.2-0.5 0.5-0.2 0.3-0.2 0.6h3zm3.1 0.1q-0.5 0-0.9-0.2-0.4-0.3-0.6-0.7-0.2-0.4-0.3-0.9-0.1-0.5-0.1-1.1 0-0.3 0.1-0.7 0-0.4 0.2-0.8 0.1-0.4 0.3-0.7 0.2-0.3 0.5-0.5 0.4-0.2 0.8-0.2 0.6 0 0.9 0.3 0.4 0.2 0.6 0.7 0.2 0.4 0.3 0.9 0.1 0.5 0.1 1 0 0.4 0 0.8-0.1 0.4-0.2 0.8-0.1 0.4-0.4 0.7-0.2 0.3-0.5 0.5-0.3 0.1-0.8 0.1zm0-0.5q0.4 0 0.7-0.2 0.2-0.2 0.4-0.6 0.1-0.4 0.2-0.8 0-0.4 0-0.8 0-0.4 0-0.8-0.1-0.4-0.2-0.8-0.2-0.3-0.4-0.5-0.3-0.2-0.7-0.2-0.4 0-0.6 0.2-0.3 0.2-0.4 0.6-0.2 0.3-0.2 0.7-0.1 0.5-0.1 0.8 0 0.5 0.1 0.9 0 0.4 0.2 0.8 0.1 0.3 0.4 0.5 0.2 0.2 0.6 0.2zm5 0.5q-0.5 0-0.9-0.2-0.4-0.3-0.6-0.7-0.2-0.4-0.3-0.9-0.1-0.5-0.1-1.1 0-0.3 0.1-0.7 0-0.4 0.1-0.8 0.2-0.4 0.4-0.7 0.2-0.3 0.5-0.5 0.4-0.2 0.8-0.2 0.6 0 0.9 0.3 0.4 0.2 0.6 0.7 0.2 0.4 0.3 0.9 0.1 0.5 0.1 1 0 0.4 0 0.8-0.1 0.4-0.2 0.8-0.1 0.4-0.4 0.7-0.2 0.3-0.5 0.5-0.3 0.1-0.8 0.1zm0-0.5q0.4 0 0.7-0.2 0.2-0.2 0.4-0.6 0.1-0.4 0.2-0.8 0-0.4 0-0.8 0-0.4 0-0.8-0.1-0.4-0.3-0.8-0.1-0.3-0.3-0.5-0.3-0.2-0.7-0.2-0.4 0-0.7 0.2-0.2 0.2-0.4 0.6-0.1 0.3-0.1 0.7-0.1 0.5-0.1 0.8 0 0.5 0.1 0.9 0 0.4 0.2 0.8 0.1 0.3 0.4 0.5 0.2 0.2 0.6 0.2zm0 36.5q-0.5 0-0.9-0.2-0.4-0.3-0.6-0.7-0.2-0.4-0.3-0.9-0.1-0.5-0.1-1.1 0-0.3 0.1-0.7 0-0.4 0.1-0.8 0.2-0.4 0.4-0.7 0.2-0.3 0.5-0.5 0.4-0.2 0.8-0.2 0.6 0 0.9 0.3 0.4 0.2 0.6 0.7 0.2 0.4 0.3 0.9 0.1 0.5 0.1 1 0 0.4 0 0.8-0.1 0.4-0.2 0.8-0.1 0.4-0.4 0.7-0.2 0.3-0.5 0.5-0.3 0.1-0.8 0.1zm0-0.5q0.4 0 0.7-0.2 0.2-0.2 0.4-0.6 0.1-0.4 0.2-0.8 0-0.4 0-0.8 0-0.4 0-0.8-0.1-0.4-0.3-0.8-0.1-0.3-0.3-0.5-0.3-0.2-0.7-0.2-0.4 0-0.7 0.2-0.2 0.2-0.4 0.6-0.1 0.3-0.1 0.7-0.1 0.5-0.1 0.8 0 0.5 0.1 0.9 0 0.4 0.2 0.8 0.1 0.3 0.4 0.5 0.2 0.2 0.6 0.2z"/>
		<path id="Jan 	Feb	Mar	Apr	May	Jun	Jul	Aug	Sep
" class="s2" aria-label="Jan 	Feb	Mar	Apr	May	Jun	Jul	Aug	Sep"  d="m65.4 285.1q-0.6 0-1-0.3-0.4-0.2-0.6-0.7l0.5-0.2q0.1 0.3 0.4 0.5 0.2 0.2 0.7 0.2 0.2 0 0.4-0.1 0.2-0.1 0.4-0.2 0.1-0.2 0.2-0.4 0.1-0.3 0.1-0.7v-3.8h0.6v3.8q0 0.6-0.2 0.9-0.1 0.4-0.4 0.6-0.2 0.2-0.6 0.3-0.3 0.1-0.5 0.1zm4.3 0q-0.6 0-1-0.4-0.3-0.3-0.3-1 0-0.4 0.1-0.7 0.2-0.3 0.6-0.4 0.3-0.2 0.7-0.2 0.3 0 0.6 0.1 0.3 0.1 0.5 0.2v-0.4q0-0.5-0.2-0.7-0.2-0.3-0.7-0.3-0.3 0-0.6 0.1-0.3 0.1-0.6 0.3l-0.1-0.5q0.3-0.2 0.7-0.3 0.3-0.1 0.7-0.1 0.7 0 1 0.4 0.4 0.3 0.4 1v2.8h-0.6v-0.5q-0.2 0.3-0.5 0.5-0.3 0.1-0.7 0.1zm0.1-0.5q0.3 0 0.6-0.2 0.3-0.1 0.5-0.4v-0.8q-0.2-0.1-0.5-0.2-0.2-0.1-0.5-0.1-0.5 0-0.7 0.2-0.3 0.3-0.3 0.6 0 0.4 0.2 0.7 0.3 0.2 0.7 0.2zm3.6 0.4h-0.5v-4.1h0.5v0.5q0.2-0.3 0.5-0.4 0.3-0.2 0.6-0.2 0.8 0 1.1 0.5 0.4 0.4 0.4 1.3v2.4h-0.6v-2.5q0-0.6-0.2-0.9-0.3-0.3-0.7-0.3-0.5 0-0.8 0.3-0.3 0.3-0.3 0.9zm63.5 0h-0.5v-5.6h3.2v0.6h-2.7v1.9h1.8v0.5h-1.8zm4.7 0.1q-0.6 0-1-0.3-0.4-0.2-0.6-0.7-0.2-0.5-0.2-1.1 0-0.7 0.2-1.2 0.3-0.5 0.6-0.7 0.4-0.3 1-0.3 0.4 0 0.8 0.2 0.4 0.3 0.6 0.7 0.2 0.4 0.2 1.1 0 0.1 0 0.2 0 0.1 0 0.2h-2.8q0 0.4 0.2 0.7 0.1 0.3 0.4 0.5 0.2 0.2 0.6 0.2 0.2 0 0.5-0.1 0.2-0.1 0.4-0.3l0.3 0.4q-0.2 0.2-0.5 0.4-0.3 0.1-0.7 0.1zm-1.2-2.4h2.2q0-0.4-0.1-0.7-0.1-0.3-0.4-0.5-0.2-0.2-0.5-0.2-0.5 0-0.8 0.3-0.4 0.4-0.4 1.1zm5.6 2.4q-0.3 0-0.6-0.1-0.3-0.1-0.5-0.4v0.4h-0.6v-5.5l0.6-0.3v2.2q0.2-0.3 0.5-0.4 0.3-0.2 0.6-0.2 0.5 0 0.8 0.3 0.4 0.2 0.6 0.7 0.2 0.5 0.2 1.2 0 1-0.4 1.5-0.4 0.6-1.2 0.6zm-0.1-0.5q0.6 0 0.9-0.4 0.2-0.5 0.2-1.2 0-0.8-0.2-1.2-0.3-0.4-0.9-0.4-0.3 0-0.6 0.1-0.3 0.2-0.4 0.5v1.9q0.2 0.3 0.4 0.5 0.3 0.2 0.6 0.2zm66.5-3.3l-1.6 3.8-1.7-3.9q0-0.1-0.1-0.2 0-0.2-0.1-0.3 0 0.1 0 0.3 0 0.1 0 0.2v3.8h-0.5v-5.6h0.5l1.7 4q0 0.1 0.1 0.2 0 0.1 0.1 0.2 0-0.1 0-0.2 0.1-0.1 0.1-0.2l1.7-4h0.5v5.6h-0.5v-3.8q0-0.1 0-0.2 0-0.2 0-0.3 0 0.1-0.1 0.3-0.1 0.1-0.1 0.3zm3.2 3.8q-0.7 0-1-0.4-0.4-0.3-0.4-1 0-0.4 0.2-0.7 0.2-0.3 0.5-0.4 0.3-0.2 0.8-0.2 0.3 0 0.6 0.1 0.2 0.1 0.5 0.2v-0.4q0-0.5-0.2-0.7-0.3-0.3-0.7-0.3-0.3 0-0.6 0.1-0.4 0.1-0.6 0.3l-0.2-0.4q0.3-0.3 0.7-0.4 0.4-0.1 0.7-0.1 0.7 0 1.1 0.4 0.3 0.3 0.3 1v2.8h-0.5v-0.5q-0.3 0.3-0.6 0.5-0.3 0.1-0.6 0.1zm0.1-0.5q0.3 0 0.6-0.1 0.2-0.2 0.5-0.5v-0.8q-0.2-0.1-0.5-0.2-0.3-0.1-0.5-0.1-0.5 0-0.8 0.2-0.3 0.3-0.3 0.7 0 0.3 0.3 0.6 0.2 0.2 0.7 0.2zm3.6 0.4h-0.6v-4.1h0.6v0.7q0.1-0.4 0.4-0.6 0.3-0.2 0.6-0.2 0.4 0 0.6 0.2l-0.1 0.6q-0.1-0.1-0.2-0.2-0.2 0-0.3 0-0.3 0-0.5 0.2-0.3 0.1-0.4 0.4-0.1 0.3-0.1 0.7zm61.3 0h-0.6l2-5.6h0.5l1.9 5.6h-0.6l-0.5-1.4h-2.2zm1.4-4.1l-0.8 2.2h2l-0.8-2.2q0-0.1-0.1-0.2 0-0.1 0-0.3-0.1-0.1-0.1-0.2 0 0.1-0.1 0.2 0 0.2 0 0.3-0.1 0.1-0.1 0.2zm4.1 5.4l-0.5 0.3v-5.7h0.5v0.4q0.5-0.5 1.2-0.5 0.5 0 0.8 0.3 0.4 0.2 0.6 0.7 0.2 0.5 0.2 1.1 0 0.7-0.2 1.2-0.2 0.5-0.6 0.7-0.4 0.3-0.9 0.3-0.3 0-0.6-0.2-0.3-0.1-0.5-0.4zm1.1-1.8q0.5 0 0.8-0.4 0.3-0.4 0.3-1.2 0-0.7-0.3-1.2-0.3-0.4-0.8-0.4-0.4 0-0.6 0.2-0.3 0.1-0.5 0.4v2q0.2 0.3 0.5 0.4 0.3 0.2 0.6 0.2zm3.4 0.4h-0.6v-4h0.6v0.6q0.2-0.4 0.4-0.5 0.3-0.2 0.7-0.2 0.3 0 0.6 0.2l-0.1 0.5q-0.2-0.1-0.3-0.1-0.1-0.1-0.3-0.1-0.3 0-0.5 0.2-0.2 0.2-0.4 0.5-0.1 0.3-0.1 0.7zm65.8-3.8l-1.6 3.9-1.7-3.9q0-0.1-0.1-0.3-0.1-0.1-0.1-0.2 0 0.1 0 0.2 0 0.2 0 0.3v3.8h-0.5v-5.6h0.5l1.7 4q0 0.1 0.1 0.2 0 0.1 0.1 0.2 0-0.1 0-0.2 0.1-0.1 0.1-0.2l1.7-4h0.5v5.6h-0.5v-3.8q0-0.1 0-0.3 0-0.1 0-0.2 0 0.1-0.1 0.2-0.1 0.2-0.1 0.3zm3.2 3.9q-0.7 0-1-0.4-0.4-0.4-0.4-1 0-0.4 0.2-0.7 0.2-0.3 0.5-0.5 0.3-0.1 0.8-0.1 0.3 0 0.6 0 0.2 0.1 0.5 0.3v-0.4q0-0.5-0.2-0.8-0.3-0.2-0.7-0.2-0.3 0-0.6 0.1-0.4 0.1-0.6 0.3l-0.2-0.5q0.3-0.2 0.7-0.3 0.4-0.1 0.7-0.1 0.7 0 1.1 0.3 0.3 0.4 0.3 1.1v2.8h-0.5v-0.5q-0.3 0.3-0.6 0.4-0.3 0.2-0.6 0.2zm0.1-0.5q0.3 0 0.6-0.2 0.2-0.2 0.5-0.5v-0.7q-0.2-0.2-0.5-0.3-0.3 0-0.6 0-0.4 0-0.7 0.2-0.3 0.2-0.3 0.6 0 0.4 0.3 0.6 0.2 0.3 0.7 0.3zm3.9 1.9h-0.6l0.7-1.6-1.5-4h0.5l1.1 2.9q0 0.1 0.1 0.2 0 0.1 0 0.2 0.1-0.1 0.1-0.2 0-0.1 0.1-0.2l1-2.9h0.6z"/>
		<g id="&lt;Group&gt;">
			<g id="&lt;Group&gt;">
				<path id="&lt;Path&gt;" class="s3" d="m460 267.3h-396.5"/>
				<path id="&lt;Path&gt;" class="s3" d="m460 230.5h-396.5"/>
				<path id="&lt;Path&gt;" class="s4" d="m460 193.6h-396.5"/>
				<path id="&lt;Path&gt;" class="s3" d="m460 156.8h-396.5"/>
				<path id="&lt;Path&gt;" class="s3" d="m460 120h-396.5"/>
				<path id="&lt;Path&gt;" class="s4" d="m460 83.1h-396.5"/>
			</g>
		</g>
		<g id="&lt;Group&gt;">
			<path id="&lt;Path&gt;" class="s5" d="m63.5 224c24.8 0 24.8-18.3 49.6-18.3 24.8 0 24.8 18.3 49.6 18.3 24.8 0 24.8-21.3 49.6-21.3 24.7 0 25.8 24 49.5 16.6 25-7.7 24.8-78.2 49.6-78.2 24.8 0 24.8 34.2 49.5 34.2 24.8 0 24.8 23.2 49.6 23.2 24.8 0 24.8 12.8 49.5 12.8v56h-396.5z"/>
			<path id="&lt;Path&gt;" class="s6" d="m460 211.3c-24.7 0-24.7-12.8-49.5-12.8-24.8 0-24.8-23.2-49.6-23.2-24.7 0-24.7-34.2-49.5-34.2-24.8 0-24.6 70.5-49.6 78.2-23.7 7.4-24.8-16.6-49.5-16.6-24.8 0-24.8 21.3-49.6 21.3-24.8 0-24.8-18.3-49.6-18.3-24.8 0-24.8 18.3-49.6 18.3"/>
		</g>
		<g id="&lt;Group&gt;">
			<path id="&lt;Path&gt;" class="s7" d="m350.7 74.8h-80.6c-4.6 0-8.3 3.7-8.3 8.3v33.7c0 4.6 3.7 8.3 8.3 8.3h33.2l3.8 6.6c1.8 3.1 4.8 3.1 6.6 0l3.8-6.6h33.2c4.6 0 8.3-3.7 8.3-8.3v-33.7c0-4.6-3.7-8.3-8.3-8.3z"/>
			<path id="highest value
" class="s1" aria-label="highest value"  d="m273 91h-0.9v-4.7l0.9-0.4v1.9q0.1-0.3 0.4-0.4 0.2-0.1 0.5-0.1 0.4 0 0.7 0.2 0.3 0.2 0.4 0.5 0.2 0.3 0.2 0.8v2.2h-0.9v-2q0-0.4-0.1-0.6-0.2-0.2-0.5-0.2-0.4 0-0.6 0.2-0.1 0.2-0.1 0.6zm4.1 0h-0.8v-3.6h0.8zm-0.4-4q-0.2 0-0.4-0.2-0.1-0.1-0.1-0.3 0-0.3 0.1-0.4 0.2-0.2 0.4-0.2 0.2 0 0.4 0.2 0.1 0.1 0.1 0.4 0 0.2-0.1 0.3-0.2 0.2-0.4 0.2zm2.8 5.5l-0.5-0.7q0.5-0.1 0.8-0.1 0.3-0.1 0.4-0.3 0.1-0.1 0.1-0.3v-0.3q-0.2 0.3-0.7 0.3-0.5 0-0.8-0.2-0.4-0.2-0.6-0.7-0.1-0.4-0.1-1 0-0.6 0.1-1 0.2-0.4 0.6-0.6 0.3-0.3 0.8-0.3 0.2 0 0.4 0.1 0.2 0.1 0.3 0.2v-0.2h0.9v3.3q0 0.5-0.1 0.8-0.1 0.3-0.3 0.5-0.2 0.3-0.5 0.4-0.3 0.1-0.8 0.1zm0.2-2.2q0.2 0 0.4-0.1 0.1-0.1 0.2-0.3v-1.4q-0.1-0.1-0.2-0.2-0.2-0.1-0.4-0.1-0.4 0-0.6 0.2-0.2 0.3-0.2 0.8 0 0.3 0.1 0.6 0.1 0.2 0.3 0.3 0.2 0.2 0.4 0.2zm3.5 0.7h-0.9v-4.7l0.9-0.4v1.9q0.2-0.2 0.4-0.4 0.2-0.1 0.5-0.1 0.5 0 0.7 0.2 0.3 0.2 0.5 0.5 0.1 0.3 0.1 0.8v2.2h-0.9v-2q0-0.4-0.1-0.6-0.2-0.2-0.5-0.2-0.4 0-0.5 0.2-0.2 0.2-0.2 0.6zm4.8 0.1q-0.5 0-0.9-0.2-0.4-0.2-0.6-0.7-0.2-0.4-0.2-1 0-0.5 0.2-1 0.2-0.4 0.6-0.6 0.4-0.2 0.9-0.2 0.4 0 0.8 0.1 0.3 0.2 0.5 0.6 0.3 0.4 0.3 1 0 0.1 0 0.2-0.1 0.1-0.1 0.3h-2.3q0 0.2 0.1 0.4 0.1 0.2 0.3 0.3 0.2 0.1 0.4 0.1 0.2 0 0.4-0.1 0.2-0.1 0.4-0.3l0.5 0.5q-0.2 0.3-0.6 0.5-0.3 0.1-0.7 0.1zm-0.8-2.2h1.5q0-0.3-0.1-0.4-0.1-0.2-0.2-0.3-0.2-0.1-0.4-0.1-0.3 0-0.6 0.2-0.2 0.2-0.2 0.6zm4.3 2.2q-0.4 0-0.8-0.2-0.4-0.1-0.6-0.4l0.6-0.5q0.2 0.2 0.4 0.3 0.2 0.1 0.5 0.1 0.2 0 0.4-0.1 0.1-0.1 0.1-0.3 0-0.1-0.1-0.1 0-0.1-0.2-0.2-0.2-0.1-0.5-0.2-0.6-0.2-0.8-0.5-0.3-0.3-0.3-0.6 0-0.5 0.4-0.8 0.3-0.2 0.9-0.2 0.4 0 0.7 0.1 0.4 0.2 0.6 0.4l-0.6 0.5q-0.3-0.3-0.7-0.3-0.2 0-0.4 0.1-0.1 0-0.1 0.2 0 0.1 0.2 0.2 0.1 0.1 0.5 0.3 0.5 0.1 0.7 0.2 0.3 0.2 0.4 0.4 0.1 0.3 0.1 0.5 0 0.5-0.4 0.8-0.3 0.3-1 0.3zm3.3 0q-0.5 0-0.7-0.2-0.2-0.3-0.2-0.7v-2h-0.5v-0.8h0.5v-1l0.9-0.4v1.4h0.8v0.8h-0.8v1.8q0 0.2 0 0.3 0.1 0.1 0.3 0.1 0.2 0 0.5-0.2l-0.1 0.8q-0.1 0-0.3 0.1-0.2 0-0.4 0zm5.3-0.1h-0.9l-1.3-3.6h0.9l0.8 2.2q0 0.1 0 0.1 0 0.1 0.1 0.2 0-0.1 0-0.2 0 0 0.1-0.1l0.7-2.2h0.9zm3 0.1q-0.6 0-1-0.3-0.3-0.3-0.3-0.9 0-0.3 0.2-0.6 0.2-0.2 0.5-0.4 0.3-0.1 0.7-0.1 0.3 0 0.5 0 0.2 0.1 0.4 0.1v-0.2q0-0.3-0.2-0.4-0.2-0.2-0.5-0.2-0.3 0-0.6 0.1-0.2 0.1-0.5 0.3l-0.3-0.7q0.3-0.2 0.7-0.3 0.4-0.1 0.8-0.1 0.7 0 1.1 0.3 0.3 0.3 0.3 1v2.3h-0.8v-0.2q-0.2 0.1-0.5 0.2-0.2 0.1-0.5 0.1zm0.2-0.7q0.2 0 0.4-0.1 0.2-0.1 0.4-0.2v-0.5q-0.2 0-0.4-0.1-0.2 0-0.3 0-0.4 0-0.6 0.1-0.1 0.1-0.1 0.3 0 0.2 0.1 0.4 0.2 0.1 0.5 0.1zm3.5 0.6h-0.8v-4.6l0.8-0.4zm2.4 0q-0.6 0-0.9-0.3-0.4-0.4-0.4-1.1v-2.2h0.9v1.9q0 0.5 0.2 0.7 0.1 0.2 0.5 0.2 0.3 0 0.5-0.2 0.2-0.2 0.2-0.7v-1.9h0.8v3.6h-0.8v-0.4q-0.2 0.2-0.4 0.3-0.3 0.1-0.6 0.1zm4.4 0q-0.6 0-0.9-0.2-0.4-0.2-0.6-0.6-0.2-0.5-0.2-1 0-0.6 0.2-1 0.2-0.5 0.6-0.7 0.4-0.2 0.9-0.2 0.4 0 0.8 0.2 0.3 0.1 0.5 0.5 0.2 0.4 0.2 1 0 0.1 0 0.2 0 0.1 0 0.3h-2.3q0 0.2 0.1 0.4 0.1 0.2 0.3 0.3 0.1 0.1 0.4 0.1 0.2 0 0.4-0.1 0.2-0.1 0.4-0.3l0.5 0.6q-0.3 0.2-0.6 0.4-0.3 0.1-0.7 0.1zm-0.8-2.2h1.5q0-0.2-0.1-0.4-0.1-0.2-0.3-0.3-0.1-0.1-0.4-0.1-0.3 0-0.5 0.2-0.2 0.2-0.2 0.6z"/>
			<path id="250%
" class="s1" aria-label="250%"  d="m327.9 115h-3.4q0-0.5 0.1-0.9 0.2-0.5 0.4-0.8 0.2-0.3 0.5-0.5 0.3-0.3 0.6-0.5 0.2-0.1 0.4-0.2 0.2-0.1 0.3-0.3 0.1-0.1 0.1-0.3 0-0.3-0.2-0.5-0.2-0.2-0.5-0.2-0.3 0-0.5 0.2-0.2 0.2-0.3 0.4l-0.8-0.3q0.2-0.5 0.6-0.8 0.5-0.3 1-0.3 0.5 0 0.9 0.2 0.3 0.2 0.5 0.5 0.2 0.3 0.2 0.7 0 0.5-0.1 0.8-0.2 0.2-0.4 0.4-0.3 0.3-0.6 0.5-0.3 0.1-0.6 0.3-0.2 0.2-0.3 0.3-0.2 0.2-0.2 0.4h2.3zm2.4 0.1q-0.4 0-0.7-0.1-0.3 0-0.5-0.2-0.2-0.1-0.3-0.2l0.5-0.7q0.1 0.1 0.2 0.2 0.2 0 0.4 0.1 0.2 0.1 0.4 0.1 0.3 0 0.5-0.2 0.2-0.1 0.4-0.3 0.1-0.1 0.1-0.4 0-0.2-0.1-0.4-0.1-0.2-0.3-0.3-0.1-0.1-0.3-0.1-0.3 0-0.5 0.1-0.2 0.1-0.4 0.3l-0.8-0.4 0.2-2.5h2.8v0.9h-2l-0.1 0.9q0.2 0 0.4-0.1 0.2 0 0.4 0 0.5 0 0.9 0.2 0.3 0.2 0.5 0.6 0.2 0.3 0.2 0.8 0 0.5-0.2 0.9-0.3 0.4-0.7 0.6-0.4 0.2-1 0.2zm4.6 0q-0.5 0-0.8-0.2-0.4-0.2-0.6-0.6-0.2-0.4-0.3-0.8-0.1-0.5-0.1-0.9 0-0.4 0.1-0.8 0-0.3 0.2-0.7 0.1-0.3 0.3-0.5 0.2-0.3 0.5-0.4 0.3-0.2 0.7-0.2 0.6 0 0.9 0.2 0.4 0.3 0.6 0.6 0.2 0.4 0.3 0.8 0 0.5 0 1 0 0.3 0 0.7-0.1 0.3-0.2 0.7-0.1 0.3-0.3 0.6-0.2 0.2-0.5 0.4-0.3 0.1-0.8 0.1zm0-0.9q0.3 0 0.5-0.1 0.1-0.1 0.2-0.4 0.1-0.2 0.2-0.5 0-0.3 0-0.6 0-0.4 0-0.7-0.1-0.3-0.2-0.5-0.1-0.2-0.2-0.4-0.2-0.1-0.5-0.1-0.2 0-0.4 0.1-0.2 0.2-0.3 0.4-0.1 0.2-0.1 0.5-0.1 0.3-0.1 0.7 0 0.3 0.1 0.6 0 0.3 0.1 0.5 0.1 0.3 0.3 0.4 0.2 0.1 0.4 0.1zm4.1 0.9h-0.9l3.4-5.1h0.9zm-0.3-2.5q-0.4 0-0.7-0.2-0.2-0.2-0.3-0.5-0.2-0.3-0.2-0.6 0-0.2 0.1-0.4 0.1-0.2 0.2-0.4 0.2-0.2 0.4-0.4 0.2-0.1 0.5-0.1 0.4 0 0.6 0.1 0.2 0.1 0.4 0.3 0.1 0.2 0.2 0.5 0 0.2 0 0.4 0 0.2 0 0.4-0.1 0.3-0.2 0.5-0.2 0.2-0.4 0.3-0.2 0.1-0.6 0.1zm0-0.7q0.2 0 0.3-0.1 0.1-0.1 0.1-0.2 0.1-0.1 0.1-0.3 0-0.2-0.1-0.3 0-0.1-0.1-0.2-0.1 0-0.3 0-0.1 0-0.2 0-0.1 0.1-0.1 0.2-0.1 0.2-0.1 0.3 0 0.2 0.1 0.3 0 0.1 0.1 0.2 0.1 0.1 0.2 0.1zm3 3.2q-0.5 0-0.7-0.2-0.3-0.2-0.4-0.5-0.1-0.3-0.1-0.6 0-0.2 0-0.4 0.1-0.2 0.3-0.4 0.1-0.2 0.3-0.3 0.2-0.2 0.6-0.2 0.3 0 0.5 0.1 0.3 0.2 0.4 0.3 0.1 0.2 0.2 0.5 0.1 0.2 0.1 0.4 0 0.2-0.1 0.5-0.1 0.2-0.2 0.4-0.1 0.2-0.4 0.3-0.2 0.1-0.5 0.1zm0-0.7q0.1 0 0.2-0.1 0.1-0.1 0.1-0.2 0.1-0.1 0.1-0.3 0-0.1-0.1-0.3 0-0.1-0.1-0.2-0.1 0-0.2 0-0.2 0-0.3 0-0.1 0.1-0.1 0.3 0 0.1 0 0.2 0 0.2 0 0.3 0 0.1 0.1 0.2 0.1 0.1 0.3 0.1z"/>
			<path id="100k
" class="s1" aria-label="100k"  d="m276.8 115h-2.5v-10.2h-2.1v-2q0.7 0 1.2-0.1 0.5-0.2 0.9-0.5 0.4-0.3 0.5-0.9h2zm9 0.2q-1.5 0-2.4-0.6-1-0.6-1.6-1.6-0.5-1.1-0.8-2.3-0.2-1.3-0.2-2.5 0-1 0.1-2 0.2-1.1 0.5-2 0.3-0.9 0.9-1.6 0.6-0.7 1.4-1.1 0.9-0.4 2.1-0.4 1.4 0 2.4 0.6 1 0.6 1.6 1.6 0.5 1.1 0.8 2.3 0.2 1.3 0.2 2.6 0 1-0.1 2-0.2 1-0.5 1.9-0.4 0.9-1 1.6-0.5 0.7-1.4 1.1-0.8 0.4-2 0.4zm0-2.3q0.7 0 1.2-0.4 0.5-0.5 0.7-1.1 0.3-0.7 0.4-1.5 0.2-0.9 0.2-1.7 0-0.9-0.2-1.7-0.1-0.9-0.4-1.6-0.2-0.6-0.7-1-0.5-0.4-1.2-0.4-0.7 0-1.2 0.4-0.5 0.4-0.8 1.1-0.3 0.6-0.4 1.5-0.1 0.8-0.1 1.7 0 0.8 0.1 1.7 0.1 0.8 0.4 1.5 0.3 0.7 0.8 1.1 0.5 0.4 1.2 0.4zm12.9 2.3q-1.4 0-2.4-0.6-1-0.6-1.6-1.6-0.5-1.1-0.8-2.3-0.2-1.3-0.2-2.5 0-1 0.1-2 0.2-1.1 0.5-2 0.4-0.9 0.9-1.6 0.6-0.7 1.5-1.1 0.8-0.4 2-0.4 1.5 0 2.4 0.6 1 0.6 1.6 1.6 0.5 1.1 0.8 2.3 0.2 1.3 0.2 2.6 0 1-0.1 2-0.2 1-0.5 1.9-0.4 0.9-0.9 1.6-0.6 0.7-1.5 1.1-0.8 0.4-2 0.4zm0-2.3q0.7 0 1.2-0.4 0.5-0.5 0.8-1.1 0.2-0.7 0.4-1.5 0.1-0.9 0.1-1.7 0-0.9-0.1-1.7-0.2-0.9-0.4-1.6-0.3-0.6-0.8-1-0.5-0.4-1.2-0.4-0.7 0-1.2 0.4-0.5 0.4-0.8 1.1-0.2 0.6-0.4 1.5-0.1 0.8-0.1 1.7 0 0.8 0.1 1.7 0.2 0.8 0.4 1.5 0.3 0.7 0.8 1.1 0.5 0.4 1.2 0.4zm10.4 2.1h-2.4v-13l2.4-1.1v7l2.8-2.9h2.9l-2.9 2.9 3.7 7.1h-2.7l-2.8-5.4-1 1z"/>
			<g id="&lt;Group&gt;">
				<path id="&lt;Path&gt;" class="s8" d="m345.9 114.6l3.4-3.5"/>
				<path id="&lt;Path&gt;" class="s8" d="m349.3 113.8v-2.7h-2.7"/>
			</g>
		</g>
		<g id="&lt;Group&gt;">
			<path id="total value" class="s1" aria-label="total value"  d="m65.1 325.1q-0.4 0-0.6-0.3-0.2-0.2-0.2-0.7v-1.9h-0.5v-0.8h0.5v-1.1l0.9-0.4v1.5h0.8v0.8h-0.8v1.8q0 0.2 0 0.2 0.1 0.1 0.2 0.1 0.3 0 0.6-0.1l-0.1 0.7q-0.1 0.1-0.3 0.1-0.2 0.1-0.5 0.1zm3.2 0q-0.8 0-1.2-0.5-0.5-0.5-0.5-1.4 0-0.6 0.2-1 0.2-0.4 0.6-0.6 0.4-0.3 0.9-0.3 0.5 0 0.8 0.2 0.4 0.3 0.6 0.7 0.2 0.4 0.2 1 0 0.6-0.2 1-0.2 0.4-0.6 0.7-0.3 0.2-0.8 0.2zm0-0.9q0.3 0 0.5-0.2 0.2-0.3 0.2-0.8 0-0.5-0.2-0.8-0.2-0.2-0.5-0.2-0.4 0-0.6 0.2-0.2 0.3-0.2 0.8 0 0.5 0.2 0.8 0.2 0.2 0.6 0.2zm3.5 0.9q-0.4 0-0.6-0.3-0.3-0.2-0.3-0.7v-1.9h-0.5v-0.8h0.5v-1.1l0.9-0.4v1.5h0.8v0.8h-0.8v1.8q0 0.2 0.1 0.2 0 0.1 0.2 0.1 0.3 0 0.6-0.1l-0.1 0.7q-0.2 0.1-0.4 0.1-0.2 0.1-0.4 0.1zm2.7 0q-0.6 0-0.9-0.3-0.3-0.4-0.3-0.9 0-0.3 0.1-0.6 0.2-0.3 0.5-0.4 0.4-0.2 0.8-0.2 0.2 0 0.4 0.1 0.3 0 0.4 0.1v-0.2q0-0.3-0.2-0.5-0.1-0.1-0.5-0.1-0.2 0-0.5 0.1-0.3 0.1-0.6 0.2l-0.2-0.7q0.3-0.2 0.7-0.3 0.4-0.1 0.7-0.1 0.8 0 1.1 0.4 0.4 0.3 0.4 1v2.3h-0.9v-0.3q-0.2 0.2-0.4 0.3-0.3 0.1-0.6 0.1zm0.2-0.8q0.3 0 0.5 0 0.2-0.1 0.3-0.3v-0.4q-0.1-0.1-0.3-0.1-0.2-0.1-0.4-0.1-0.3 0-0.5 0.2-0.2 0.1-0.2 0.3 0 0.2 0.2 0.3 0.1 0.1 0.4 0.1zm3.6 0.7h-0.9v-4.7l0.9-0.4zm4.8 0h-0.9l-1.4-3.6h1l0.7 2.2q0 0 0.1 0.1 0 0.1 0 0.2 0-0.1 0.1-0.2 0-0.1 0-0.1l0.8-2.2h0.9zm2.9 0.1q-0.6 0-0.9-0.3-0.3-0.3-0.3-0.9 0-0.3 0.1-0.6 0.2-0.3 0.5-0.4 0.4-0.1 0.8-0.1 0.2 0 0.4 0 0.3 0 0.4 0.1v-0.2q0-0.3-0.2-0.5-0.1-0.1-0.5-0.1-0.2 0-0.5 0.1-0.3 0.1-0.6 0.3l-0.2-0.7q0.3-0.2 0.7-0.3 0.4-0.2 0.7-0.2 0.8 0 1.1 0.4 0.4 0.3 0.4 1v2.3h-0.9v-0.3q-0.2 0.2-0.4 0.3-0.3 0.1-0.6 0.1zm0.2-0.7q0.3 0 0.5-0.1 0.2-0.1 0.3-0.3v-0.4q-0.1-0.1-0.3-0.1-0.2 0-0.4 0-0.3 0-0.5 0.1-0.2 0.1-0.2 0.3 0 0.2 0.2 0.3 0.1 0.2 0.4 0.2zm3.6 0.6h-0.9v-4.7l0.9-0.4zm2.4 0.1q-0.6 0-1-0.3-0.3-0.4-0.3-1.1v-2.3h0.9v2q0 0.5 0.1 0.7 0.2 0.2 0.5 0.2 0.4 0 0.6-0.2 0.1-0.2 0.1-0.7v-2h0.9v3.6h-0.9v-0.3q-0.1 0.2-0.4 0.3-0.2 0.1-0.5 0.1zm4.3 0q-0.5 0-0.9-0.2-0.3-0.2-0.5-0.7-0.2-0.4-0.2-1 0-0.5 0.2-1 0.2-0.4 0.5-0.6 0.4-0.2 0.9-0.2 0.5 0 0.8 0.1 0.4 0.2 0.6 0.6 0.2 0.4 0.2 1 0 0.1 0 0.2 0 0.1 0 0.3h-2.4q0 0.2 0.1 0.4 0.1 0.2 0.3 0.3 0.2 0.1 0.4 0.1 0.3 0 0.5-0.1 0.2-0.1 0.3-0.3l0.5 0.5q-0.2 0.3-0.5 0.5-0.3 0.1-0.8 0.1zm-0.8-2.2h1.5q0-0.3-0.1-0.4-0.1-0.2-0.2-0.3-0.2-0.1-0.4-0.1-0.3 0-0.5 0.2-0.2 0.2-0.3 0.6z"/>
			<path id="1250k" class="s9" aria-label="1250k"  d="m68.9 348h-2.6v-10.2h-2.1v-2q0.7 0 1.2-0.1 0.5-0.2 0.9-0.5 0.4-0.3 0.6-0.9h2zm13.1 0h-9.4q0-1.5 0.4-2.6 0.4-1.2 1-2 0.6-0.9 1.5-1.6 0.8-0.6 1.7-1.2 0.6-0.3 1.1-0.6 0.5-0.4 0.8-0.8 0.3-0.5 0.3-1 0-0.8-0.5-1.3-0.5-0.4-1.4-0.4-0.9 0-1.5 0.4-0.6 0.4-0.9 1.2l-2.3-1.1q0.6-1.3 1.8-2.1 1.3-0.8 2.9-0.8 1.4 0 2.4 0.5 1 0.6 1.5 1.5 0.5 0.9 0.5 2 0 1.2-0.4 2-0.4 0.8-1.2 1.4-0.7 0.6-1.6 1.1-0.9 0.5-1.5 1-0.6 0.4-1 0.9-0.4 0.5-0.6 1.1h6.4zm6.8 0.2q-1 0-1.8-0.2-0.9-0.2-1.5-0.5-0.6-0.4-1-0.7l1.4-2q0.3 0.3 0.8 0.5 0.4 0.2 0.9 0.4 0.6 0.1 1.2 0.1 0.8 0 1.4-0.3 0.6-0.3 1-0.8 0.3-0.5 0.3-1.3 0-0.6-0.2-1.1-0.3-0.5-0.7-0.7-0.5-0.3-1.1-0.3-0.8 0-1.4 0.3-0.5 0.3-0.9 0.7l-2.3-1.1 0.5-6.9h7.8v2.4h-5.5l-0.2 2.7q0.4-0.2 1-0.4 0.5-0.1 1.1-0.1 1.4 0 2.4 0.6 1 0.6 1.5 1.6 0.6 1 0.6 2.3 0 1.4-0.7 2.5-0.7 1.1-1.9 1.7-1.1 0.6-2.7 0.6zm12.9 0q-1.5 0-2.5-0.6-0.9-0.6-1.5-1.7-0.6-1-0.8-2.3-0.2-1.2-0.2-2.5 0-1 0.1-2 0.2-1 0.5-1.9 0.3-0.9 0.9-1.6 0.6-0.7 1.4-1.1 0.9-0.5 2.1-0.5 1.4 0 2.4 0.7 1 0.6 1.5 1.6 0.6 1 0.8 2.3 0.3 1.2 0.3 2.5 0 1-0.2 2-0.1 1-0.5 2-0.3 0.9-0.9 1.6-0.5 0.7-1.4 1.1-0.8 0.4-2 0.4zm0-2.4q0.7 0 1.2-0.4 0.4-0.4 0.7-1.1 0.3-0.6 0.4-1.5 0.1-0.8 0.1-1.7 0-0.9-0.1-1.7-0.1-0.8-0.4-1.5-0.3-0.7-0.7-1.1-0.5-0.4-1.2-0.4-0.8 0-1.2 0.4-0.5 0.4-0.8 1.1-0.3 0.7-0.4 1.5-0.1 0.9-0.1 1.7 0 0.9 0.1 1.7 0.1 0.9 0.4 1.5 0.3 0.7 0.8 1.1 0.5 0.4 1.2 0.4zm10.4 2.2h-2.5v-13l2.5-1.1v6.9l2.7-2.8h2.9l-2.9 2.9 3.7 7.1h-2.6l-2.8-5.4-1 1z"/>
		</g>
		<g id="&lt;Group&gt;">
			<path id="lowest value" class="s1" aria-label="lowest value"  d="m179.2 325h-0.9v-4.7l0.9-0.4zm2.6 0.1q-0.8 0-1.2-0.5-0.5-0.5-0.5-1.4 0-0.6 0.2-1 0.2-0.4 0.6-0.6 0.4-0.3 0.9-0.3 0.5 0 0.8 0.3 0.4 0.2 0.6 0.6 0.2 0.4 0.2 1 0 0.6-0.2 1-0.2 0.4-0.6 0.7-0.3 0.2-0.8 0.2zm0-0.8q0.3 0 0.5-0.3 0.2-0.3 0.2-0.8 0-0.5-0.2-0.7-0.2-0.3-0.5-0.3-0.4 0-0.6 0.3-0.2 0.2-0.2 0.7 0 0.5 0.2 0.8 0.2 0.3 0.6 0.3zm3.9 0.7h-0.8l-1-3.6h0.9l0.4 1.8q0.1 0.1 0.1 0.3 0 0.1 0 0.2 0.1-0.1 0.1-0.2 0-0.2 0-0.3l0.5-1.8h0.8l0.5 1.8q0 0.1 0 0.3 0.1 0.1 0.1 0.2 0-0.1 0-0.2 0.1-0.2 0.1-0.3l0.4-1.8h0.9l-1 3.6h-0.8l-0.5-1.8q0-0.1 0-0.2-0.1-0.2-0.1-0.3 0 0.1 0 0.3-0.1 0.1-0.1 0.2zm5.2 0.1q-0.5 0-0.9-0.2-0.3-0.3-0.6-0.7-0.2-0.4-0.2-1 0-0.6 0.3-1 0.2-0.4 0.5-0.6 0.4-0.3 0.9-0.3 0.5 0 0.8 0.2 0.4 0.2 0.6 0.6 0.2 0.4 0.2 0.9 0 0.1 0 0.3 0 0.1 0 0.2h-2.4q0 0.3 0.1 0.5 0.1 0.2 0.3 0.3 0.2 0.1 0.4 0.1 0.3 0 0.5-0.1 0.2-0.1 0.3-0.3l0.5 0.5q-0.2 0.3-0.5 0.4-0.4 0.2-0.8 0.2zm-0.8-2.2h1.5q0-0.3-0.1-0.5-0.1-0.1-0.2-0.2-0.2-0.1-0.4-0.1-0.3 0-0.5 0.2-0.2 0.2-0.3 0.6zm4.4 2.2q-0.5 0-0.8-0.2-0.4-0.2-0.7-0.5l0.6-0.4q0.2 0.1 0.4 0.3 0.3 0.1 0.5 0.1 0.3 0 0.4-0.1 0.1-0.1 0.1-0.3 0-0.1 0-0.2-0.1 0-0.3-0.1-0.1-0.1-0.4-0.2-0.7-0.2-0.9-0.5-0.3-0.3-0.3-0.7 0-0.4 0.4-0.7 0.4-0.3 0.9-0.3 0.4 0 0.8 0.2 0.3 0.1 0.5 0.4l-0.5 0.5q-0.4-0.3-0.8-0.3-0.2 0-0.3 0.1-0.2 0-0.2 0.2 0 0.1 0.2 0.2 0.2 0.1 0.6 0.2 0.4 0.2 0.6 0.3 0.3 0.2 0.4 0.4 0.1 0.2 0.1 0.5 0 0.5-0.3 0.8-0.4 0.3-1 0.3zm3.2 0q-0.4 0-0.6-0.2-0.3-0.3-0.3-0.7v-2h-0.5v-0.8h0.5v-1l0.9-0.5v1.5h0.8v0.8h-0.8v1.8q0 0.2 0.1 0.3 0.1 0 0.2 0 0.3 0 0.6-0.1l-0.1 0.7q-0.2 0.1-0.4 0.2-0.2 0-0.4 0zm5.3-0.1h-0.9l-1.3-3.6h0.9l0.8 2.2q0 0 0 0.1 0.1 0.1 0.1 0.2 0-0.1 0-0.2 0.1-0.1 0.1-0.1l0.7-2.2h0.9zm3 0.1q-0.6 0-0.9-0.3-0.4-0.3-0.4-0.9 0-0.3 0.2-0.6 0.2-0.3 0.5-0.4 0.3-0.1 0.8-0.1 0.2 0 0.4 0 0.2 0 0.4 0.1v-0.2q0-0.3-0.2-0.5-0.1-0.1-0.5-0.1-0.2 0-0.5 0.1-0.3 0.1-0.6 0.3l-0.2-0.7q0.3-0.2 0.6-0.3 0.4-0.2 0.8-0.2 0.7 0 1.1 0.4 0.4 0.3 0.4 1v2.3h-0.9v-0.3q-0.2 0.2-0.4 0.3-0.3 0.1-0.6 0.1zm0.2-0.7q0.2 0 0.4-0.1 0.2-0.1 0.4-0.3v-0.4q-0.2-0.1-0.3-0.1-0.2 0-0.4 0-0.3 0-0.5 0.1-0.2 0.1-0.2 0.3 0 0.2 0.2 0.4 0.1 0.1 0.4 0.1zm3.6 0.6h-0.9v-4.7l0.9-0.4zm2.3 0.1q-0.6 0-0.9-0.3-0.3-0.4-0.3-1.1v-2.3h0.9v2q0 0.5 0.1 0.7 0.2 0.2 0.5 0.2 0.4 0 0.5-0.2 0.2-0.2 0.2-0.7v-2h0.9v3.6h-0.9v-0.3q-0.2 0.2-0.4 0.3-0.2 0.1-0.6 0.1zm4.4 0q-0.5 0-0.9-0.2-0.4-0.2-0.6-0.7-0.2-0.4-0.2-1 0-0.5 0.2-1 0.2-0.4 0.6-0.6 0.4-0.2 0.9-0.2 0.4 0 0.8 0.1 0.3 0.2 0.6 0.6 0.2 0.4 0.2 1 0 0.1 0 0.2 0 0.1-0.1 0.3h-2.3q0 0.2 0.1 0.4 0.1 0.2 0.3 0.3 0.2 0.1 0.4 0.1 0.3 0 0.4-0.1 0.2-0.1 0.4-0.3l0.5 0.5q-0.2 0.3-0.5 0.5-0.4 0.1-0.8 0.1zm-0.8-2.2h1.5q0-0.3-0.1-0.4-0.1-0.2-0.2-0.3-0.2-0.1-0.4-0.1-0.3 0-0.6 0.2-0.2 0.2-0.2 0.6z"/>
			<path id="210k
" class="s10" aria-label="210k"  d="m188.4 348h-9.4q0-1.5 0.3-2.6 0.4-1.2 1-2.1 0.7-0.8 1.5-1.5 0.8-0.7 1.8-1.2 0.5-0.3 1-0.6 0.5-0.4 0.8-0.8 0.3-0.5 0.3-1.1 0-0.7-0.5-1.2-0.5-0.4-1.4-0.4-0.9 0-1.4 0.4-0.6 0.4-0.9 1.2l-2.3-1.1q0.5-1.3 1.8-2.1 1.3-0.8 2.8-0.8 1.4 0 2.4 0.5 1 0.5 1.5 1.5 0.5 0.8 0.5 2 0 1.2-0.4 2-0.4 0.8-1.1 1.4-0.8 0.6-1.7 1.1-0.8 0.5-1.5 1-0.6 0.4-1 0.9-0.4 0.4-0.6 1.1h6.5zm6.6 0h-2.5v-10.3h-2.1v-1.9q0.6 0 1.1-0.2 0.6-0.1 0.9-0.4 0.4-0.4 0.6-0.9h2zm8.9 0.2q-1.4 0-2.4-0.6-1-0.6-1.5-1.7-0.6-1-0.8-2.3-0.3-1.2-0.3-2.5 0-1 0.2-2 0.1-1 0.4-1.9 0.4-0.9 1-1.6 0.5-0.7 1.4-1.1 0.9-0.5 2-0.5 1.5 0 2.5 0.7 0.9 0.6 1.5 1.6 0.6 1 0.8 2.3 0.2 1.2 0.2 2.5 0 1-0.1 2-0.2 1-0.5 2-0.3 0.9-0.9 1.6-0.6 0.7-1.4 1.1-0.9 0.4-2.1 0.4zm0-2.4q0.8 0 1.2-0.4 0.5-0.4 0.8-1.1 0.3-0.6 0.4-1.5 0.1-0.8 0.1-1.7 0-0.9-0.1-1.7-0.1-0.8-0.4-1.5-0.3-0.7-0.8-1.1-0.4-0.4-1.2-0.4-0.7 0-1.2 0.4-0.5 0.4-0.7 1.1-0.3 0.7-0.4 1.5-0.2 0.9-0.2 1.7 0 0.9 0.2 1.7 0.1 0.9 0.4 1.5 0.2 0.7 0.7 1.1 0.5 0.4 1.2 0.4zm10.4 2.2h-2.4v-13l2.4-1.1v6.9l2.8-2.8h2.9l-2.9 2.9 3.7 7.1h-2.7l-2.8-5.4-1 1z"/>
		</g>
		<g id="&lt;Group&gt;">
			<path id="highest value" class="s1" aria-label="highest value"  d="m293.3 325h-0.9v-4.7l0.9-0.4v1.9q0.2-0.3 0.4-0.4 0.3-0.1 0.6-0.1 0.4 0 0.7 0.2 0.3 0.2 0.4 0.5 0.1 0.3 0.1 0.8v2.2h-0.8v-2q0-0.4-0.2-0.6-0.1-0.2-0.5-0.2-0.3 0-0.5 0.2-0.2 0.2-0.2 0.6zm4.2 0h-0.9v-3.6h0.9zm-0.5-4q-0.2 0-0.3-0.2-0.2-0.1-0.2-0.3 0-0.3 0.2-0.4 0.1-0.2 0.3-0.2 0.3 0 0.4 0.2 0.2 0.1 0.2 0.4 0 0.2-0.2 0.3-0.1 0.2-0.4 0.2zm2.9 5.5l-0.5-0.7q0.5-0.1 0.8-0.1 0.3-0.1 0.4-0.3 0.1-0.1 0.1-0.3v-0.3q-0.3 0.3-0.8 0.3-0.5 0-0.8-0.2-0.3-0.2-0.5-0.7-0.2-0.4-0.2-1 0-0.6 0.2-1 0.2-0.4 0.5-0.6 0.4-0.3 0.8-0.3 0.3 0 0.5 0.1 0.2 0.1 0.3 0.2v-0.2h0.9v3.3q0 0.5-0.1 0.8-0.1 0.3-0.3 0.5-0.2 0.3-0.5 0.4-0.4 0.1-0.8 0.1zm0.2-2.2q0.1 0 0.3-0.1 0.2-0.1 0.3-0.3v-1.4q-0.1-0.1-0.3-0.2-0.2-0.1-0.3-0.1-0.4 0-0.6 0.2-0.2 0.3-0.2 0.8 0 0.3 0.1 0.6 0.1 0.2 0.2 0.3 0.2 0.2 0.5 0.2zm3.4 0.7h-0.8v-4.7l0.8-0.4v1.9q0.2-0.2 0.4-0.4 0.3-0.1 0.6-0.1 0.4 0 0.7 0.2 0.3 0.2 0.4 0.5 0.2 0.3 0.2 0.8v2.2h-0.9v-2q0-0.4-0.2-0.6-0.1-0.2-0.5-0.2-0.3 0-0.5 0.2-0.2 0.2-0.2 0.6zm4.8 0.1q-0.5 0-0.9-0.2-0.3-0.2-0.5-0.7-0.2-0.4-0.2-1 0-0.5 0.2-1 0.2-0.4 0.6-0.6 0.3-0.2 0.8-0.2 0.5 0 0.8 0.1 0.4 0.2 0.6 0.6 0.2 0.4 0.2 1 0 0.1 0 0.2 0 0.1 0 0.3h-2.4q0 0.2 0.1 0.4 0.1 0.2 0.3 0.3 0.2 0.1 0.4 0.1 0.3 0 0.5-0.1 0.2-0.1 0.3-0.3l0.6 0.5q-0.3 0.3-0.6 0.5-0.3 0.1-0.8 0.1zm-0.8-2.2h1.6q-0.1-0.3-0.2-0.4 0-0.2-0.2-0.3-0.2-0.1-0.4-0.1-0.3 0-0.5 0.2-0.2 0.2-0.3 0.6zm4.4 2.2q-0.4 0-0.8-0.2-0.4-0.1-0.6-0.4l0.5-0.5q0.2 0.2 0.5 0.3 0.2 0.1 0.4 0.1 0.3 0 0.4-0.1 0.2-0.1 0.2-0.3 0-0.1-0.1-0.1-0.1-0.1-0.2-0.2-0.2-0.1-0.5-0.2-0.6-0.2-0.9-0.5-0.2-0.3-0.2-0.6 0-0.5 0.3-0.8 0.4-0.2 1-0.2 0.3 0 0.7 0.1 0.3 0.2 0.6 0.4l-0.6 0.5q-0.3-0.3-0.8-0.3-0.2 0-0.3 0.1-0.1 0-0.1 0.2 0 0.1 0.1 0.2 0.2 0.1 0.6 0.3 0.4 0.1 0.7 0.2 0.2 0.2 0.3 0.4 0.2 0.3 0.2 0.5 0 0.5-0.4 0.8-0.4 0.3-1 0.3zm3.2 0q-0.4 0-0.6-0.2-0.2-0.3-0.2-0.7v-2h-0.6v-0.8h0.6v-1l0.8-0.4v1.4h0.8v0.8h-0.8v1.8q0 0.2 0.1 0.3 0.1 0.1 0.2 0.1 0.3 0 0.6-0.2l-0.1 0.8q-0.2 0-0.4 0.1-0.2 0-0.4 0zm5.4-0.1h-0.9l-1.4-3.6h0.9l0.8 2.2q0 0.1 0.1 0.1 0 0.1 0 0.2 0-0.1 0.1-0.2 0 0 0-0.1l0.8-2.2h0.9zm2.9 0.1q-0.6 0-0.9-0.3-0.3-0.3-0.3-0.9 0-0.3 0.1-0.6 0.2-0.2 0.5-0.4 0.3-0.1 0.8-0.1 0.2 0 0.4 0 0.2 0.1 0.4 0.1v-0.2q0-0.3-0.2-0.4-0.1-0.2-0.5-0.2-0.2 0-0.5 0.1-0.3 0.1-0.6 0.3l-0.2-0.7q0.3-0.2 0.7-0.3 0.3-0.1 0.7-0.1 0.8 0 1.1 0.3 0.4 0.3 0.4 1v2.3h-0.9v-0.2q-0.2 0.1-0.4 0.2-0.3 0.1-0.6 0.1zm0.2-0.7q0.2 0 0.4-0.1 0.3-0.1 0.4-0.2v-0.5q-0.1 0-0.3-0.1-0.2 0-0.4 0-0.3 0-0.5 0.1-0.2 0.1-0.2 0.3 0 0.2 0.2 0.4 0.1 0.1 0.4 0.1zm3.6 0.6h-0.9v-4.6l0.9-0.4zm2.4 0q-0.6 0-1-0.3-0.3-0.4-0.3-1.1v-2.2h0.9v1.9q0 0.5 0.1 0.7 0.2 0.2 0.5 0.2 0.4 0 0.5-0.2 0.2-0.2 0.2-0.7v-1.9h0.9v3.6h-0.9v-0.4q-0.1 0.2-0.4 0.3-0.2 0.1-0.5 0.1zm4.3 0q-0.5 0-0.9-0.2-0.4-0.2-0.6-0.6-0.2-0.5-0.2-1 0-0.6 0.2-1 0.3-0.5 0.6-0.7 0.4-0.2 0.9-0.2 0.4 0 0.8 0.2 0.4 0.1 0.6 0.5 0.2 0.4 0.2 1 0 0.1 0 0.2 0 0.1 0 0.3h-2.4q0 0.2 0.1 0.4 0.1 0.2 0.3 0.3 0.2 0.1 0.4 0.1 0.3 0 0.5-0.1 0.2-0.1 0.3-0.3l0.5 0.6q-0.2 0.2-0.5 0.4-0.4 0.1-0.8 0.1zm-0.8-2.2h1.5q0-0.2-0.1-0.4-0.1-0.2-0.2-0.3-0.2-0.1-0.4-0.1-0.3 0-0.5 0.2-0.3 0.2-0.3 0.6z"/>
			<path id="764k
" class="s11" aria-label="764k"  d="m297.6 348h-2.5q0-2.2 0.4-4.1 0.4-2 1.1-3.7 0.8-1.8 2.1-3.5h-6.3v-2.4h9.2v2.1q-1.1 1.2-1.9 2.8-0.7 1.5-1.2 3.1-0.5 1.7-0.7 3.1-0.2 1.5-0.2 2.6zm10 0.2q-1.2 0-2.1-0.4-1-0.4-1.6-1.1-0.6-0.7-0.9-1.7-0.3-0.9-0.3-2 0-2.2 0.8-4 0.9-1.9 2.6-3.2 1.8-1.3 4.5-1.7v2.3q-1 0.2-2 0.7-1 0.5-1.8 1.2-0.7 0.7-1.1 1.8 0.4-0.4 1-0.6 0.5-0.2 1.3-0.2 1.3 0 2.3 0.6 1 0.6 1.6 1.6 0.5 1 0.5 2.3 0 1.3-0.6 2.3-0.6 1-1.7 1.6-1.1 0.5-2.5 0.5zm0-2.4q0.7 0 1.2-0.2 0.5-0.3 0.8-0.7 0.3-0.5 0.3-1.1 0-1-0.6-1.5-0.7-0.6-1.7-0.6-0.7 0-1.2 0.3-0.5 0.2-0.8 0.7-0.3 0.5-0.3 1.1 0 0.6 0.3 1.1 0.3 0.4 0.8 0.7 0.5 0.2 1.2 0.2zm15.6 2.2h-2.4v-2.8h-7v-1.6l7-9.3h2.4v8.5h1.8v2.4h-1.8zm-2.4-10.2l-3.7 5h3.7zm9.2 10.2h-2.5v-13l2.5-1.1v6.9l2.8-2.8h2.9l-2.9 2.9 3.6 7.1h-2.6l-2.8-5.4-1 1z"/>
		</g>
		<g id="&lt;Group&gt;">
			<path id="average value" class="s1" aria-label="average value"  d="m407.7 325.1q-0.6 0-1-0.3-0.3-0.4-0.3-0.9 0-0.3 0.2-0.6 0.1-0.3 0.5-0.4 0.3-0.2 0.7-0.2 0.2 0 0.5 0.1 0.2 0 0.3 0.1v-0.2q0-0.3-0.1-0.5-0.2-0.1-0.5-0.1-0.3 0-0.6 0.1-0.2 0.1-0.5 0.2l-0.3-0.7q0.3-0.2 0.7-0.3 0.4-0.1 0.8-0.1 0.7 0 1 0.4 0.4 0.3 0.4 1v2.3h-0.9v-0.3q-0.1 0.2-0.4 0.3-0.2 0.1-0.5 0.1zm0.2-0.8q0.2 0 0.4 0 0.2-0.1 0.3-0.3v-0.4q-0.1-0.1-0.3-0.1-0.2-0.1-0.4-0.1-0.3 0-0.5 0.2-0.2 0.1-0.2 0.3 0 0.2 0.2 0.3 0.2 0.1 0.5 0.1zm4.4 0.7h-0.9l-1.3-3.6h0.9l0.8 2.1q0 0.1 0 0.2 0.1 0.1 0.1 0.2 0-0.1 0-0.2 0.1-0.1 0.1-0.2l0.7-2.1h0.9zm3.5 0.1q-0.5 0-0.9-0.2-0.4-0.3-0.6-0.7-0.2-0.4-0.2-1 0-0.6 0.2-1 0.2-0.4 0.6-0.6 0.4-0.3 0.9-0.3 0.4 0 0.8 0.2 0.3 0.2 0.6 0.6 0.2 0.3 0.2 0.9 0 0.1 0 0.3 0 0.1-0.1 0.2h-2.3q0 0.3 0.1 0.5 0.1 0.1 0.3 0.2 0.2 0.1 0.4 0.1 0.3 0 0.4 0 0.2-0.1 0.4-0.3l0.5 0.5q-0.2 0.3-0.5 0.4-0.4 0.2-0.8 0.2zm-0.8-2.3h1.5q0-0.2-0.1-0.4-0.1-0.1-0.2-0.2-0.2-0.1-0.4-0.1-0.3 0-0.5 0.2-0.3 0.2-0.3 0.5zm4.1 2.2h-0.8v-3.6h0.8v0.4q0.1-0.2 0.3-0.3 0.3-0.2 0.5-0.2 0.4 0 0.6 0.3l-0.1 0.8q-0.1-0.1-0.3-0.2-0.1 0-0.3 0-0.2 0-0.3 0.1-0.2 0.1-0.3 0.3-0.1 0.2-0.1 0.4zm3.1 0.1q-0.6 0-1-0.3-0.3-0.3-0.3-0.9 0-0.3 0.2-0.6 0.2-0.2 0.5-0.4 0.3-0.1 0.7-0.1 0.3 0 0.5 0 0.2 0.1 0.4 0.1v-0.2q0-0.3-0.2-0.4-0.2-0.2-0.5-0.2-0.3 0-0.6 0.1-0.2 0.1-0.5 0.3l-0.3-0.7q0.3-0.2 0.7-0.3 0.4-0.1 0.8-0.1 0.7 0 1.1 0.3 0.3 0.3 0.3 1v2.3h-0.8v-0.3q-0.2 0.2-0.5 0.3-0.2 0.1-0.5 0.1zm0.2-0.7q0.2 0 0.4-0.1 0.2-0.1 0.4-0.3v-0.4q-0.2-0.1-0.4-0.1-0.2 0-0.3 0-0.4 0-0.6 0.1-0.1 0.1-0.1 0.3 0 0.2 0.1 0.4 0.2 0.1 0.5 0.1zm3.9 2.1l-0.4-0.7q0.5 0 0.7-0.1 0.3-0.1 0.4-0.2 0.2-0.2 0.2-0.4v-0.3q-0.3 0.3-0.8 0.3-0.5 0-0.8-0.2-0.4-0.2-0.5-0.7-0.2-0.4-0.2-1 0-0.5 0.2-1 0.2-0.4 0.5-0.6 0.3-0.2 0.8-0.2 0.2 0 0.4 0 0.2 0.1 0.4 0.2v-0.2h0.8v3.3q0 0.5-0.1 0.8 0 0.4-0.2 0.6-0.2 0.2-0.6 0.3-0.3 0.1-0.8 0.1zm0.2-2.2q0.2 0 0.4-0.1 0.1-0.1 0.3-0.2v-1.5q-0.1-0.1-0.3-0.2-0.2-0.1-0.4-0.1-0.3 0-0.5 0.3-0.2 0.2-0.2 0.7 0 0.4 0 0.6 0.1 0.2 0.3 0.4 0.2 0.1 0.4 0.1zm4 0.8q-0.5 0-0.8-0.2-0.4-0.2-0.6-0.7-0.2-0.4-0.2-1 0-0.5 0.2-1 0.2-0.4 0.6-0.6 0.3-0.2 0.8-0.2 0.5 0 0.8 0.1 0.4 0.2 0.6 0.6 0.2 0.4 0.2 1 0 0.1 0 0.2 0 0.1 0 0.3h-2.4q0.1 0.2 0.2 0.4 0.1 0.2 0.2 0.3 0.2 0.1 0.4 0.1 0.3 0 0.5-0.1 0.2-0.1 0.4-0.3l0.5 0.5q-0.3 0.3-0.6 0.5-0.3 0.1-0.8 0.1zm-0.8-2.2h1.6q-0.1-0.3-0.1-0.4-0.1-0.2-0.3-0.3-0.1-0.1-0.4-0.1-0.3 0-0.5 0.2-0.2 0.2-0.3 0.6zm6.9 2.1h-0.9l-1.3-3.6h0.9l0.8 2.2q0 0.1 0 0.1 0 0.1 0.1 0.2 0-0.1 0-0.2 0 0 0.1-0.1l0.7-2.2h0.9zm3 0.1q-0.6 0-1-0.3-0.3-0.3-0.3-0.9 0-0.3 0.2-0.6 0.2-0.2 0.5-0.4 0.3-0.1 0.7-0.1 0.3 0 0.5 0 0.2 0.1 0.4 0.1v-0.2q0-0.3-0.2-0.4-0.2-0.2-0.5-0.2-0.3 0-0.5 0.1-0.3 0.1-0.6 0.3l-0.3-0.7q0.3-0.2 0.7-0.3 0.4-0.1 0.8-0.1 0.7 0 1.1 0.3 0.3 0.3 0.3 1v2.3h-0.8v-0.2q-0.2 0.1-0.5 0.2-0.2 0.1-0.5 0.1zm0.2-0.7q0.2 0 0.4-0.1 0.2-0.1 0.4-0.2v-0.5q-0.2 0-0.4-0.1-0.2 0-0.3 0-0.4 0-0.6 0.1-0.1 0.1-0.1 0.3 0 0.3 0.1 0.4 0.2 0.1 0.5 0.1zm3.6 0.6h-0.9v-4.6l0.9-0.4zm2.3 0q-0.6 0-0.9-0.3-0.4-0.4-0.4-1.1v-2.2h0.9v1.9q0 0.5 0.2 0.7 0.1 0.2 0.5 0.2 0.3 0 0.5-0.2 0.2-0.2 0.2-0.7v-1.9h0.8v3.6h-0.8v-0.4q-0.2 0.2-0.4 0.3-0.3 0.1-0.6 0.1zm4.4 0q-0.6 0-0.9-0.2-0.4-0.2-0.6-0.6-0.2-0.5-0.2-1 0-0.6 0.2-1 0.2-0.5 0.6-0.7 0.4-0.2 0.9-0.2 0.4 0 0.8 0.2 0.3 0.1 0.5 0.5 0.2 0.4 0.2 1 0 0.1 0 0.2 0 0.1 0 0.3h-2.3q0 0.2 0.1 0.4 0.1 0.2 0.3 0.3 0.1 0.1 0.4 0.1 0.2 0 0.4-0.1 0.2-0.1 0.4-0.3l0.5 0.6q-0.3 0.2-0.6 0.4-0.3 0.1-0.7 0.1zm-0.8-2.2h1.5q0-0.2-0.1-0.4-0.1-0.2-0.3-0.3-0.1-0.1-0.4-0.1-0.3 0-0.5 0.2-0.2 0.2-0.2 0.6z"/>
			<path id="250k
" class="s12" aria-label="250k"  d="m416.7 348h-9.4q0-1.5 0.4-2.6 0.3-1.2 1-2.1 0.6-0.8 1.4-1.5 0.9-0.7 1.8-1.2 0.6-0.3 1.1-0.6 0.5-0.4 0.8-0.8 0.3-0.5 0.3-1.1 0-0.7-0.6-1.2-0.5-0.4-1.3-0.4-0.9 0-1.5 0.4-0.6 0.4-0.9 1.2l-2.3-1.1q0.6-1.3 1.8-2.1 1.3-0.8 2.8-0.8 1.5 0 2.4 0.5 1 0.5 1.6 1.5 0.5 0.8 0.5 2 0 1.2-0.4 2-0.5 0.8-1.2 1.4-0.7 0.6-1.6 1.1-0.9 0.5-1.5 1-0.7 0.4-1 0.9-0.4 0.4-0.6 1.1h6.4zm6.8 0.2q-1 0-1.9-0.2-0.8-0.2-1.4-0.5-0.6-0.4-1-0.7l1.4-2q0.3 0.3 0.7 0.5 0.5 0.2 1 0.4 0.5 0.1 1.2 0.1 0.8 0 1.4-0.3 0.6-0.3 0.9-0.8 0.4-0.5 0.4-1.3 0-0.6-0.3-1.1-0.2-0.5-0.6-0.7-0.5-0.3-1.1-0.3-0.8 0-1.4 0.3-0.5 0.2-0.9 0.7l-2.3-1.1 0.5-6.9h7.7v2.4h-5.4l-0.3 2.7q0.5-0.2 1-0.4 0.6-0.1 1.1-0.1 1.5 0 2.5 0.6 1 0.6 1.5 1.6 0.5 1 0.5 2.3 0 1.4-0.6 2.5-0.7 1.1-1.9 1.7-1.2 0.6-2.7 0.6zm12.9 0q-1.5 0-2.5-0.6-0.9-0.6-1.5-1.7-0.6-1-0.8-2.3-0.3-1.2-0.3-2.5 0-1 0.2-2 0.1-1 0.5-1.9 0.3-0.9 0.9-1.6 0.6-0.7 1.4-1.1 0.9-0.5 2.1-0.5 1.4 0 2.4 0.7 1 0.6 1.5 1.6 0.6 1 0.8 2.3 0.3 1.2 0.3 2.5 0 1-0.2 2-0.1 1-0.5 1.9-0.3 1-0.9 1.7-0.6 0.7-1.4 1.1-0.9 0.4-2 0.4zm0-2.4q0.7 0 1.1-0.4 0.5-0.4 0.8-1.1 0.3-0.6 0.4-1.5 0.1-0.8 0.1-1.7 0-0.9-0.1-1.7-0.1-0.8-0.4-1.5-0.3-0.7-0.8-1.1-0.4-0.4-1.1-0.4-0.8 0-1.3 0.4-0.4 0.4-0.7 1.1-0.3 0.7-0.4 1.5-0.1 0.8-0.1 1.7 0 0.9 0.1 1.7 0.1 0.9 0.4 1.5 0.3 0.7 0.7 1.1 0.5 0.4 1.3 0.4zm10.3 2.2h-2.4v-13l2.4-1.2v7l2.8-2.8h2.9l-2.9 2.8 3.7 7.2h-2.7l-2.8-5.4-1 1z"/>
		</g>
		<g id="&lt;Group&gt;">
			<path id="total target" class="s1" aria-label="total target"  d="m65.1 381.1q-0.4 0-0.6-0.3-0.2-0.2-0.2-0.7v-1.9h-0.5v-0.8h0.5v-1.1l0.9-0.4v1.5h0.8v0.8h-0.8v1.8q0 0.2 0 0.2 0.1 0.1 0.2 0.1 0.3 0 0.6-0.1l-0.1 0.7q-0.1 0.1-0.3 0.1-0.2 0.1-0.5 0.1zm3.2 0q-0.8 0-1.2-0.5-0.5-0.5-0.5-1.4 0-0.6 0.2-1 0.2-0.4 0.6-0.6 0.4-0.3 0.9-0.3 0.5 0 0.8 0.2 0.4 0.3 0.6 0.7 0.2 0.4 0.2 1 0 0.6-0.2 1-0.2 0.4-0.6 0.7-0.3 0.2-0.8 0.2zm0-0.9q0.3 0 0.5-0.2 0.2-0.3 0.2-0.8 0-0.5-0.2-0.8-0.2-0.2-0.5-0.2-0.4 0-0.6 0.2-0.2 0.3-0.2 0.8 0 0.5 0.2 0.8 0.2 0.2 0.6 0.2zm3.5 0.9q-0.4 0-0.6-0.3-0.3-0.2-0.3-0.7v-1.9h-0.5v-0.8h0.5v-1.1l0.9-0.4v1.5h0.8v0.8h-0.8v1.8q0 0.2 0.1 0.2 0 0.1 0.2 0.1 0.3 0 0.6-0.1l-0.1 0.7q-0.2 0.1-0.4 0.1-0.2 0.1-0.4 0.1zm2.7 0q-0.6 0-0.9-0.3-0.3-0.4-0.3-0.9 0-0.3 0.1-0.6 0.2-0.3 0.5-0.4 0.4-0.2 0.8-0.2 0.2 0 0.4 0.1 0.3 0 0.4 0.1v-0.2q0-0.3-0.2-0.5-0.1-0.1-0.5-0.1-0.2 0-0.5 0.1-0.3 0.1-0.6 0.2l-0.2-0.7q0.3-0.2 0.7-0.3 0.4-0.1 0.7-0.1 0.8 0 1.1 0.4 0.4 0.3 0.4 1v2.3h-0.9v-0.3q-0.2 0.2-0.4 0.3-0.3 0.1-0.6 0.1zm0.2-0.8q0.3 0 0.5 0 0.2-0.1 0.3-0.3v-0.4q-0.1-0.1-0.3-0.1-0.2-0.1-0.4-0.1-0.3 0-0.5 0.2-0.2 0.1-0.2 0.3 0 0.2 0.2 0.3 0.1 0.1 0.4 0.1zm3.6 0.7h-0.9v-4.7l0.9-0.4zm3.9 0.1q-0.4 0-0.6-0.2-0.2-0.3-0.2-0.7v-2h-0.5v-0.8h0.5v-1l0.9-0.5v1.5h0.8v0.8h-0.8v1.8q0 0.2 0 0.3 0.1 0 0.2 0 0.3 0 0.6-0.1l-0.1 0.7q-0.1 0.1-0.3 0.2-0.2 0-0.5 0zm2.8 0q-0.6 0-0.9-0.3-0.4-0.3-0.4-0.9 0-0.3 0.2-0.6 0.2-0.3 0.5-0.4 0.3-0.2 0.7-0.2 0.3 0 0.5 0.1 0.2 0 0.4 0.1v-0.2q0-0.3-0.2-0.5-0.2-0.1-0.5-0.1-0.3 0-0.5 0.1-0.3 0.1-0.6 0.3l-0.3-0.7q0.3-0.2 0.7-0.3 0.4-0.2 0.8-0.2 0.7 0 1.1 0.4 0.3 0.3 0.3 1v2.3h-0.8v-0.3q-0.2 0.2-0.5 0.3-0.2 0.1-0.5 0.1zm0.2-0.7q0.2 0 0.4-0.1 0.2-0.1 0.4-0.3v-0.4q-0.2-0.1-0.4-0.1-0.1 0-0.3 0-0.4 0-0.5 0.1-0.2 0.1-0.2 0.3 0 0.2 0.1 0.3 0.2 0.2 0.5 0.2zm3.6 0.6h-0.9v-3.6h0.9v0.4q0.1-0.2 0.3-0.3 0.2-0.2 0.4-0.2 0.4 0 0.7 0.3l-0.2 0.8q-0.1-0.1-0.2-0.2-0.2 0-0.3 0-0.3 0-0.4 0.1-0.2 0.1-0.3 0.3 0 0.2 0 0.5zm3.1 1.5l-0.5-0.8q0.5 0 0.8-0.1 0.3-0.1 0.4-0.2 0.1-0.2 0.1-0.4v-0.3q-0.2 0.3-0.7 0.3-0.5 0-0.8-0.2-0.4-0.2-0.6-0.6-0.1-0.5-0.1-1 0-0.6 0.1-1 0.2-0.5 0.6-0.7 0.3-0.2 0.8-0.2 0.2 0 0.4 0 0.2 0.1 0.3 0.3v-0.2h0.9v3.2q0 0.5-0.1 0.8-0.1 0.4-0.3 0.6-0.2 0.2-0.5 0.3-0.3 0.1-0.8 0.2zm0.2-2.3q0.2 0 0.3-0.1 0.2-0.1 0.3-0.2v-1.5q-0.1-0.1-0.2-0.2-0.2-0.1-0.4-0.1-0.4 0-0.6 0.3-0.2 0.2-0.2 0.8 0 0.3 0.1 0.5 0.1 0.2 0.3 0.4 0.2 0.1 0.4 0.1zm4 0.8q-0.5 0-0.9-0.2-0.3-0.2-0.6-0.6-0.2-0.5-0.2-1 0-0.6 0.3-1.1 0.2-0.4 0.5-0.6 0.4-0.2 0.9-0.2 0.5 0 0.8 0.2 0.4 0.1 0.6 0.5 0.2 0.4 0.2 1 0 0.1 0 0.2 0 0.1 0 0.3h-2.4q0 0.2 0.1 0.4 0.1 0.2 0.3 0.3 0.2 0.1 0.4 0.1 0.3 0 0.5-0.1 0.2-0.1 0.3-0.3l0.5 0.5q-0.2 0.3-0.5 0.5-0.4 0.1-0.8 0.1zm-0.8-2.2h1.5q0-0.3-0.1-0.4-0.1-0.2-0.2-0.3-0.2-0.1-0.4-0.1-0.3 0-0.5 0.2-0.2 0.2-0.3 0.6zm4.3 2.2q-0.5 0-0.7-0.2-0.2-0.2-0.2-0.7v-2h-0.5v-0.7h0.5v-1.1l0.9-0.4v1.5h0.8v0.7h-0.8v1.8q0 0.2 0.1 0.3 0 0.1 0.2 0.1 0.2 0 0.5-0.2l-0.1 0.8q-0.1 0.1-0.3 0.1-0.2 0-0.4 0z"/>
			<path id="80%" class="s1" aria-label="80%"  d="m436.1 400.1q-0.5 0-0.9-0.2-0.4-0.2-0.6-0.6-0.2-0.3-0.2-0.8 0-0.4 0.2-0.7 0.2-0.3 0.6-0.5-0.2-0.1-0.3-0.2-0.1-0.2-0.2-0.4-0.1-0.2-0.1-0.4 0-0.4 0.2-0.7 0.2-0.3 0.5-0.4 0.4-0.2 0.8-0.2 0.5 0 0.9 0.2 0.3 0.1 0.5 0.4 0.2 0.3 0.2 0.7 0 0.2-0.1 0.4-0.1 0.2-0.2 0.4-0.2 0.1-0.3 0.2 0.3 0.2 0.6 0.5 0.2 0.3 0.2 0.7 0 0.5-0.2 0.8-0.2 0.4-0.6 0.6-0.4 0.2-1 0.2zm0-0.8q0.3 0 0.5-0.1 0.2-0.1 0.3-0.3 0.1-0.2 0.1-0.4 0-0.2-0.1-0.4-0.1-0.2-0.3-0.3-0.2-0.1-0.5-0.1-0.2 0-0.4 0.1-0.2 0.1-0.3 0.3-0.1 0.2-0.1 0.4 0 0.2 0.1 0.4 0.1 0.2 0.3 0.3 0.2 0.1 0.4 0.1zm0-2.4q0.3 0 0.5-0.1 0.2-0.2 0.2-0.4 0-0.3-0.2-0.5-0.2-0.1-0.5-0.1-0.3 0-0.4 0.1-0.2 0.2-0.2 0.5 0 0.2 0.2 0.4 0.1 0.1 0.4 0.1zm4.5 3.2q-0.6 0-0.9-0.2-0.4-0.3-0.6-0.6-0.2-0.4-0.3-0.9 0-0.4 0-0.9 0-0.3 0-0.7 0.1-0.4 0.2-0.7 0.1-0.3 0.3-0.6 0.2-0.2 0.5-0.4 0.3-0.1 0.8-0.1 0.5 0 0.8 0.2 0.4 0.2 0.6 0.6 0.2 0.4 0.3 0.8 0.1 0.5 0.1 0.9 0 0.4-0.1 0.8 0 0.3-0.2 0.6-0.1 0.4-0.3 0.6-0.2 0.3-0.5 0.4-0.3 0.2-0.7 0.2zm0-0.9q0.2 0 0.4-0.1 0.2-0.2 0.3-0.4 0.1-0.3 0.1-0.6 0-0.2 0-0.6 0-0.3 0-0.6 0-0.3-0.1-0.5-0.1-0.3-0.3-0.4-0.2-0.2-0.4-0.2-0.3 0-0.5 0.2-0.1 0.1-0.3 0.4-0.1 0.2-0.1 0.5 0 0.3 0 0.6 0 0.4 0 0.7 0 0.3 0.1 0.5 0.2 0.2 0.3 0.4 0.2 0.1 0.5 0.1zm4 0.9h-0.9l3.4-5.1h0.9zm-0.2-2.5q-0.5 0-0.7-0.2-0.3-0.2-0.4-0.5-0.1-0.3-0.1-0.6 0-0.2 0-0.4 0.1-0.3 0.2-0.5 0.2-0.2 0.4-0.3 0.2-0.1 0.6-0.1 0.3 0 0.5 0.1 0.2 0.1 0.4 0.3 0.1 0.2 0.2 0.4 0 0.3 0 0.5 0 0.2 0 0.4-0.1 0.2-0.2 0.4-0.2 0.2-0.4 0.4-0.2 0.1-0.5 0.1zm0-0.8q0.1 0 0.2 0 0.1-0.1 0.1-0.2 0.1-0.2 0.1-0.3 0-0.2-0.1-0.3 0-0.1-0.1-0.2-0.1-0.1-0.2-0.1-0.2 0-0.3 0.1-0.1 0.1-0.1 0.2-0.1 0.1-0.1 0.3 0 0.1 0.1 0.3 0 0.1 0.1 0.2 0.1 0 0.3 0zm2.9 3.3q-0.4 0-0.7-0.2-0.3-0.2-0.4-0.5-0.1-0.3-0.1-0.6 0-0.2 0.1-0.4 0-0.3 0.2-0.5 0.1-0.2 0.3-0.3 0.3-0.1 0.6-0.1 0.3 0 0.5 0.1 0.3 0.1 0.4 0.3 0.2 0.2 0.2 0.4 0.1 0.3 0.1 0.5 0 0.2-0.1 0.4 0 0.3-0.2 0.5-0.1 0.2-0.3 0.3-0.3 0.1-0.6 0.1zm0-0.7q0.1 0 0.2-0.1 0.1-0.1 0.2-0.2 0-0.2 0-0.3 0-0.2 0-0.3-0.1-0.1-0.2-0.2-0.1-0.1-0.2-0.1-0.2 0-0.2 0.1-0.1 0.1-0.2 0.2 0 0.2 0 0.3 0 0.2 0 0.3 0.1 0.1 0.2 0.2 0 0.1 0.2 0.1z"/>
			<path id="&lt;Path&gt;" class="s13" d="m417.7 402.3c2.6 0 4.7-2.2 4.7-4.8 0-2.6-2.1-4.7-4.7-4.7h-349.4c-2.6 0-4.7 2.1-4.7 4.7 0 2.6 2.1 4.8 4.7 4.8z"/>
			<path id="&lt;Path&gt;" class="s14" d="m329.5 402.3c2.7 0 4.8-2.2 4.8-4.8 0-2.6-2.1-4.7-4.8-4.7h-261.2c-2.6 0-4.7 2.1-4.7 4.7 0 2.6 2.1 4.8 4.7 4.8z"/>
		</g>
	</g>
</svg>