<svg width="41" height="45" viewBox="0 0 41 45" fill="none" xmlns="http://www.w3.org/2000/svg">
<path d="M13.5833 17.4917C12.0318 17.4917 10.7693 18.739 10.744 20.2855C10.0138 20.6759 9.29894 21.046 8.57388 21.4009C7.95024 21.7102 7.78799 22.0956 7.77277 22.7446C7.69672 25.8932 7.57503 29.0419 7.46856 32.1905C7.44828 32.8345 7.42799 33.4784 7.39757 34.3556C6.72829 33.9753 6.29225 33.6711 5.81564 33.4632C4.5075 32.8953 4.06638 31.9877 4.20328 30.5376C4.41623 28.327 4.39088 26.096 4.47201 23.6674C3.77738 24.0172 3.29063 24.3265 2.76331 24.5141C1.70362 24.8893 1.39433 25.5941 1.41461 26.6943C1.44504 28.6413 1.36898 30.5934 1.22194 32.5303C1.14082 33.6052 1.37405 34.2947 2.39825 34.817C3.68104 35.4761 4.86749 36.3279 6.09957 37.0885C7.38236 37.8845 8.67022 38.6755 10.1406 39.583C10.166 38.8884 10.1812 38.4422 10.1913 38.0011C10.3282 33.9854 10.5513 29.9647 10.5513 25.949C10.5513 24.433 10.8758 23.3885 12.1383 22.7699C12.5642 23.0234 13.0611 23.1705 13.5884 23.1705C15.1551 23.1705 16.4278 21.8978 16.4278 20.3311C16.4278 18.7644 15.1501 17.4917 13.5833 17.4917ZM13.5833 21.9029C13.5732 21.9029 13.5681 21.9029 13.5631 21.9029C12.7062 21.8928 12.0166 21.1931 12.0166 20.3311C12.0166 20.0117 12.113 19.7176 12.2752 19.4692C12.5541 19.0432 13.0408 18.7593 13.5884 18.7593H13.5935C13.7405 18.7593 13.8774 18.7796 14.0143 18.8151C14.6735 19.0027 15.1602 19.6111 15.1602 20.3311C15.1551 21.1981 14.4504 21.9029 13.5833 21.9029Z" fill="#B8D8EB"/>
<path d="M18.1973 12.32C17.6396 12.32 17.1224 12.4823 16.6813 12.7611C16.1388 12.4113 15.6115 12.0614 15.0842 11.7065C14.5112 11.3161 14.0904 11.3617 13.5174 11.666C10.7389 13.1465 7.93503 14.5814 5.13622 16.0315C4.56327 16.3306 3.9954 16.6247 3.21457 17.0303C3.21964 16.2596 3.27035 15.7323 3.21964 15.2152C3.0726 13.8005 3.64555 12.9639 4.97904 12.3758C7.00716 11.4784 8.93895 10.3629 11.0989 9.24235C10.455 8.8063 9.94794 8.53757 9.52203 8.16744C8.67529 7.42718 7.90967 7.50323 6.96153 8.06097C5.28326 9.0446 3.54414 9.93191 1.77968 10.7533C0.806178 11.2096 0.314359 11.7521 0.359992 12.898C0.415765 14.3431 0.253515 15.7881 0.192672 17.2382C0.126758 18.7492 0.0709843 20.2601 0 21.984C0.613507 21.6646 1.00899 21.4618 1.40447 21.2539C4.9689 19.4032 8.58402 17.6286 12.0825 15.6563C13.2994 14.9718 14.2983 14.7233 15.3529 15.3064C15.4239 16.8072 16.6712 18.0089 18.1872 18.0089C19.7539 18.0089 21.0266 16.7363 21.0266 15.1695C21.0266 13.6028 19.764 12.32 18.1973 12.32ZM19.764 15.3014C19.6931 16.1025 19.0187 16.7312 18.1973 16.7312C17.7765 16.7312 17.3911 16.5639 17.1072 16.2901C16.8081 16.0061 16.6255 15.6005 16.6255 15.1594C16.6255 14.3583 17.2238 13.6991 17.9996 13.5977C18.0655 13.5876 18.1314 13.5825 18.1973 13.5825C18.892 13.5825 19.4852 14.0389 19.6931 14.6676C19.7438 14.8197 19.7691 14.987 19.7691 15.1543C19.7691 15.205 19.7691 15.2557 19.764 15.3014Z" fill="#B8D8EB"/>
<path d="M29.0985 38.569C25.6608 36.48 22.2739 34.315 18.7703 32.3477C17.4571 31.6075 16.7067 30.8216 16.7776 29.4374C17.7309 28.981 18.39 28.0025 18.39 26.8769C18.39 25.3101 17.1174 24.0375 15.5506 24.0375C13.9839 24.0375 12.7113 25.3101 12.7113 26.8769C12.7113 27.8453 13.198 28.6971 13.9383 29.2092C13.918 30.1066 13.8926 30.9737 13.847 31.8356C13.8115 32.5303 14.065 32.8649 14.6228 33.1945C17.3303 34.8018 20.0125 36.4547 22.7048 38.0873C23.2524 38.422 23.8051 38.7566 24.5555 39.2129C23.8964 39.6084 23.4147 39.8366 23.004 40.1509C21.8682 41.0129 20.8592 40.952 19.6626 40.1205C17.8424 38.8529 15.8853 37.7831 13.8064 36.5206C13.771 37.2963 13.8014 37.8744 13.705 38.427C13.5124 39.5323 13.9738 40.1459 14.9422 40.6732C16.6509 41.601 18.3139 42.6252 19.9364 43.7052C20.8339 44.3035 21.5488 44.4353 22.5071 43.8015C23.7138 43.0055 25.0372 42.392 26.3047 41.6923C27.6281 40.9622 28.9514 40.232 30.4624 39.3954C29.859 39.0304 29.4788 38.7972 29.0985 38.569ZM15.5506 28.4487C14.7039 28.4487 14.0093 27.7743 13.9788 26.9326C13.9788 26.9124 13.9788 26.8971 13.9788 26.8769C13.9788 26.8414 13.9788 26.811 13.9839 26.7755V26.7704V26.7653C14.0093 26.4307 14.136 26.1265 14.3338 25.8831C14.6228 25.5282 15.0588 25.3051 15.5506 25.3051C16.4177 25.3051 17.1224 26.0098 17.1224 26.8769C17.1224 27.2521 16.9906 27.6019 16.7675 27.8706C16.4734 28.2256 16.0374 28.4487 15.5506 28.4487Z" fill="#B8D8EB"/>
<path d="M40.243 21.5885C39.6396 21.9282 39.2492 22.1463 38.8639 22.3643C35.3603 24.3366 31.8111 26.2279 28.3785 28.3168C27.1312 29.0774 26.1019 29.3512 24.9662 28.692C24.9763 28.5957 24.9814 28.4994 24.9814 28.398C24.9814 26.8312 23.7087 25.5586 22.142 25.5586C20.5753 25.5586 19.3026 26.8312 19.3026 28.398C19.3026 29.9647 20.5753 31.2373 22.142 31.2373C22.5476 31.2373 22.933 31.1511 23.2828 30.999C24.0484 31.4554 24.7887 31.9015 25.5188 32.3629C26.107 32.7331 26.5228 32.6773 27.0856 32.3528C29.8134 30.781 32.5666 29.2498 35.3147 27.7084C35.8775 27.394 36.4352 27.0746 37.2008 26.6487C37.2211 27.4194 37.1856 27.9467 37.2566 28.4639C37.4493 29.8734 36.9067 30.7252 35.5935 31.3641C33.5958 32.3325 31.7046 33.5088 29.5852 34.7054C30.2444 35.1161 30.7615 35.3747 31.1976 35.7296C32.0697 36.4395 32.8302 36.3381 33.7581 35.7499C35.4009 34.7105 37.1096 33.7623 38.8487 32.8852C39.807 32.3984 40.2785 31.8356 40.1923 30.6948C40.0909 29.2548 40.2024 27.7997 40.2126 26.3496C40.2227 24.8234 40.2278 23.3124 40.243 21.5885ZM22.142 29.9697C21.4727 29.9697 20.8998 29.5489 20.6716 28.9557C20.6057 28.7833 20.5702 28.5957 20.5702 28.398C20.5702 27.5309 21.275 26.8262 22.142 26.8262C22.8366 26.8262 23.4299 27.2825 23.6378 27.9061C23.6885 28.0582 23.7138 28.2256 23.7138 28.398C23.7138 29.265 23.004 29.9697 22.142 29.9697Z" fill="#B8D8EB"/>
<path d="M38.6763 16.9239C38.5799 14.9819 38.5901 13.0299 38.6712 11.0829C38.7168 10.008 38.4583 9.32347 37.4188 8.83672C36.1107 8.22322 34.8989 7.41197 33.6415 6.68691C32.3333 5.93144 31.0151 5.1861 29.5193 4.32922C29.5193 5.02385 29.5193 5.47004 29.5193 5.91623C29.5193 9.93698 29.428 13.9577 29.5649 17.9734C29.6156 19.3931 29.3621 20.4072 28.3126 21.0714C27.8968 20.8331 27.4101 20.6911 26.898 20.6911C25.3312 20.6911 24.0586 21.9637 24.0586 23.5305C24.0586 25.0972 25.3312 26.3698 26.898 26.3698C28.4647 26.3698 29.7373 25.0972 29.7373 23.5355C30.3914 23.1603 31.0353 22.7953 31.6894 22.4505C32.3029 22.1209 32.455 21.7305 32.4449 21.0815C32.4145 17.9328 32.4297 14.7842 32.4297 11.6355V9.47051C33.1091 9.8305 33.5553 10.1195 34.037 10.3071C35.3603 10.8294 35.8369 11.7217 35.7456 13.1769C35.6087 15.3926 35.7102 17.6185 35.7102 20.0522C36.3896 19.6821 36.8662 19.3525 37.3935 19.1497C38.4481 18.734 38.7321 18.019 38.6763 16.9239ZM28.1909 24.433C27.9323 24.798 27.5267 25.0465 27.0602 25.0921C27.0095 25.0972 26.9588 25.0972 26.9081 25.0972C26.7104 25.0972 26.5228 25.0617 26.3504 24.9958C25.7571 24.7727 25.3363 24.1947 25.3363 23.5254C25.3363 22.6837 26.0005 21.9942 26.8321 21.9536C26.8574 21.9536 26.8828 21.9536 26.9081 21.9536C27.7751 21.9536 28.4799 22.6584 28.4799 23.5254C28.4799 23.8651 28.3734 24.1795 28.1909 24.433Z" fill="#B8D8EB"/>
<path d="M26.5785 14.8501C26.6242 14.0946 26.6749 13.3544 26.7357 12.6192C26.7966 11.9296 26.5532 11.5848 26.0056 11.235C23.3538 9.53642 20.7274 7.79731 18.0908 6.07341C17.5534 5.71849 17.0109 5.36863 16.2807 4.88695C16.9551 4.51175 17.4418 4.2988 17.8627 3.99965C19.0288 3.17826 20.0328 3.26953 21.204 4.14162C22.9837 5.47004 24.9003 6.60579 26.9335 7.93928C26.9943 7.16352 26.9842 6.59058 27.1008 6.03791C27.3289 4.93766 26.8878 4.30894 25.9397 3.75628C24.2614 2.77264 22.6338 1.69266 21.0519 0.561986C20.1798 -0.0667322 19.4649 -0.223911 18.4863 0.379455C17.2542 1.13493 15.9106 1.70787 14.6228 2.36194C13.2741 3.04643 11.9304 3.736 10.3941 4.51682C10.9721 4.8971 11.3473 5.14047 11.7225 5.38384C15.0841 7.58436 18.4001 9.86599 21.8378 11.9499C23.0597 12.6952 23.7747 13.4659 23.7442 14.7233C22.8366 15.1949 22.213 16.1481 22.213 17.2433C22.213 18.81 23.4856 20.0827 25.0524 20.0827C26.6191 20.0827 27.8917 18.81 27.8917 17.2433C27.8816 16.2394 27.3594 15.3571 26.5785 14.8501ZM26.4112 18.014C26.2997 18.2066 26.1526 18.374 25.9701 18.5058C25.7115 18.6985 25.387 18.81 25.0422 18.81C24.1752 18.81 23.4704 18.1052 23.4704 17.2382C23.4704 16.9543 23.5465 16.6906 23.6732 16.4625C23.942 15.9859 24.4541 15.6664 25.0422 15.6664C25.6862 15.6664 26.2388 16.0518 26.4822 16.6095C26.5684 16.8022 26.614 17.0151 26.614 17.2382C26.614 17.5222 26.538 17.7858 26.4112 18.014Z" fill="#B8D8EB"/>
</svg>
